<?xml version="1.0" encoding="UTF-8"?>
<svg width="32px" height="33px" viewBox="0 0 32 33" version="1.1" xmlns="http://www.w3.org/2000/svg" xmlns:xlink="http://www.w3.org/1999/xlink">
    <title>icon/修改</title>
    <g id="页面-1" stroke="none" stroke-width="1" fill="none" fill-rule="evenodd">
        <g id="2-4地图-自定义任务-发布任务" transform="translate(-686.000000, -883.000000)" fill="#527AD9" fill-rule="nonzero">
            <g id="内容" transform="translate(32.000000, 176.000000)">
                <g id="编组备份" transform="translate(0.000000, 603.000000)">
                    <g id="icon/修改" transform="translate(654.000000, 104.000000)">
                        <path d="M14.1016317,1.6901321 C14.9768454,1.6901321 15.6929293,2.40621603 15.6929293,3.28142968 C15.6929293,4.15664332 14.9768454,4.87272728 14.1016317,4.87272728 L4.87210568,4.87272728 C3.996892,4.87272728 3.28080807,5.58881121 3.28080807,6.46402485 L3.28080807,27.4691531 C3.28080807,28.3443667 3.996892,29.0604507 4.87210568,29.0604507 L24.2063714,29.0604507 C25.0815851,29.0604507 25.797669,28.3443667 25.797669,27.4691531 L25.797669,17.6826729 C25.797669,16.8074592 26.5137529,16.0913753 27.3889666,16.0913753 C28.2641803,16.0913753 28.9802642,16.8074592 28.9802642,17.6826729 L28.9802642,27.4691531 C28.9802642,30.174359 26.8320124,32.3226107 24.1268065,32.3226107 L4.87210568,32.3226107 C2.16689976,32.3226107 0.0186480342,30.174359 0.0186480342,27.4691531 L0.0186480342,6.46402485 C0.0186480342,3.75881894 2.16689979,1.61056721 4.87210568,1.61056721 L14.1016317,1.61056721 L14.1016317,1.6901321 Z M27.9459208,0.496658906 L31.3672106,3.91794872 C32.0037296,4.55446776 32.0037296,5.58881118 31.3672106,6.22533022 L17.4433566,20.1491841 C17.2842269,20.3083139 17.0455322,20.4674437 16.8068376,20.5470085 L11.8738151,22.0587413 C10.9986014,22.2974359 10.1233877,21.8200466 9.88469309,20.944833 C9.80512821,20.6265734 9.80512821,20.3083139 9.88469309,19.9900544 L11.3964258,15.0570319 C11.4759907,14.8183372 11.6351204,14.5796426 11.7942502,14.4205128 L25.6385392,0.496658906 C26.2750583,-0.139860137 27.3094017,-0.139860137 27.9459208,0.496658906 Z M14.3403263,16.4096348 L13.8629371,18.0804973 L15.5337995,17.603108 L27.9459208,5.11142191 L26.8320124,3.99751361 L14.3403263,16.4096348 Z" id="形状"></path>
                    </g>
                </g>
            </g>
        </g>
    </g>
</svg>