<?xml version="1.0" encoding="UTF-8"?>
<svg width="40px" height="40px" viewBox="0 0 40 40" version="1.1" xmlns="http://www.w3.org/2000/svg" xmlns:xlink="http://www.w3.org/1999/xlink">
    <title>暂停</title>
    <g id="页面-1" stroke="none" stroke-width="1" fill="none" fill-rule="evenodd">
        <g id="2-地图-小组任务-进行中" transform="translate(-355.000000, -1077.000000)" fill="#FFFFFF">
            <g id="按钮" transform="translate(24.000000, 1034.000000)">
                <g id="编组-9" transform="translate(271.000000, 0.000000)">
                    <g id="编组-3" transform="translate(60.000000, 43.000000)">
                        <path d="M14,4 C14.5522847,4 15,4.44771525 15,5 L15,36 C15,36.5522847 14.5522847,37 14,37 L9,37 C8.44771525,37 8,36.5522847 8,36 L8,5 C8,4.44771525 8.44771525,4 9,4 L14,4 Z M32,4 C32.5522847,4 33,4.44771525 33,5 L33,36 C33,36.5522847 32.5522847,37 32,37 L27,37 C26.4477153,37 26,36.5522847 26,36 L26,5 C26,4.44771525 26.4477153,4 27,4 L32,4 Z" id="形状结合"></path>
                    </g>
                </g>
            </g>
        </g>
    </g>
</svg>