<?xml version="1.0" encoding="UTF-8"?>
<svg width="52px" height="20px" viewBox="0 0 52 20" version="1.1" xmlns="http://www.w3.org/2000/svg" xmlns:xlink="http://www.w3.org/1999/xlink">
    <title>编组</title>
    <g id="页面-1" stroke="none" stroke-width="1" fill="none" fill-rule="evenodd">
        <g id="2-地图-团队任务-进行中-查看队员" transform="translate(-341.000000, -366.000000)" fill="#FF7575" fill-rule="nonzero">
            <g id="编组-9" transform="translate(65.000000, 242.000000)">
                <g id="编组-13" transform="translate(0.000000, 86.000000)">
                    <g id="编组-4" transform="translate(48.000000, 27.000000)">
                        <g id="编组" transform="translate(228.000000, 11.000000)">
                            <path d="M9.15181373,0 L48.1666667,0 L48.1666667,0 C49.7314735,0 51,1.27918643 51,2.85714285 L51,17.1428571 C51,18.7208136 49.7314735,20 48.1666667,20 L9.15181373,20 C7.85442873,20 6.63762683,19.3707673 5.8877158,18.3120694 L0.818857901,11.1560347 C0.328256516,10.463421 0.328256516,9.53657904 0.818857901,8.84396532 L5.8877158,1.68793064 C6.63762683,0.629232718 7.85442873,-1.09394187e-15 9.15181373,0 Z M9.91666667,11.4285714 C10.4227929,11.4285714 10.8904729,11.1562873 11.143536,10.7142857 C11.3965992,10.2722842 11.3965992,9.72771582 11.143536,9.28571427 C10.8904729,8.84371273 10.4227929,8.57142857 9.91666667,8.57142857 C9.13426327,8.57142857 8.5,9.21102179 8.5,10 C8.5,10.7889782 9.13426327,11.4285714 9.91666667,11.4285714 L9.91666667,11.4285714 Z M22.6241667,13.7 C21.2641667,14.3428571 19.6633334,14.8571429 17.8216667,15.2285714 L17.9916667,16.5857143 C19.72,16.1857143 21.2641667,15.6571429 22.6241667,14.9857143 L22.6241667,13.7 Z M20.2016667,3.95714285 C19.635,5.47142857 18.9833333,6.82857143 18.2183333,8.05714285 C18.0483333,8.3142857 17.85,8.48571428 17.6375,8.57142857 L17.9775,9.82857143 C18.7425,9.72857143 19.4791667,9.62857143 20.2158333,9.52857143 C19.5075,10.6571429 18.9266667,11.4571429 18.4591667,11.9285714 C18.2891667,12.0857143 18.0908333,12.2142857 17.85,12.3285714 L18.2041667,13.5714286 C19.6208333,13.3714286 21.1366667,12.9714286 22.7375,12.3857143 L22.7375,11.1428571 C21.7741667,11.5142857 20.8391667,11.8 19.9041667,12.0285714 C20.7541667,10.9857143 21.8025,9.34285715 23.035,7.11428572 L21.8166667,6.65714285 C21.505,7.22857143 21.2216667,7.75714285 20.9383333,8.27142857 C20.4,8.35714285 19.8475,8.42857143 19.3091667,8.48571428 C20.0458333,7.45714285 20.7683333,6.1142857 21.4766667,4.45714285 L20.2016667,3.95714285 L20.2016667,3.95714285 Z M29.4383333,4.62857143 L23.46,4.62857143 L23.46,15.3714286 L22.2983333,15.3714286 L22.2983333,16.6857143 L30.5716667,16.6857143 L30.5716667,15.3714286 L29.4383333,15.3714286 L29.4383333,4.62857143 L29.4383333,4.62857143 Z M24.7775,15.3714286 L24.7775,13.0571429 L28.1208333,13.0571429 L28.1208333,15.3714286 L24.7775,15.3714286 Z M24.7775,11.7714286 L24.7775,9.42857143 L28.1208333,9.42857143 L28.1208333,11.7714286 L24.7775,11.7714286 L24.7775,11.7714286 Z M24.7775,8.15714285 L24.7775,5.92857143 L28.1208333,5.92857143 L28.1208333,8.15714285 L24.7775,8.15714285 L24.7775,8.15714285 Z M31.9883333,9.42857143 L31.9883333,10.7428571 L34.7508333,10.7428571 L34.7508333,15.2571429 C34.7508333,15.5428571 34.6233333,15.7428571 34.3966667,15.8714286 L34.8075,17.1285714 C36.4366667,16.7571429 37.9666667,16.3428571 39.3833333,15.8571429 L39.0433333,14.5714286 C38.0658333,14.9142857 37.0883333,15.2142857 36.1108333,15.4714286 L36.1108333,10.7428571 L38.7458333,10.7428571 C39.3408333,13.3571429 41.0691667,15.4285714 43.945,16.9571429 L44.7383333,15.6714286 C42.1883333,14.4714286 40.63,12.8285714 40.0491667,10.7428571 L44.5541667,10.7428571 L44.5541667,9.42857143 L36.1108333,9.42857143 L36.1108333,4.07142857 L34.7508333,4.07142857 L34.7508333,9.42857143 L31.9883333,9.42857143 Z M42.2308333,4.14285715 C41.14,5.37142857 39.4825,6.47142857 37.2441667,7.44285715 L38.0516667,8.52857143 C40.3183333,7.5 42.0041667,6.35714285 43.1375,5.07142857 L42.2308333,4.14285715 Z" id="形状"></path>
                        </g>
                    </g>
                </g>
            </g>
        </g>
    </g>
</svg>