<?xml version="1.0" encoding="UTF-8"?>
<svg width="48px" height="48px" viewBox="0 0 48 48" version="1.1" xmlns="http://www.w3.org/2000/svg" xmlns:xlink="http://www.w3.org/1999/xlink">
    <title>icon/已选/消息</title>
    <defs>
        <linearGradient x1="50%" y1="1.40677787%" x2="50%" y2="126.95619%" id="linearGradient-1">
            <stop stop-color="#70A1FD" offset="0%"></stop>
            <stop stop-color="#3E5FC0" offset="100%"></stop>
        </linearGradient>
    </defs>
    <g id="icon/已选/消息" stroke="none" stroke-width="1" fill="none" fill-rule="evenodd">
        <g id="icon/消息/未选">
            <rect id="矩形" fill="#D8D8D8" opacity="0" x="0" y="0" width="48" height="48"></rect>
            <g id="message-square" transform="translate(4.000000, 4.000000)">
                <path d="M34,0 C37.3137085,0 40,2.6862915 40,6 L40,6 L40,26 C40,29.3137085 37.3137085,32 34,32 L34,32 L10.828,32 L3.41421356,39.4142136 C2.1913406,40.6370865 0.125948916,39.8324381 0.00551313642,38.154878 L0.00551313642,38.154878 L0,38 L0,6 C0,2.6862915 2.6862915,0 6,0 L6,0 Z" id="形状结合" fill="url(#linearGradient-1)" fill-rule="nonzero"></path>
                <g id="编组" transform="translate(9.000000, 14.000000)" fill="#FFFFFF" opacity="0.818080357">
                    <g>
                        <circle id="椭圆形" cx="2" cy="2" r="2"></circle>
                        <circle id="椭圆形备份" cx="11" cy="2" r="2"></circle>
                        <circle id="椭圆形备份-2" cx="20" cy="2" r="2"></circle>
                    </g>
                </g>
            </g>
        </g>
    </g>
</svg>