<?xml version="1.0" encoding="UTF-8"?>
<svg width="48px" height="48px" viewBox="0 0 48 48" version="1.1" xmlns="http://www.w3.org/2000/svg" xmlns:xlink="http://www.w3.org/1999/xlink">
    <title>icon/已选/地图</title>
    <defs>
        <linearGradient x1="52.0642361%" y1="88.2108044%" x2="47.8944269%" y2="5.99013237%" id="linearGradient-1">
            <stop stop-color="#6998FC" offset="0%"></stop>
            <stop stop-color="#93BFFF" offset="100%"></stop>
        </linearGradient>
        <linearGradient x1="50%" y1="0%" x2="50%" y2="100%" id="linearGradient-2">
            <stop stop-color="#7097E0" offset="0%"></stop>
            <stop stop-color="#3153B4" offset="100%"></stop>
        </linearGradient>
        <linearGradient x1="50%" y1="0%" x2="50%" y2="100%" id="linearGradient-3">
            <stop stop-color="#8FBCFF" offset="0%"></stop>
            <stop stop-color="#496FC4" offset="100%"></stop>
        </linearGradient>
    </defs>
    <g id="icon/已选/地图" stroke="none" stroke-width="1" fill="none" fill-rule="evenodd">
        <g id="编组">
            <rect id="矩形" fill="#D8D8D8" opacity="0" x="0" y="0" width="48" height="48"></rect>
            <g id="map" transform="translate(3.371429, 5.500000)">
                <path d="M0.503925819,7.21209224 L13.1272727,0 L13.1272727,0 L13.1272727,30.0051948 L0.748069469,37.0790252 C0.508310746,37.2160302 0.202883414,37.1327319 0.0658784289,36.8929731 C0.0227076587,36.8174243 -4.15268027e-15,36.7319171 0,36.6449037 L0,8.08037239 C1.78094051e-16,7.72148888 0.192314394,7.39012509 0.503925819,7.21209224 Z" id="路径-2" fill="url(#linearGradient-1)"></path>
                <polygon id="路径-3" fill="url(#linearGradient-2)" points="13.1272727 0 28.1298701 7.5012987 28.1298701 37.5064935 13.1272727 30.0051948"></polygon>
                <g id="编组" transform="translate(20.628571, 20.642121) rotate(16.000000) translate(-20.628571, -20.642121) translate(14.128571, 15.142121)" fill="#FFFFFF" fill-rule="nonzero" opacity="0.266834077">
                    <path d="M12.7949505,0.980937933 L12.1647423,1.26517869 C12.1360359,1.27808517 12.1015777,1.27378885 12.0771852,1.25513056 L11.4441011,0.764175642 C11.4412252,0.761299741 11.4369289,0.75842384 11.434053,0.755547939 L10.7823106,0.0736787622 C10.7679662,0.0593167933 10.74787,0.0492686708 10.7277737,0.0478307254 L10.3042797,0.0105141574 C10.2856214,0.00907620163 10.2655252,0.0133725219 10.2497253,0.0248585898 L9.89085137,0.260296707 C9.8736135,0.271782775 9.86070701,0.289003108 9.85495521,0.307661397 L9.60661062,1.15175595 C9.5994384,1.17760399 9.58076258,1.19770022 9.55637003,1.20774835 L9.27212927,1.32115355 C9.23910901,1.33407758 9.21757482,1.36565988 9.21757482,1.40155604 L9.21757482,1.69296901 C9.21757482,1.73316148 9.24628123,1.76904011 9.28505329,1.77766781 L9.86644128,1.90255908 C9.94109196,1.91834147 9.95975025,2.01740224 9.89514768,2.05903266 L9.32954208,2.42509631 C9.32668371,2.42653426 9.32380781,2.42939263 9.32093191,2.43083057 L8.09641173,3.45151248 C8.08206729,3.46441896 8.06339147,3.47017077 8.04473318,3.47160871 L7.4978034,3.49170495 C7.48631733,3.49170495 7.47626921,3.49456331 7.4662211,3.49887717 L6.93505616,3.73429775 C6.91210156,3.74436341 6.88481557,3.74436341 6.86328138,3.73287733 L6.15700211,3.39120623 C6.14839194,3.38690991 6.13976424,3.38403401 6.12971612,3.38259606 L5.20379866,3.27206675 C5.17221635,3.2677529 5.14636831,3.24765666 5.13489978,3.21895026 L5.0042567,2.89881335 C4.99564653,2.87871711 4.98128456,2.86293473 4.96118833,2.85432456 L4.1616001,2.46958509 C4.13431411,2.4566786 4.11565583,2.43083056 4.11277993,2.40068621 L4.09699754,2.22843024 C4.09699754,2.22555434 4.09699754,2.22124048 4.09699754,2.21836458 L4.10704566,1.85230093 C4.10704566,1.8350806 4.1027318,1.81929821 4.09412164,1.80493624 L3.75390603,1.26086483 C3.72949594,1.22211031 3.6778174,1.20918628 3.63762492,1.23215843 L3.08350538,1.56088797 C3.07775358,1.56520183 3.07201931,1.56951567 3.06626751,1.57381199 L2.94281419,1.69726531 C2.9241559,1.71594114 2.89688745,1.72455131 2.86960147,1.7216754 L2.58823661,1.68292088 C2.55092005,1.67716908 2.51358593,1.69870327 2.49780354,1.73316147 L2.3643021,2.03174666 C2.34994013,2.06332896 2.31835783,2.08342521 2.28389962,2.08200479 L1.92071187,2.07337708 C1.88195735,2.07195666 1.84749914,2.09778717 1.83601307,2.13368333 L1.63217481,2.79833218 C1.6235471,2.82847653 1.5977166,2.85144867 1.56757225,2.85718293 L0.600006835,3.06103874 C0.595692979,3.06247669 0.591396669,3.06247669 0.587082812,3.06533506 L0.0559354104,3.2634566 C0.0171808866,3.27780103 -0.00579124907,3.31799351 0.00138096194,3.35962393 L0.0415734311,3.58213803 C0.0430113869,3.58788983 0.0444493322,3.5936241 0.045887288,3.59793795 L0.397588966,4.49083515 C0.397588966,4.49227311 0.399026922,4.49371106 0.399026922,4.49514901 C0.419123156,4.53821738 0.726336055,5.20142828 0.722022199,5.26746879 C0.717708342,5.32346118 0.565548621,5.71535534 0.512432129,5.84741882 C0.500946061,5.87470482 0.505259907,5.90628712 0.522480251,5.92925925 L0.660295539,6.11873555 C0.664609396,6.12448735 0.668905706,6.13022162 0.674657508,6.13453548 L1.83169923,7.09922499 C1.83745103,7.10495925 1.84462325,7.10783515 1.851813,7.11213147 L3.63762493,7.90312707 C3.65484526,7.91029929 3.67350355,7.91173724 3.69074142,7.90886134 L4.76308434,7.67487871 C4.78318057,7.67056486 4.80471476,7.67344076 4.82337305,7.68348888 L5.24111525,7.91317519 C5.27701141,7.93327142 5.29423174,7.97490185 5.28132525,8.01365637 L5.02722886,8.83909264 C5.01718073,8.87211289 5.02722886,8.90800905 5.05449731,8.92954323 L5.97468051,9.70903523 C5.9990906,9.72913146 6.03211086,9.73488326 6.0622552,9.7233972 L7.19202847,9.2740727 C7.21642102,9.26402458 7.24514496,9.26688294 7.2681171,9.28124492 L8.00454072,9.73056942 C8.00741662,9.73200737 8.00885458,9.73344532 8.01171294,9.73488328 L8.34189798,9.98178992 C8.3490702,9.98752419 8.35768036,9.99183805 8.36630807,9.99471395 L8.51129558,10.0420786 C8.56297412,10.0593165 8.61752856,10.0248583 8.62326283,9.97030386 L8.63904522,9.81956454 C8.64192112,9.79229609 8.65772104,9.76646559 8.68355154,9.75354156 L10.5296697,8.73429761 C10.5440142,8.72568744 10.5569382,8.71420137 10.5641104,8.69841898 L11.221587,7.42939247 C11.2287768,7.41646845 11.2316527,7.40212402 11.2316527,7.38776205 L11.2014908,6.37426989 C11.2014908,6.3556116 11.1943186,6.33695333 11.1813945,6.32259135 L10.7909383,5.8502947 L10.5110114,5.49571712 C10.4866013,5.46413482 10.4866013,5.4196285 10.5124319,5.38804618 L10.9416601,4.86550895 C10.9502703,4.85546083 10.9603184,4.84828861 10.9718045,4.84253681 L10.9718045,4.84253681 C11.0435968,4.80809615 11.0349691,4.70330111 10.95746,4.68176691 L10.760794,4.62721247 C10.7536042,4.62577451 10.746432,4.62433657 10.7378218,4.62433657 L10.2109708,4.62433657 C10.1837023,4.62433657 10.1578543,4.61143008 10.1420719,4.5898959 L10.0128668,4.41188813 C9.98559831,4.37455403 9.99277053,4.32143753 10.0286667,4.29273112 L10.6660471,3.79316603 C10.7234599,3.74722176 10.8081587,3.79172808 10.8052828,3.86494082 L10.7995485,3.97834602 C10.7966726,4.04294858 10.8612752,4.08745491 10.9201259,4.06160687 L11.1900223,3.94102945 C11.1986324,3.9367156 11.2058046,3.93241929 11.2115564,3.92666748 L12.4805654,2.79689422 C12.4963653,2.78254979 12.5078514,2.76243602 12.5092718,2.73948141 L12.5652642,2.06476692 C12.5681401,2.02169855 12.6040187,1.98725787 12.6470871,1.98581992 L12.7748543,1.98150607 C12.8193606,1.98006811 12.8538013,1.94562744 12.8566772,1.90112112 L12.9169659,1.06707467 C12.9212797,1.00103417 12.8538013,0.953651941 12.7949505,0.980937933 L12.7949505,0.980937933 Z M11.2445591,8.4514948 L11.0608171,9.01136614 L11.2976756,9.34440954 L11.4814352,8.98983196 L11.6221089,8.61372019 L11.524486,8.34526182 L11.2445591,8.4514948 L11.2445591,8.4514948 Z M8.25863711,10.2473724 L8.00024439,10.4081598 L8.18398642,10.6234842 L8.42084495,10.5703677 L8.69072373,10.3119749 L8.60460452,10.1612356 L8.25863711,10.2473724 L8.25863711,10.2473724 Z" id="形状"></path>
                </g>
                <polygon id="路径-3" fill="#FFFFFF" opacity="0.0519205729" points="13.1272727 0 28.1298701 7.5012987 28.1298701 37.5064935 13.1272727 30.0051948"></polygon>
                <path d="M28.1298701,7.5 L40.1336084,0.442931028 C40.3716592,0.302979539 40.6780906,0.382504758 40.8180421,0.620555576 C40.8632013,0.697369169 40.887013,0.784855291 40.887013,0.873960163 L40.887013,29.4331366 C40.887013,29.7875612 40.6994085,30.1155077 40.3938874,30.2951565 L28.1298701,37.5064935 L28.1298701,37.5064935 L28.1298701,7.5 Z" id="路径-4" fill="url(#linearGradient-3)"></path>
            </g>
        </g>
    </g>
</svg>