<?xml version="1.0" encoding="UTF-8"?>
<svg width="48px" height="48px" viewBox="0 0 48 48" version="1.1" xmlns="http://www.w3.org/2000/svg" xmlns:xlink="http://www.w3.org/1999/xlink">
    <title>icon/已选/我的</title>
    <defs>
        <linearGradient x1="50%" y1="1.40677787%" x2="50%" y2="149.397673%" id="linearGradient-1">
            <stop stop-color="#70A1FD" offset="0%"></stop>
            <stop stop-color="#3E5FC0" offset="100%"></stop>
        </linearGradient>
    </defs>
    <g id="icon/已选/我的" stroke="none" stroke-width="1" fill="none" fill-rule="evenodd">
        <g id="编组">
            <rect id="矩形" fill="#D8D8D8" opacity="0" x="0" y="0" width="48" height="48"></rect>
            <g id="user" transform="translate(7.000000, 5.000000)" fill="url(#linearGradient-1)" fill-rule="nonzero">
                <path d="M25.3333333,25.3333333 C29.9970712,25.3333333 33.7777778,29.1140399 33.7777778,33.7777778 L33.7777778,33.7777778 L33.7777778,36 C33.7777778,37.1045695 32.8823473,38 31.7777778,38 L31.7777778,38 L2,38 C0.8954305,38 1.99087237e-13,37.1045695 1.98951966e-13,36 L1.98951966e-13,36 L1.98951966e-13,33.7777778 C1.98951966e-13,29.1140399 3.78070656,25.3333333 8.44444444,25.3333333 L8.44444444,25.3333333 Z M16.8888889,9.9475983e-14 C21.5526268,9.9475983e-14 25.3333333,3.78070656 25.3333333,8.44444444 C25.3333333,13.1081823 21.5526268,16.8888889 16.8888889,16.8888889 C12.225151,16.8888889 8.44444444,13.1081823 8.44444444,8.44444444 C8.44444444,3.78070656 12.225151,9.9475983e-14 16.8888889,9.9475983e-14 Z" id="形状结合"></path>
            </g>
        </g>
    </g>
</svg>