<?xml version="1.0" encoding="UTF-8"?>
<svg width="48px" height="48px" viewBox="0 0 48 48" version="1.1" xmlns="http://www.w3.org/2000/svg" xmlns:xlink="http://www.w3.org/1999/xlink">
    <title>icon/已选/工作台</title>
    <defs>
        <linearGradient x1="66.8509068%" y1="62.4449829%" x2="32.8116478%" y2="35.6663041%" id="linearGradient-1">
            <stop stop-color="#6998FC" offset="0%"></stop>
            <stop stop-color="#93BFFF" offset="100%"></stop>
        </linearGradient>
        <linearGradient x1="50%" y1="0%" x2="50%" y2="100%" id="linearGradient-2">
            <stop stop-color="#8FBCFF" offset="0%"></stop>
            <stop stop-color="#496FC4" offset="100%"></stop>
        </linearGradient>
        <linearGradient x1="50%" y1="0%" x2="50%" y2="100%" id="linearGradient-3">
            <stop stop-color="#7097E0" offset="0%"></stop>
            <stop stop-color="#3153B4" offset="100%"></stop>
        </linearGradient>
    </defs>
    <g id="icon/已选/工作台" stroke="none" stroke-width="1" fill="none" fill-rule="evenodd">
        <g id="编组-2" transform="translate(5.500000, 3.000000)">
            <path d="M0.00386453654,10.3651291 L18.0367807,20.6209627 L36.1369356,10.3651291 C36.0148917,9.96700048 35.7434115,9.55016316 35.322495,9.11461718 C34.9015784,8.6790712 34.3778632,8.27307509 33.7513491,7.89662886 L20.9225063,0.720954837 C20.0296712,0.240318279 19.136836,-1.95399252e-14 18.2440009,-1.95399252e-14 C17.3511657,-1.95399252e-14 16.4583306,0.240318279 15.5654954,0.720954837 L1.94508465,8.39359364 C1.47059657,8.74373167 1.07999417,9.07455399 0.773277462,9.38606059 C0.466560749,9.69756719 0.210089774,10.0239234 0.00386453654,10.3651291 Z" id="路径-5" fill="url(#linearGradient-1)"></path>
            <path d="M0.00386453654,10.3651291 L0.00386453654,28.5571951 C-0.0282211604,29.3627725 0.139489147,30.1523476 0.50699546,30.9259203 C0.874501772,31.699493 1.37051173,32.3069984 1.99502534,32.7484365 L15.1820249,40.3637403 C15.6276127,40.597468 16.1026491,40.7882777 16.6071339,40.9361694 C17.1116187,41.0840611 17.5881676,41.1722124 18.0367807,41.2006233 L18.0367807,20.6209627 L0.00386453654,10.3651291 Z" id="路径-6" fill="url(#linearGradient-2)"></path>
            <path d="M18.0406452,10.3651291 L18.0406452,28.5571951 C18.0085595,29.3627725 18.1762698,30.1523475 18.5437761,30.9259202 C18.9112825,31.6994929 19.4072924,32.3069983 20.031806,32.7484364 L33.2188055,40.3637403 C33.6643934,40.5974679 34.1394297,40.7882776 34.6439146,40.9361693 C35.1483994,41.084061 35.6361548,41.1722123 36.1071807,41.2006232 L36.1071807,20.6209627 L18.0406452,10.3651291 Z" id="路径-6备份" fill="url(#linearGradient-3)" transform="translate(27.071981, 25.782876) scale(-1, 1) translate(-27.071981, -25.782876) "></path>
        </g>
    </g>
</svg>