<?xml version="1.0" encoding="UTF-8"?>
<svg width="48px" height="48px" viewBox="0 0 48 48" version="1.1" xmlns="http://www.w3.org/2000/svg" xmlns:xlink="http://www.w3.org/1999/xlink">
    <title>icon/未选/工作台</title>
    <g id="icon/未选/工作台" stroke="none" stroke-width="1" fill="none" fill-rule="evenodd">
        <g id="编组">
            <rect id="矩形" fill="#D8D8D8" opacity="0" x="0" y="0" width="48" height="48"></rect>
            <g id="box" transform="translate(7.000000, 4.000000)" stroke="#C9CCD4" stroke-linecap="round" stroke-linejoin="round" stroke-width="3">
                <path d="M34.2857143,26.6666667 L34.2857143,11.4285714 C34.2843197,10.0689555 33.5584154,8.81314096 32.3809524,8.13333333 L19.047619,0.514285714 C17.8689483,-0.166220171 16.416766,-0.166220171 15.2380952,0.514285714 L1.9047619,8.13333333 C0.727298896,8.81314096 0.00139456903,10.0689555 0,11.4285714 L0,26.6666667 C0.00139456903,28.0262826 0.727298896,29.2820971 1.9047619,29.9619048 L15.2380952,37.5809524 C16.416766,38.2614583 17.8689483,38.2614583 19.047619,37.5809524 L32.3809524,29.9619048 C33.5584154,29.2820971 34.2843197,28.0262826 34.2857143,26.6666667 Z" id="路径"></path>
                <polyline id="路径" points="0.514285714 9.44761905 17.1428571 19.0666667 33.7714286 9.44761905"></polyline>
                <line x1="17.1428571" y1="38.247619" x2="17.1428571" y2="19.047619" id="路径"></line>
            </g>
        </g>
    </g>
</svg>