<?xml version="1.0" encoding="UTF-8"?>
<svg width="64px" height="64px" viewBox="0 0 64 64" version="1.1" xmlns="http://www.w3.org/2000/svg" xmlns:xlink="http://www.w3.org/1999/xlink">
    <title>账户安全</title>
    <g id="页面-1" stroke="none" stroke-width="1" fill="none" fill-rule="evenodd">
        <g id="4-我的" transform="translate(-48.000000, -941.000000)">
            <g id="编组-7" transform="translate(24.000000, 463.000000)">
                <g id="编组-4" transform="translate(0.000000, 20.000000)">
                    <g id="编组-3备份-3" transform="translate(0.000000, 420.000000)">
                        <g id="账户安全" transform="translate(24.000000, 38.000000)">
                            <circle id="椭圆形" fill="#E7ECF5" cx="32" cy="32" r="32"></circle>
                            <g id="编组" transform="translate(19.000000, 17.000000)" fill-rule="nonzero">
                                <path d="M25.5441345,4.1875 C25.166635,3.875 24.7262189,3.6875 24.2228862,3.6875 L24.097053,3.6875 L23.2791374,3.6875 C22.4612217,3.6875 20.888307,3.625 19.3783089,3.25 C17.4278947,2.8125 15.1628976,0.6875 14.5337317,0.25 C14.1562322,0.125 13.7787327,0 13.4012331,0 C13.0237336,0 12.6462341,0.125 12.3316511,0.3125 C12.2687346,0.375 9.87790423,2.75 7.61290709,3.3125 C6.10290899,3.6875 4.46707771,3.75 3.64916207,3.75 L2.70541326,3.75 C2.20208056,3.6875 1.69874786,3.875 1.32124834,4.1875 C0.943748812,4.5625 0,5.5625 0,6.0625 L0,10.125 C0,27.5 12.5204009,29.875 13.0237336,30 L13.7158161,30 C14.2191488,29.9375 25.9845506,28.375 25.9845506,11 L25.9845506,6.1875 C26.0474672,5.625 25.921634,4.5625 25.5441345,4.1875 Z" id="路径" fill="#6998D9"></path>
                                <path d="M20.6322846,11.0625 L12.0655197,19.625 C11.5652706,20.125 10.8148971,20.125 10.3771791,19.625 L6.37518678,15.625 C5.87493774,15.125 5.87493774,14.375 6.37518678,13.9375 C6.87543583,13.4375 7.6258094,13.4375 8.06352731,13.9375 L11.1900838,17.0625 L18.8814129,9.375 C19.381662,8.875 20.1320355,8.875 20.5697534,9.375 C21.1325336,9.8125 21.1325336,10.625 20.6322846,11.0625 Z" id="路径" fill="#FFFFFF"></path>
                            </g>
                        </g>
                    </g>
                </g>
            </g>
        </g>
    </g>
</svg>