<?xml version="1.0" encoding="UTF-8"?>
<svg width="36px" height="36px" viewBox="0 0 36 36" version="1.1" xmlns="http://www.w3.org/2000/svg" xmlns:xlink="http://www.w3.org/1999/xlink">
    <title>考勤得分</title>
    <g id="页面-1" stroke="none" stroke-width="1" fill="none" fill-rule="evenodd">
        <g id="4-我的-我的任务-自评上报-详情" transform="translate(-48.000000, -2828.000000)">
            <g id="大组件/评分卡片备份-3" transform="translate(24.000000, 2790.000000)">
                <g id="编组-2" transform="translate(24.000000, 32.000000)">
                    <g id="考勤得分" transform="translate(0.000000, 6.000000)">
                        <rect id="矩形" x="0" y="0" width="36" height="36"></rect>
                        <g id="编组" transform="translate(2.500000, 2.500000)" fill="#F8B61F" fill-rule="nonzero">
                            <path d="M30.0117187,10.5117188 L30.0117187,27.0117188 C30.0117187,28.6617187 28.6617188,30.0117188 27.0117187,30.0117188 L3.01171874,30.0117188 C1.36171877,30.0117188 0.0117187383,28.6617188 0.0117187383,27.0117188 L0.0117187383,10.5117188 L30.0117187,10.5117188 Z M21.7617187,15.7617187 C21.3117188,15.3117187 20.7117187,15.3117187 20.2617187,15.7617187 L13.5117187,22.5117187 L9.76171876,18.7617188 C9.31171876,18.3117188 8.71171875,18.3117188 8.26171875,18.7617188 C7.81171875,19.2117188 7.81171875,19.8117188 8.26171875,20.2617187 L12.4617188,24.4617187 C13.0617188,25.0617188 13.9617188,25.0617188 14.5617187,24.4617187 L21.7617187,17.2617188 C22.2117187,16.8117188 22.2117187,16.2117187 21.7617187,15.7617187 Z M4.51171874,3.01171876 C4.51171874,4.66171875 5.86171874,6.01171876 7.51171874,6.01171876 C9.16171879,6.01171876 10.3617188,4.81171876 10.5117187,3.16171874 L10.5117187,3.01171876 L19.5117187,3.01171876 C19.5117187,4.66171875 20.8617187,6.01171876 22.5117187,6.01171876 C24.1617187,6.01171876 25.3617188,4.81171876 25.5117187,3.16171874 L25.5117187,3.01171876 L27.0117187,3.01171876 C28.6617187,3.01171876 30.0117187,4.36171876 30.0117187,6.01171876 L30.0117187,9.01171876 L0.0117187383,9.01171876 L0.0117187383,6.01171876 C0.0117187383,4.36171876 1.36171874,3.01171876 3.01171874,3.01171876 L4.51171874,3.01171876 Z M7.51171875,0.0117187383 C8.41171876,0.0117187383 9.01171875,0.61171875 9.01171875,1.51171874 L9.01171875,3.01171874 C9.01171875,3.91171876 8.41171873,4.51171874 7.51171875,4.51171874 C6.6117188,4.51171874 6.01171875,3.91171873 6.01171875,3.01171874 L6.01171875,1.51171874 C6.01171875,0.761718762 6.61171876,0.0117187383 7.51171875,0.0117187383 Z M22.5117188,0.0117187383 C23.4117187,0.0117187383 24.0117188,0.61171875 24.0117188,1.51171874 L24.0117188,3.01171874 C24.0117188,3.91171876 23.4117187,4.51171874 22.5117188,4.51171874 C21.6117187,4.51171874 21.0117188,3.91171873 21.0117188,3.01171874 L21.0117188,1.51171874 C21.0117188,0.761718762 21.6117188,0.0117187383 22.5117188,0.0117187383 Z" id="形状"></path>
                        </g>
                    </g>
                </g>
            </g>
        </g>
    </g>
</svg>