<?xml version="1.0" encoding="UTF-8"?>
<svg width="64px" height="64px" viewBox="0 0 64 64" version="1.1" xmlns="http://www.w3.org/2000/svg" xmlns:xlink="http://www.w3.org/1999/xlink">
    <title>我的设备</title>
    <g id="页面-1" stroke="none" stroke-width="1" fill="none" fill-rule="evenodd">
        <g id="4-我的" transform="translate(-48.000000, -801.000000)">
            <g id="编组-7" transform="translate(24.000000, 463.000000)">
                <g id="编组-4" transform="translate(0.000000, 20.000000)">
                    <g id="编组-3备份-2" transform="translate(0.000000, 280.000000)">
                        <g id="我的设备" transform="translate(24.000000, 38.000000)">
                            <circle id="椭圆形" fill="#E7ECF5" cx="32" cy="32" r="32"></circle>
                            <g id="编组" transform="translate(18.000000, 18.000000)" fill="#6998D9" fill-rule="nonzero">
                                <path d="M0,25.6666667 C0,26.9558489 1.04415111,28 2.33333333,28 L25.6666667,28 C26.9558178,28 28,26.9558489 28,25.6666667 L28,19.25 C28,17.9608489 26.9558178,16.9166667 25.6666667,16.9166667 L15.575,16.9166667 L15.575,10.7916667 C15.575,9.98666667 14.9216667,9.33333333 14.1166667,9.33333333 C13.3116667,9.33333333 12.6583333,9.98666667 12.6583333,10.7916667 L12.6583333,16.9166667 L2.33333333,16.9166667 C1.04415111,16.9166667 0,17.9608489 0,19.25 L0,25.6666667 Z M2.91666667,22.4583333 C2.91666667,21.6533333 3.57,21 4.375,21 C5.18,21 5.83333333,21.6533333 5.83333333,22.4583333 C5.83333333,23.2633333 5.18,23.9166667 4.375,23.9166667 C3.57,23.9166667 2.91666667,23.2633333 2.91666667,22.4583333 Z M8.16666667,22.4583333 C8.16666667,21.6533333 8.82,21 9.625,21 C10.43,21 11.0833333,21.6533333 11.0833333,22.4583333 C11.0833333,23.2633333 10.43,23.9166667 9.625,23.9166667 C8.82,23.9166667 8.16666667,23.2633333 8.16666667,22.4583333 Z M14.1166667,4.66666667 C10.7333333,4.66666667 7.99166667,7.40833333 7.99166667,10.7916667 C7.99166667,11.5966667 8.645,12.25 9.45,12.25 C10.255,12.25 10.9083333,11.5966667 10.9083333,10.7916667 C10.9083333,9.01833333 12.3433333,7.58333333 14.1166667,7.58333333 C15.89,7.58333333 17.325,9.01833333 17.325,10.7916667 C17.325,11.5966667 17.9783333,12.25 18.7833333,12.25 C19.5883333,12.25 20.2416667,11.5966667 20.2416667,10.7916667 C20.2416667,7.40833333 17.5,4.66666667 14.1166667,4.66666667 Z M14.1166667,0 C8.155,0 3.325,4.83 3.325,10.7916667 C3.325,11.5966667 3.97833333,12.25 4.78333333,12.25 C5.58833333,12.25 6.24166667,11.5966667 6.24166667,10.7916667 C6.24166667,6.44 9.765,2.91666667 14.1166667,2.91666667 C18.4683333,2.91666667 21.9916667,6.44 21.9916667,10.7916667 C21.9916667,11.5966667 22.645,12.25 23.45,12.25 C24.255,12.25 24.9083333,11.5966667 24.9083333,10.7916667 C24.9083333,4.83 20.0783333,0 14.1166667,0 Z" id="形状"></path>
                            </g>
                        </g>
                    </g>
                </g>
            </g>
        </g>
    </g>
</svg>