<?xml version="1.0" encoding="UTF-8"?>
<svg width="64px" height="64px" viewBox="0 0 64 64" version="1.1" xmlns="http://www.w3.org/2000/svg" xmlns:xlink="http://www.w3.org/1999/xlink">
    <title>我的假期</title>
    <g id="页面-1" stroke="none" stroke-width="1" fill="none" fill-rule="evenodd">
        <g id="4-我的" transform="translate(-48.000000, -661.000000)">
            <g id="编组-7" transform="translate(24.000000, 463.000000)">
                <g id="编组-4" transform="translate(0.000000, 20.000000)">
                    <g id="编组-3备份" transform="translate(0.000000, 140.000000)">
                        <g id="我的假期" transform="translate(24.000000, 38.000000)">
                            <circle id="椭圆形" fill="#E7ECF5" cx="32" cy="32" r="32"></circle>
                            <g id="编组" transform="translate(19.000000, 19.000000)" fill="#6998D9" fill-rule="nonzero">
                                <path d="M0,25.6389918 C0,26.2394366 0.730109204,27 1.37909516,27 L24.6209048,27 C25.24961,27 26,26.2394366 26,25.6389918 L26,8.10600445 L0,8.10600445 L0,25.6389918 L0,25.6389918 Z M14.8861154,13.0696812 L21.599064,13.0696812 L21.599064,14.9710897 L14.8861154,14.9710897 L14.8861154,13.0696812 Z M14.8861154,18.2935508 L21.599064,18.2935508 L21.599064,20.1949592 L14.8861154,20.1949592 L14.8861154,18.2935508 Z M4.38065523,13.0696812 L11.0936037,13.0696812 L11.0936037,14.9710897 L4.38065523,14.9710897 L4.38065523,13.0696812 Z M4.38065523,18.2935508 L11.0936037,18.2935508 L11.0936037,20.1949592 L4.38065523,20.1949592 L4.38065523,18.2935508 Z M24.6209048,2.70200148 L20.524181,2.70200148 L20.524181,0 L17.7862715,0 L17.7862715,2.70200148 L8.21372855,2.70200148 L8.21372855,0 L5.47581903,0 L5.47581903,2.70200148 L1.37909516,2.70200148 C0.750390016,2.70200148 0,3.46256486 0,4.06300964 L0,6.76501112 L25.9797192,6.76501112 L25.9797192,4.32320237 C25.9797192,3.7227576 25.6146646,2.70200148 24.6209048,2.70200148 Z" id="形状"></path>
                            </g>
                        </g>
                    </g>
                </g>
            </g>
        </g>
    </g>
</svg>