<?xml version="1.0" encoding="UTF-8"?>
<svg width="36px" height="36px" viewBox="0 0 36 36" version="1.1" xmlns="http://www.w3.org/2000/svg" xmlns:xlink="http://www.w3.org/1999/xlink">
    <title>价值观</title>
    <g id="页面-1" stroke="none" stroke-width="1" fill="none" fill-rule="evenodd">
        <g id="4-我的-我的任务-自评上报-详情" transform="translate(-48.000000, -342.000000)">
            <g id="大组件/评分卡片" transform="translate(24.000000, 304.000000)">
                <g id="编组-2" transform="translate(24.000000, 32.000000)">
                    <g id="价值观" transform="translate(0.000000, 6.000000)">
                        <rect id="矩形" x="0" y="0" width="36" height="36"></rect>
                        <path d="M11.9225218,12.7335057 L17.879787,33.2841152 L23.8370521,12.7335057 L11.9225218,12.7335057 Z M13.1804564,2 L6.36153864,2 L1,10.5735083 L9.73775676,10.5735083 L13.1804564,2 Z M23.7053927,10.5735083 L20.1962115,2 L15.4968809,2 L11.9890033,10.6386863 L23.7053927,10.6386863 L23.7053927,10.5735083 L23.7053927,10.5735083 Z M1.4627635,12.7335057 L7.35485069,20.1299002 L15.0341174,29.7501664 L9.60479373,12.6683278 L1.4627635,12.6683278 L1.4627635,12.7335057 Z M22.5804212,2 L26.0882987,10.6386863 L34.892537,10.6386863 L29.4645168,2 L22.5804212,2 Z M20.8584196,29.6198105 L31.1187333,16.8566632 L34.42847,12.7335057 L26.1547803,12.7335057 L20.8584196,29.6198105 L20.8584196,29.6198105 Z" id="形状" fill="#F8B61F" fill-rule="nonzero"></path>
                    </g>
                </g>
            </g>
        </g>
    </g>
</svg>