<?xml version="1.0" encoding="UTF-8"?>
<svg width="64px" height="64px" viewBox="0 0 64 64" version="1.1" xmlns="http://www.w3.org/2000/svg" xmlns:xlink="http://www.w3.org/1999/xlink">
    <title>我的警犬</title>
    <g id="页面-1" stroke="none" stroke-width="1" fill="none" fill-rule="evenodd">
        <g id="4-我的" transform="translate(-48.000000, -521.000000)">
            <g id="编组-7" transform="translate(24.000000, 463.000000)">
                <g id="编组-4" transform="translate(0.000000, 20.000000)">
                    <g id="编组-3">
                        <g id="我的警犬" transform="translate(24.000000, 38.000000)">
                            <circle id="椭圆形" fill="#E7ECF5" cx="32" cy="32" r="32"></circle>
                            <g id="编组" transform="translate(32.000000, 32.000000) scale(-1, 1) translate(-32.000000, -32.000000) translate(16.000000, 16.000000)" fill="#6998D9" fill-rule="nonzero">
                                <path d="M17.926388,31.6381119 C17.7230328,31.9369129 17.1634143,32.0795492 16.6764898,31.9548528 L5.58971394,29.1288892 C5.10278943,29.0038986 4.87029396,28.6606891 5.07364915,28.3618881 C5.27731769,28.0630871 5.83662288,27.9204508 6.32354739,28.0451472 L17.4078166,30.8725813 C17.8972478,30.9943369 18.1297433,31.3393109 17.926388,31.6381119 L17.926388,31.6381119 Z" id="路径"></path>
                                <path d="M16.3038368,31.6117212 C16.5096261,31.9323123 17.0759428,32.0853504 17.5686954,31.9515604 L28.4032287,29.0217494 C28.8959813,28.8876438 29.1312596,28.5194059 28.9254704,28.1988148 C28.7193641,27.8782238 28.1533644,27.7251857 27.6606118,27.8589756 L16.8260785,30.7887867 C16.3333259,30.9228922 16.0980476,31.2911302 16.3038368,31.6117212 Z M18.0811074,28.903421 C17.8753182,29.224012 17.3090014,29.3770501 16.8162488,29.2432601 L5.59677238,26.2112133 C5.10401974,26.0771078 4.86874147,25.7088698 5.07453067,25.3882788 C5.28063698,25.0676877 5.84663664,24.9146496 6.33938928,25.0484396 L17.5563291,28.0820641 C18.0516184,28.2130142 18.2868967,28.5831454 18.0811074,28.903421 Z" id="形状"></path>
                                <path d="M16.3019749,29.5783923 C16.5077763,29.9265021 17.0741265,30.0926766 17.5669082,29.9474024 L28.4020811,26.7661033 C28.8948628,26.6204865 29.130155,26.2206398 28.9243536,25.87253 C28.7182352,25.5244202 28.1522021,25.3582457 27.6594204,25.5035198 L16.8242475,28.684819 C16.3314658,28.8304358 16.0961736,29.2302825 16.3019749,29.5783923 Z M28.9414773,22.7515334 C28.853322,22.5747374 28.6643272,22.4243238 28.3998614,22.3462047 L17.1822594,19.052181 C17.0575855,19.0160154 16.9289106,18.9984923 16.7998304,19.0001015 C16.6707501,18.9984923 16.5420752,19.0160154 16.4174013,19.052181 L5.60188896,22.2266276 C5.31522573,22.3098861 5.11640067,22.4794869 5.04061246,22.6751274 C5.03807563,22.6785536 5.03807563,22.6836931 5.03553879,22.6871193 L5.03553879,22.6888325 C4.9055256,23.016042 5.14113488,23.3692913 5.59681527,23.5029161 L16.8144172,26.7969398 C17.0603337,26.8673482 17.3190496,26.8667574 17.5646885,26.7952267 L17.5672253,26.7952267 L28.4020811,23.6139275 C28.8824957,23.4737928 29.118105,23.0927906 28.9414773,22.7515334 Z" id="形状"></path>
                                <path d="M2.66814176,2.84917008 C2.66814176,2.84917008 2.78575172,1.53182819 4.54287009,1.55481068 C4.54287009,1.55481068 3.87172629,-0.0772632302 4.74101731,0.00285616664 C4.74101731,0.00285616664 5.50292531,-0.057791984 7.24534243,2.31227427 C7.24534243,2.31227427 11.8928534,6.70320106 13.2731725,6.49731651 C13.2731725,6.49731651 21.0389453,6.4918901 22.3026132,6.66872736 C22.3026132,6.66872736 25.410009,6.51455334 26.8957935,10.1971734 C26.8957935,10.1971734 28.1888639,13.7099787 31.1179272,15.2705516 C31.1179272,15.2705516 32.2070977,15.9877959 31.9648467,17.1758614 C31.9648467,17.1758614 31.5950785,17.7516998 28.5899522,16.6590753 C28.5899522,16.6590753 26.653223,15.2083075 25.9919866,14.1610095 C25.9919866,14.1610095 26.2959188,15.9976911 28.6644172,17.9282178 C28.6644172,17.9282178 29.4653155,19.8798118 29.1233518,21.6322244 C29.1233518,21.6322244 29.2879418,22.7685794 28.9437409,23 L26.5704486,23 C26.5704486,23 26.106081,21.9000339 27.6273403,21.6845733 C27.6273403,21.6845733 27.5854737,19.1274554 25.8222831,18.2857228 C25.8222831,18.2857228 26.1380402,21.3120659 25.243821,22.9996808 L22.8705287,22.9996808 C22.8705287,22.9996808 22.5525344,21.6692517 24.2866421,21.5687034 C24.2866421,21.5687034 24.289838,19.9305647 23.7426961,19.3119535 C23.7426961,19.3119535 20.3981629,16.2919943 19.9587234,14.4342454 C19.9587234,14.4342454 15.6991975,15.4908002 13.9957707,14.9918893 C13.9957707,14.9918893 13.7420144,17.4937855 14.1248859,20.6688762 C14.1248859,20.6688762 14.5237371,22.5381164 14.2252379,22.9993616 L11.7324181,22.9993616 C11.7324181,22.9993616 11.5703848,21.7433063 12.8394858,21.6628677 C12.8394858,21.6628677 11.7336965,18.0029108 11.7225107,16.8225061 C11.7225107,16.8225061 11.3946091,20.5450263 9.82796769,22.9990424 L7.4546754,22.9990424 C7.4546754,22.9990424 7.24054858,21.6804237 8.88069614,21.6734013 C8.88069614,21.6734013 9.67488297,19.8434229 9.31310452,17.0721212 C9.31310452,17.0721212 8.03090028,10.617561 7.16544439,9.71964899 C7.16544439,9.71964899 3.80908625,5.98404156 3.56555691,5.98404153 C3.56555691,5.98404153 0.61540053,6.53370537 0.0257527696,4.13203826 C0.0257527696,4.13203826 -0.264437034,3.29190164 1.10341794,3.0850595 L2.66814176,2.84917008 Z" id="路径"></path>
                            </g>
                        </g>
                    </g>
                </g>
            </g>
        </g>
    </g>
</svg>