<?xml version="1.0" encoding="UTF-8"?>
<svg width="44px" height="44px" viewBox="0 0 44 44" version="1.1" xmlns="http://www.w3.org/2000/svg" xmlns:xlink="http://www.w3.org/1999/xlink">
    <title>点名</title>
    <g id="页面-1" stroke="none" stroke-width="1" fill="none" fill-rule="evenodd">
        <g id="1-消息" transform="translate(-474.000000, -156.000000)">
            <g id="添加任务" transform="translate(434.000000, 116.000000)">
                <g id="编组-3" transform="translate(0.000000, 12.000000)">
                    <g id="点名" transform="translate(40.000000, 28.000000)">
                        <rect id="矩形" x="0" y="0" width="44" height="44"></rect>
                        <g id="编组" transform="translate(8.000000, 5.000000)" fill="#ADB0BC" fill-rule="nonzero">
                            <path d="M23.4140625,34.2219938 C20.4701516,34.1682433 18.1117567,31.7663953 18.1117567,28.8219937 C18.1117567,25.8775922 20.4701516,23.4757442 23.4140625,23.4219937 C26.3964001,23.4219937 28.8140625,25.8396561 28.8140625,28.8219937 C28.8140625,31.8043314 26.3964001,34.2219938 23.4140625,34.2219938 L23.4140625,34.2219938 Z M27.1544625,26.4621937 C26.9858048,26.293249 26.7568835,26.1983127 26.5181625,26.1983127 C26.2794415,26.1983127 26.0505202,26.293249 25.8818625,26.4621937 L22.5905625,29.7534937 L20.9453625,28.1064937 C20.5934467,27.755075 20.0232813,27.755478 19.6718625,28.1073938 C19.3204438,28.4593096 19.3208467,29.029475 19.6727625,29.3808937 L21.9542625,31.6623937 C22.3057124,32.0137375 22.8754126,32.0137375 23.2268625,31.6623937 L27.1544625,27.7347937 C27.3238508,27.5663721 27.4190939,27.3373624 27.4190939,27.0984937 C27.4190939,26.8596251 27.3238508,26.6306154 27.1544625,26.4621937 Z M16.2140625,28.8210937 C16.2140625,30.5238937 16.8098625,32.0889938 17.7989625,33.3210937 L1.8140625,33.3210937 C1.33651684,33.3210937 0.878543355,33.131328 0.54095199,32.7935678 C0.203360626,32.4558076 0.0140622747,31.9977393 0.0140622747,31.5201937 L0.0140622747,5.42109375 C0.0140622747,4.4269812 0.81994995,3.62109375 1.8140625,3.62109375 L7.5461625,3.62109375 C8.2895625,1.52679375 10.2659625,0.02109375 12.6140625,0.02109375 C14.9621625,0.02109375 16.9385625,1.52769375 17.6828625,3.62109375 L23.4140625,3.62109375 C24.408175,3.62109375 25.2140625,4.4269812 25.2140625,5.42109375 L25.2140625,21.8568937 C24.6264068,21.7027027 24.0216054,21.6234738 23.4140625,21.6210937 C19.4376123,21.6210937 16.2140625,24.8446436 16.2140625,28.8210938 L16.2140625,28.8210937 Z M6.7640625,27.9210937 L13.0640625,27.9210937 C13.8098954,27.9210937 14.4145125,27.3164767 14.4145125,26.5706437 C14.4145125,25.8248108 13.8098954,25.2201937 13.0640625,25.2201937 L6.7640625,25.2201937 C6.01822956,25.2201937 5.4136125,25.8248108 5.4136125,26.5706437 C5.4136125,27.3164767 6.01822956,27.9210937 6.7640625,27.9210937 Z M6.7640625,20.7210937 L16.6640625,20.7210937 C17.1463711,20.7210937 17.5920426,20.4637852 17.8331968,20.0460938 C18.0743511,19.6284023 18.0743511,19.1137852 17.8331968,18.6960937 C17.5920426,18.2784023 17.1463711,18.0210937 16.6640625,18.0210937 L6.7640625,18.0210937 C6.01847809,18.0210937 5.4140625,18.6255093 5.4140625,19.3710937 C5.4140625,20.1166782 6.01847809,20.7210937 6.7640625,20.7210937 L6.7640625,20.7210937 Z M12.6140625,2.72109369 C11.6197014,2.72134228 10.813814,3.52763267 10.8140624,4.52199375 C10.814311,5.51635483 11.6206014,6.32224228 12.6149625,6.32199381 C13.2582013,6.32183298 13.8524928,5.97852059 14.1739729,5.42137904 C14.4954531,4.86423749 14.4952816,4.17790982 14.1735229,3.62092904 C13.8517643,3.06394825 13.2573013,2.72093298 12.6140625,2.72109369 Z M18.4640625,10.8210938 L6.7640625,10.8210938 C6.01872662,10.8210938 5.4145125,11.4253079 5.4145125,12.1706438 C5.4145125,12.9159796 6.01872662,13.5201941 6.7640625,13.5201941 L18.4640625,13.5201941 C18.8222607,13.5204325 19.1658697,13.3783062 19.4192385,13.1251062 C19.6726073,12.8719062 19.8149625,12.528392 19.8149625,12.1701938 C19.8149625,11.4258938 19.2092625,10.8210938 18.4640625,10.8210938 L18.4640625,10.8210938 Z" id="形状"></path>
                        </g>
                    </g>
                </g>
            </g>
        </g>
    </g>
</svg>