<?xml version="1.0" encoding="UTF-8"?>
<svg width="64px" height="64px" viewBox="0 0 64 64" version="1.1" xmlns="http://www.w3.org/2000/svg" xmlns:xlink="http://www.w3.org/1999/xlink">
    <title>请假管理</title>
    <g id="页面-1" stroke="none" stroke-width="1" fill="none" fill-rule="evenodd">
        <g id="4-我的" transform="translate(-48.000000, -1081.000000)">
            <g id="编组-7" transform="translate(24.000000, 463.000000)">
                <g id="编组-4" transform="translate(0.000000, 20.000000)">
                    <g id="编组-3备份-4" transform="translate(0.000000, 560.000000)">
                        <g id="请假管理" transform="translate(24.000000, 38.000000)">
                            <circle id="椭圆形" fill="#EBEEF5" cx="32" cy="32" r="32"></circle>
                            <path d="M42.6029412,21.4906118 L40.8343294,21.4906118 L40.8343294,20.4453882 C40.8343294,19.0453882 39.5924471,18 38.1812471,18 C36.7698824,18 35.528,19.0453882 35.528,20.4453882 L35.528,21.4906118 L28.472,21.4906118 L28.472,20.4453882 C28.472,19.0453882 27.2301176,18 25.8187529,18 C24.4075529,18 23.1656706,19.0453882 23.1656706,20.4453882 L23.1656706,21.4906118 L21.4158353,21.4906118 C20.3620471,21.4906118 19.6470588,22.3866118 19.6470588,23.2453882 L19.6470588,44.2453882 C19.6470588,45.2906118 20.5503059,46 21.4158353,46 L42.5841647,46 C43.6379529,46 44.3529412,45.104 44.3529412,44.2453882 L44.3529412,23.2266118 C44.3529412,22.1813882 43.4874118,21.4906118 42.6029412,21.4906118 Z M24.9532235,20.4266118 C24.9532235,20.072 25.3108,19.7173882 25.8564706,19.7173882 C26.3833647,19.7173882 26.7597176,20.072 26.7597176,20.4266118 L26.7597176,22.536 C26.7597176,22.8906118 26.4021412,23.2453882 25.8564706,23.2453882 C25.3295765,23.2453882 24.9532235,22.8906118 24.9532235,22.536 L24.9532235,20.4266118 Z M38.1812471,43.0133882 L25.8376941,43.0133882 C25.3108,43.0133882 24.9344471,42.4906118 24.9344471,42.1173882 C24.9344471,41.5946118 25.2920235,41.2213882 25.8376941,41.2213882 L38.1812471,41.2213882 C38.7079765,41.2213882 39.0843294,41.576 39.0843294,42.1173882 C39.0655529,42.4906118 38.7079765,43.0133882 38.1812471,43.0133882 Z M24.9532235,38.104 C24.9532235,35.1173882 26.722,32.672 29.3750824,31.608 C28.8481882,30.8986118 28.472,30.208 28.472,29.312 C28.472,27.3893882 30.0712941,25.8026118 32.0093882,25.8026118 C33.9474824,25.8026118 35.5469412,27.3893882 35.5469412,29.312 C35.5469412,30.208 35.1893647,30.8986118 34.6436941,31.608 C37.2967765,32.6533882 39.0655529,35.1173882 39.0655529,38.104 L24.9532235,38.104 Z M39.0655529,22.536 C39.0655529,22.8906118 38.7079765,23.2453882 38.1623059,23.2453882 C37.6355765,23.2453882 37.2592235,22.8906118 37.2592235,22.536 L37.2592235,20.4266118 C37.2592235,20.072 37.6166353,19.7173882 38.1623059,19.7173882 C38.6892,19.7173882 39.0655529,20.072 39.0655529,20.4266118 L39.0655529,22.536 Z" id="形状" fill="#5F93E0" fill-rule="nonzero"></path>
                        </g>
                    </g>
                </g>
            </g>
        </g>
    </g>
</svg>