<?xml version="1.0" encoding="UTF-8"?>
<svg width="64px" height="64px" viewBox="0 0 64 64" version="1.1" xmlns="http://www.w3.org/2000/svg" xmlns:xlink="http://www.w3.org/1999/xlink">
    <title>网格化搜捕</title>
    <g id="页面-1" stroke="none" stroke-width="1" fill="none" fill-rule="evenodd">
        <g id="4-我的" transform="translate(-48.000000, -521.000000)">
            <g id="编组-7" transform="translate(24.000000, 463.000000)">
                <g id="编组-4" transform="translate(0.000000, 20.000000)">
                    <g id="编组-3">
                        <g id="网格化搜捕" transform="translate(24.000000, 38.000000)">
                            <circle id="椭圆形" fill="#EBEEF5" cx="32" cy="32" r="32"></circle>
                            <g id="编组" transform="translate(19.400000, 19.700000)" fill="#5F93E0" fill-rule="nonzero">
                                <path d="M19.0033223,9.22360248 L23.5714286,12.5440994 L23.5714286,5.16521739 L19.0033223,9.22360248 Z M1.46179402,0 L0,0 L0,22.5055901 L14.9833887,9.59254658 L1.46179402,0 Z M23.5714286,1.8447205 L23.5714286,0 L5.66445183,0 L16.8106312,7.74782609 L23.5714286,1.8447205 Z M0.365448505,25.4571429 L11.5116279,25.4571429 L7.6744186,19.1850932 L0.365448505,25.4571429 Z M12.6079734,19.9229814 C12.6079734,16.0490683 15.7142857,12.7285714 19.551495,12.7285714 L16.9933555,10.8838509 L9.50166113,17.5248447 L14.4352159,25.4571429 L15.166113,25.4571429 C13.5215947,24.1658385 12.6079734,22.136646 12.6079734,19.9229814 Z" id="形状"></path>
                                <path d="M24.8678571,22.6285714 L16.6178571,22.6285714 C16.225,22.6285714 16.0285714,22.4571429 16.0285714,22.1142857 C16.0285714,21.7714286 16.225,21.6 16.6178571,21.6 L24.8678571,21.6 C25.2607143,21.6 25.4571429,21.7714286 25.4571429,22.1142857 C25.4571429,22.4571429 25.2607143,22.6285714 24.8678571,22.6285714 L24.8678571,22.6285714 Z M24.8678571,18 L16.6178571,18 C16.225,18 16.0285714,17.8285714 16.0285714,17.4857143 C16.0285714,17.1428571 16.225,16.9714286 16.6178571,16.9714286 L24.8678571,16.9714286 C25.2607143,16.9714286 25.4571429,17.1428571 25.4571429,17.4857143 C25.4571429,17.6571429 25.2607143,18 24.8678571,18 L24.8678571,18 Z" id="形状"></path>
                                <path d="M18.3991837,23.0459016 C18.0759184,23.0459016 17.9142857,22.8604215 17.9142857,22.4894614 L17.9142857,17.6669789 C17.9142857,17.2960187 18.0759184,17.1105386 18.3991837,17.1105386 C18.722449,17.1105386 18.8840816,17.2960187 18.8840816,17.6669789 L18.8840816,22.4894614 C18.8840816,22.8604215 18.5608163,23.0459016 18.3991837,23.0459016 Z M23.0865306,23.0459016 C22.7632653,23.0459016 22.6016327,22.8604215 22.6016327,22.4894614 L22.6016327,17.6669789 C22.6016327,17.2960187 22.7632653,17.1105386 23.0865306,17.1105386 C23.4097959,17.1105386 23.5714286,17.2960187 23.5714286,17.6669789 L23.5714286,22.4894614 C23.5714286,22.8604215 23.2481633,23.0459016 23.0865306,23.0459016 Z M20.8236735,25.4571429 C20.5004082,25.4571429 20.3387755,25.2716628 20.3387755,24.9007026 L20.3387755,14.6992974 C20.3387755,14.3283372 20.5004082,14.1428571 20.8236735,14.1428571 C21.1469388,14.1428571 21.3085714,14.3283372 21.3085714,14.6992974 L21.3085714,24.9007026 C21.3085714,25.2716628 20.9853061,25.4571429 20.8236735,25.4571429 Z" id="形状"></path>
                                <path d="M20.8358149,26.4 C19.9062374,26.4 19.1625755,26.2114286 18.232998,25.8342857 C17.489336,25.4571429 16.745674,25.08 16.1879276,24.3257143 C15.6301811,23.76 15.0724346,23.0057143 14.7006036,22.2514286 C14.3287726,21.4971429 14.1428571,20.5542857 14.1428571,19.6114286 C14.1428571,18.6685714 14.3287726,17.9142857 14.7006036,16.9714286 C15.0724346,16.4057143 15.6301811,15.84 16.1879276,15.0857143 C16.745674,14.52 17.489336,14.1428571 18.232998,13.7657143 C18.97666,13.3885714 19.9062374,13.2 20.8358149,13.2 C21.7653924,13.2 22.5090543,13.3885714 23.4386318,13.7657143 C23.9963783,14.1428571 24.7400402,14.52 25.2977867,15.0857143 C25.8555332,15.6514286 26.4132797,16.4057143 26.7851107,17.16 C27.1569416,17.9142857 27.3428571,18.8571429 27.3428571,19.8 C27.3428571,20.7428571 27.1569416,21.4971429 26.7851107,22.44 C26.4132797,23.1942857 26.0414487,23.9485714 25.2977867,24.5142857 C24.7400402,25.08 23.9963783,25.6457143 23.2527163,26.0228571 C22.5090543,26.2114286 21.5794769,26.4 20.8358149,26.4 L20.8358149,26.4 Z M20.8358149,14.3314286 C17.861167,14.3314286 15.4442656,16.7828571 15.4442656,19.8 C15.4442656,22.8171429 17.861167,25.2685714 20.8358149,25.2685714 C23.8104628,25.2685714 26.2273642,22.8171429 26.2273642,19.8 C26.2273642,16.7828571 23.8104628,14.3314286 20.8358149,14.3314286 Z" id="形状"></path>
                                <path d="M25.8435597,20.7428571 L15.6421546,20.7428571 C15.2711944,20.7428571 15.0857143,20.5857143 15.0857143,20.2714286 C15.0857143,19.9571429 15.2711944,19.8 15.6421546,19.8 L25.8435597,19.8 C26.2145199,19.8 26.4,19.9571429 26.4,20.2714286 C26.4,20.4285714 26.2145199,20.7428571 25.8435597,20.7428571 Z" id="路径"></path>
                            </g>
                        </g>
                    </g>
                </g>
            </g>
        </g>
    </g>
</svg>