<?xml version="1.0" encoding="UTF-8"?>
<svg width="44px" height="44px" viewBox="0 0 44 44" version="1.1" xmlns="http://www.w3.org/2000/svg" xmlns:xlink="http://www.w3.org/1999/xlink">
    <title>网格化搜捕</title>
    <g id="页面-1" stroke="none" stroke-width="1" fill="none" fill-rule="evenodd">
        <g id="1-消息" transform="translate(-474.000000, -456.000000)">
            <g id="添加任务" transform="translate(434.000000, 116.000000)">
                <g id="编组-3备份-3" transform="translate(0.000000, 312.000000)">
                    <g id="网格化搜捕" transform="translate(40.000000, 28.000000)">
                        <rect id="矩形" x="0" y="0" width="44" height="44"></rect>
                        <g id="编组" transform="translate(4.000000, 8.000000)" fill="#ADB0BC" fill-rule="nonzero">
                            <path d="M22.8921688,20.287975 L33.9924372,21.7940673 L34.923152,25.671095 C34.923152,25.7470324 35,25.903126 35,25.9832822 C34.9978615,26.5357511 34.5513632,26.9863064 33.9924372,27 L17.5042693,27 L22.8921688,20.287975 Z M2.06635762,17.6639149 L21.73091,19.1067261 L16.3088558,26.9957812 L1.03317881,26.8987501 C0.704784965,26.9384502 0.386688379,26.7694569 0.23908269,26.4768755 C0,26.2912507 0,25.9453135 0,25.5909388 L2.06635762,17.6639149 Z M31.9943889,13.6645436 L33.8003172,20.3301624 L27.7506709,19.7184442 C29.0314711,18.0084458 30.2852322,16.273135 31.5119541,14.5125116 C31.5888021,14.1750119 31.8278848,14.0020433 31.9815809,13.6687624 L31.9943889,13.6645436 Z M25.6160039,1.24787937e-05 C27.4203663,0.00219501896 29.1491268,0.716357505 30.4181722,1.98383277 C31.6872177,3.25130803 32.3914369,4.96711508 32.3743596,6.7500188 C32.3743596,9.57657869 30.5300073,12.7870444 28.9588924,14.9596987 C28.0074783,16.2681061 26.9811646,17.5217116 25.884972,18.7143827 C25.8206215,18.8053243 25.7192304,18.8638967 25.6074652,18.874695 C25.4974729,18.8554221 25.3977805,18.7987036 25.3256892,18.7143827 C24.7664064,18.0604771 23.4856062,16.6471971 22.2517687,14.9596987 C20.6891925,12.7870444 18.8363015,9.57657865 18.8363015,6.7500188 C18.8191871,4.96345741 19.526325,3.24442886 20.7999989,1.9763362 C22.0736728,0.708243529 23.8079419,-0.00343664836 25.6160039,1.24787937e-05 L25.6160039,1.24787937e-05 Z M16.6504025,6.99470608 C17.2939026,8.83558294 18.0936909,10.6194288 19.0412296,12.3272011 C20.2351422,14.1758981 21.5321761,15.9575536 22.9263235,17.6639149 L2.51463769,16.4278223 L4.76457673,7.94814267 C4.84004831,7.54509327 5.18312789,7.24432667 5.59709686,7.21829961 L16.6504025,6.99470608 Z" id="形状"></path>
                        </g>
                    </g>
                </g>
            </g>
        </g>
    </g>
</svg>