<?xml version="1.0" encoding="UTF-8"?>
<svg width="44px" height="44px" viewBox="0 0 44 44" version="1.1" xmlns="http://www.w3.org/2000/svg" xmlns:xlink="http://www.w3.org/1999/xlink">
    <title>请假申请</title>
    <g id="页面-1" stroke="none" stroke-width="1" fill="none" fill-rule="evenodd">
        <g id="1-消息" transform="translate(-474.000000, -356.000000)">
            <g id="添加任务" transform="translate(434.000000, 116.000000)">
                <g id="编组-3备份-2" transform="translate(0.000000, 212.000000)">
                    <g id="请假申请" transform="translate(40.000000, 28.000000)">
                        <rect id="矩形" x="0" y="0" width="44" height="44"></rect>
                        <g id="编组" transform="translate(6.000000, 6.000000)" fill="#ADB0BC" fill-rule="nonzero">
                            <path d="M31.3687571,21.892408 C30.9491448,20.9198882 30.3762828,20.0815091 29.650171,19.3400093 C28.9277081,18.6171402 28.0884835,18.0433163 27.1179019,17.6297159 C26.1436716,17.2123894 25.118358,17 24.009122,17 C22.9035348,17 21.8563284,17.2123894 20.8820981,17.6297159 C19.9115165,18.0470424 19.0722919,18.6171402 18.349829,19.3400093 C17.627366,20.0628784 17.054504,20.9236143 16.6312429,21.892408 C16.2116306,22.8649278 16,23.8933395 16,25 C16,26.1066605 16.2079818,27.1313461 16.6312429,28.107592 C17.0508552,29.0801118 17.6237172,29.9184909 18.349829,30.6599907 C19.0722919,31.3828598 19.9115165,31.9566837 20.8820981,32.3702841 C21.8526796,32.7876106 22.9071836,33 24.009122,33 C25.1110604,33 26.1436716,32.7876106 27.1179019,32.3702841 C28.0884835,31.9529576 28.9277081,31.3828598 29.650171,30.6599907 C30.3762828,29.9371216 30.945496,29.0763857 31.3687571,28.107592 C31.7883694,27.1350722 32,26.1066605 32,25 C31.9963512,23.8970657 31.7847206,22.8649278 31.3687571,21.892408 Z M26.2020525,28.5360969 C25.895553,28.5360969 25.5890536,28.4131346 25.359179,28.1783884 L22.9838084,25.7414998 C22.7721779,25.5291104 22.6335234,25.2161155 22.6335234,24.88449 L22.6335234,20.0293433 C22.6335234,19.35864 23.1662486,18.8146251 23.8230331,18.8146251 C24.4798176,18.8146251 25.0125428,19.35864 25.0125428,20.0293433 L25.0125428,24.3889148 L27.0449259,26.4643689 C27.5083238,26.9375873 27.5083238,27.7088961 27.0449259,28.1821146 C26.8114025,28.4131346 26.5122007,28.5360969 26.2020525,28.5360969 Z" id="形状"></path>
                            <path d="M23,8.29708064 C23,3.71643934 19.1423321,0 14.3970932,0 C9.65185433,0 5.80187103,3.71643934 5.80187103,8.29708064 C5.80187103,12.8777219 9.65953892,16.5941613 14.3970932,16.5941613 C19.1346475,16.5941613 23,12.8703039 23,8.29708064 Z M13.9782827,25.4550132 C13.9782827,22.2281646 15.488306,19.338837 17.8628466,17.413855 C17.1443368,17.2617851 16.4104577,17.1838957 15.680421,17.1838957 L10.9543936,17.1838957 C8.19178082,17.1838957 5.40995657,18.3040201 3.32743067,20.2512563 C2.28616772,21.2156018 1.4831273,22.3542714 0.902940194,23.5930845 C0.307383896,24.902369 0,26.2635798 0,27.6767169 C0,29.5201005 1.4831273,31 3.29284998,31 L15.6151019,31 C14.5776813,29.3902848 13.9782827,27.4912659 13.9782827,25.4550132 L13.9782827,25.4550132 Z" id="形状"></path>
                        </g>
                    </g>
                </g>
            </g>
        </g>
    </g>
</svg>