<?xml version="1.0" encoding="UTF-8"?>
<svg width="64px" height="64px" viewBox="0 0 64 64" version="1.1" xmlns="http://www.w3.org/2000/svg" xmlns:xlink="http://www.w3.org/1999/xlink">
    <title>轨迹查看</title>
    <g id="页面-1" stroke="none" stroke-width="1" fill="none" fill-rule="evenodd">
        <g id="4-我的" transform="translate(-48.000000, -661.000000)">
            <g id="编组-7" transform="translate(24.000000, 463.000000)">
                <g id="编组-4" transform="translate(0.000000, 20.000000)">
                    <g id="编组-3备份" transform="translate(0.000000, 140.000000)">
                        <g id="轨迹查看" transform="translate(24.000000, 38.000000)">
                            <circle id="椭圆形" fill="#EBEEF5" cx="32" cy="32" r="32"></circle>
                            <path d="M42.7683797,47.75 C44.9172644,47.75 46.6999871,46.0786571 46.6999871,43.9631875 C46.6999871,41.847897 44.9172644,40.1765541 42.7683797,40.1765541 L21.2316203,40.1765541 C20.4239306,40.1765541 19.8110377,39.5991355 19.8110377,38.9371555 C19.8110377,38.2791169 20.4239306,37.6977569 21.2316203,37.6977569 L25.6925364,37.6977569 C26.3849917,37.6977569 26.9461253,37.1285794 26.9461253,36.4261102 C26.9302128,35.707517 26.3690792,35.134219 25.6925364,35.150343 L21.2316203,35.150343 C19.0827356,35.150343 17.3000129,36.8216858 17.3000129,38.9371555 C17.3000129,41.0526252 19.0827356,42.7237889 21.2316203,42.7237889 L42.7643579,42.7237889 C43.5722224,42.7237889 44.1889623,43.3012074 44.1889623,43.9631875 C44.1889623,44.6212261 43.5760694,45.2025861 42.7643579,45.2025861 L24.8012625,45.2025861 C24.1247196,45.1864621 23.563586,45.7556395 23.5476735,46.4742328 C23.5476735,47.176702 24.1088071,47.75 24.8012625,47.75 L42.7683797,47.75 Z M33.0459929,16.2500276 C28.4144367,16.2385151 24.6622922,19.8325109 24.6500064,24.2687687 C24.6500064,27.5601357 29.2938484,33.719672 31.6844094,36.6615606 C32.3530044,37.3835979 33.5037712,37.4495665 34.2574763,36.8129611 L34.4155888,36.6615606 C36.8022326,33.719672 41.4499917,27.5756375 41.4499917,24.2687687 C41.4337888,19.8325109 37.677549,16.246266 33.0459929,16.2500276 Z M33.6201344,28.8500165 C32.3547072,28.8500165 31.1425402,28.3528878 30.2468654,27.4646023 C29.3511907,26.5761361 28.8500028,25.3740935 28.8500028,24.118884 C28.8500028,22.8638553 29.3511907,21.6616319 30.2468654,20.7775058 C31.1425402,19.8931988 32.3547072,19.39607 33.6201344,19.4000248 C36.2168871,19.4448968 38.2999945,21.5475219 38.2999945,24.1270218 C38.2999945,26.7025431 36.2168871,28.8051683 33.6201344,28.8500165 Z" id="形状" fill="#5F93E0"></path>
                        </g>
                    </g>
                </g>
            </g>
        </g>
    </g>
</svg>