<?xml version="1.0" encoding="UTF-8"?>
<svg width="64px" height="64px" viewBox="0 0 64 64" version="1.1" xmlns="http://www.w3.org/2000/svg" xmlns:xlink="http://www.w3.org/1999/xlink">
    <title>犬病上报</title>
    <g id="页面-1" stroke="none" stroke-width="1" fill="none" fill-rule="evenodd">
        <g id="4-我的" transform="translate(-48.000000, -1221.000000)">
            <g id="编组-7" transform="translate(24.000000, 463.000000)">
                <g id="编组-4" transform="translate(0.000000, 20.000000)">
                    <g id="编组-3备份-5" transform="translate(0.000000, 700.000000)">
                        <g id="犬病上报" transform="translate(24.000000, 38.000000)">
                            <circle id="椭圆形" fill="#EBEEF5" cx="32" cy="32" r="32"></circle>
                            <g id="编组" transform="translate(18.000000, 18.000000)" fill="#5F93E0" fill-rule="nonzero">
                                <path d="M27.552,0.222222222 C28,0.444444444 28,0.888888889 28,1.11111111 L23.968,25.1111111 C23.968,25.3333333 23.744,25.5555556 23.52,25.7777778 C23.296,25.7777778 23.296,26 23.072,26 L22.624,26 L15.456,22.8888889 L11.648,27.5555556 C11.424,27.7777778 11.2,28 10.976,28 L10.528,28 C10.304,28 10.08,27.7777778 10.08,27.5555556 C9.856,27.3333333 9.856,27.1111111 9.856,26.8888889 L9.856,21.5555556 L23.296,5.11111111 L6.496,19.5555556 L0.448,16.8888889 C0.224,16.6666667 0,16.4444444 0,16 C0,15.5555556 0.224,15.3333333 0.448,15.1111111 L26.432,0.222222222 C26.656,0.222222222 26.656,0 26.88,0 C27.104,0.222222222 27.328,0.222222222 27.552,0.222222222 Z" id="路径"></path>
                            </g>
                        </g>
                    </g>
                </g>
            </g>
        </g>
    </g>
</svg>