<?xml version="1.0" encoding="UTF-8"?>
<svg width="64px" height="64px" viewBox="0 0 64 64" version="1.1" xmlns="http://www.w3.org/2000/svg" xmlns:xlink="http://www.w3.org/1999/xlink">
    <title>点名</title>
    <g id="页面-1" stroke="none" stroke-width="1" fill="none" fill-rule="evenodd">
        <g id="4-我的" transform="translate(-48.000000, -801.000000)">
            <g id="编组-7" transform="translate(24.000000, 463.000000)">
                <g id="编组-4" transform="translate(0.000000, 20.000000)">
                    <g id="编组-3备份-2" transform="translate(0.000000, 280.000000)">
                        <g id="点名" transform="translate(24.000000, 38.000000)">
                            <circle id="椭圆形" fill="#EBEEF5" cx="32" cy="32" r="32"></circle>
                            <g id="编组" transform="translate(18.000000, 18.000000)" fill="#5F93E0" fill-rule="nonzero">
                                <path d="M22.0842343,14.5837672 C18.8396135,14.5837672 16.2132702,17.4153524 16.2132702,20.908195 C16.2132702,24.3991904 18.843177,27.2289285 22.0842343,27.2289285 C25.3306369,27.2289285 27.955202,24.3991904 27.955202,20.908195 C27.958762,17.4153524 25.3306369,14.5856143 22.0842343,14.5856143 L22.0842343,14.5837672 Z M25.5658318,18.5236049 L21.5906813,24.2181758 C21.4686383,24.3931683 21.2796045,24.5049545 21.0721834,24.5247924 L21.01873,24.5284865 C20.8297021,24.5282729 20.6489154,24.4482388 20.5180499,24.306836 L18.3050796,21.9665761 C18.0242501,21.6630539 18.0203437,21.185207 18.2961707,20.8767945 C18.4268074,20.7321675 18.6087944,20.6491814 18.7999119,20.6470886 C18.9910293,20.6449957 19.1746668,20.723978 19.3082215,20.8657119 L20.9367682,22.5871975 L24.4219293,17.5945199 C24.5323948,17.4321073 24.7023978,17.3238998 24.8920944,17.2952581 C25.0817911,17.2666164 25.2745056,17.3200584 25.4250712,17.4430587 C25.7404463,17.6979568 25.8045903,18.1818937 25.5676136,18.5236049 L25.5658318,18.5236049 Z" id="形状"></path>
                                <path d="M15.1528048,20.9821119 C15.1528048,19.6350638 15.5086689,18.3738833 16.1318921,17.286227 C15.9862275,17.2361375 15.8405629,17.187837 15.6985861,17.1359587 C15.5252636,17.0787136 14.4392327,16.5867637 15.1177716,14.5080521 L15.1085523,14.5080521 C16.8749659,12.6726319 18.2246682,9.7209329 18.2246682,6.81216767 C18.2246682,2.34526314 15.2744993,0 11.8486157,0 C8.41904439,-0.00357372953 5.48547023,2.34168532 5.48547023,6.81216767 C5.48547023,9.72987744 6.83148477,12.6940988 8.60896151,14.5259411 C9.30040734,16.3577835 8.05949256,17.0375687 7.80135279,17.1323808 C4.21320991,18.4418619 0,20.8282658 0,23.1824694 L0,24.0644013 C0,27.2737031 6.16954064,28 11.8818051,28 C14.3451961,28 16.8786536,27.864043 18.9677419,27.4543829 C16.6924242,26.202147 15.150961,23.7692314 15.150961,20.9821119 L15.1528048,20.9821119 Z" id="路径"></path>
                            </g>
                        </g>
                    </g>
                </g>
            </g>
        </g>
    </g>
</svg>