<?xml version="1.0" encoding="UTF-8"?>
<svg width="64px" height="64px" viewBox="0 0 64 64" version="1.1" xmlns="http://www.w3.org/2000/svg" xmlns:xlink="http://www.w3.org/1999/xlink">
    <title>审批管理</title>
    <g id="页面-1" stroke="none" stroke-width="1" fill="none" fill-rule="evenodd">
        <g id="4-我的" transform="translate(-48.000000, -941.000000)">
            <g id="编组-7" transform="translate(24.000000, 463.000000)">
                <g id="编组-4" transform="translate(0.000000, 20.000000)">
                    <g id="编组-3备份-3" transform="translate(0.000000, 420.000000)">
                        <g id="审批管理" transform="translate(24.000000, 38.000000)">
                            <circle id="椭圆形" fill="#EBEEF5" cx="32" cy="32" r="32"></circle>
                            <path d="M32,17.75 C33.8241676,17.75 35.3356735,18.9557176 35.9090265,20.6548206 L35.9090265,20.6548206 L42.4239588,20.6548206 C43.3621118,20.6548206 44.5088176,21.4221412 44.5088176,22.8471412 L44.5088176,22.8471412 L44.5088176,44.0576794 C44.5088176,45.4278588 43.41425,46.25 42.4239588,46.25 L42.4239588,46.25 L21.5760412,46.25 C20.6378882,46.25 19.4911824,45.4826794 19.4911824,44.0576794 L19.4911824,44.0576794 L19.4911824,22.7923206 C19.5433206,21.4769618 20.58575,20.6548206 21.5760412,20.6548206 L21.5760412,20.6548206 L28.0909735,20.6548206 C28.6643265,18.9557176 30.1758324,17.75 32,17.75 Z M37.1631941,28.6680147 L29.81405,36.1643529 L26.4995,32.7195412 C26.0371294,32.2388971 25.2860706,32.2375559 24.8220235,32.7165235 C24.3579765,33.1953235 24.3566353,33.9732059 24.8190059,34.4536824 L28.9659235,38.7637206 C29.42645,39.2423529 30.1736529,39.2458735 30.6385382,38.7717676 L38.8279294,30.4184176 C39.2946588,29.9423 39.3003588,29.1644176 38.8406706,28.6810912 C38.3809824,28.1977647 37.6299235,28.1918971 37.1631941,28.6680147 Z M32,19.9423206 C30.8532941,19.9423206 29.9151412,20.9289235 29.9151412,22.1346412 C29.9151412,23.3403588 30.8532941,24.3269618 32,24.3269618 C33.1467059,24.3269618 34.0848588,23.3403588 34.0848588,22.1346412 C34.0848588,20.9289235 33.1467059,19.9423206 32,19.9423206 Z" id="形状结合" fill="#5F93E0"></path>
                        </g>
                    </g>
                </g>
            </g>
        </g>
    </g>
</svg>