<?xml version="1.0" encoding="UTF-8"?>
<svg width="64px" height="64px" viewBox="0 0 64 64" version="1.1" xmlns="http://www.w3.org/2000/svg" xmlns:xlink="http://www.w3.org/1999/xlink">
    <title>我的任务</title>
    <g id="页面-1" stroke="none" stroke-width="1" fill="none" fill-rule="evenodd">
        <g id="4-我的" transform="translate(-48.000000, -521.000000)">
            <g id="编组-7" transform="translate(24.000000, 463.000000)">
                <g id="编组-4" transform="translate(0.000000, 20.000000)">
                    <g id="编组-3">
                        <g id="我的任务" transform="translate(24.000000, 38.000000)">
                            <circle id="椭圆形" fill="#EBEEF5" cx="32" cy="32" r="32"></circle>
                            <g id="编组" transform="translate(19.000000, 19.000000)" fill="#5F93E0" fill-rule="nonzero">
                                <path d="M7.79474783,6 L18.2052853,6 C19.1964844,6 20,5.18866778 20,4.18782634 L20,2.99911397 L16.4782532,0.115618017 C16.3869199,0.0408234708 16.2728994,0 16.1553038,0 L9.85545782,0 C9.73808734,0 9.62427062,0.040665347 9.5330052,0.115183363 L6,3.00001672 L6,4.18782634 C6,5.18866778 6.80354875,6 7.79474783,6 Z M13.0000166,1.52637181 C13.7492934,1.52637181 14.356748,2.13970232 14.356748,2.89630154 C14.356748,3.65290076 13.7493265,4.26623127 13.0000166,4.26623127 C12.2507066,4.26623127 11.6432851,3.65290076 11.6432851,2.89630154 C11.6432851,2.13970232 12.2507066,1.52637181 13.0000166,1.52637181 L13.0000166,1.52637181 Z" id="形状"></path>
                                <path d="M22.1601365,3 L22.1601365,4.94411592 C22.1601365,6.33419114 21.0123361,7.46106128 19.5964419,7.46106128 L6.36673947,7.46106128 C4.95084527,7.46106128 3.80304487,6.33419114 3.80304487,4.94411592 L3.80304487,3.00091018 C1.69888762,3.02337217 0,4.70415298 0,6.77527177 L0,23.2245982 C0,25.3096948 1.72170059,27 3.84552534,27 L22.1544747,27 C24.2782994,27 26,25.3096948 26,23.2245982 L26,6.77527177 C26,4.69202805 24.2813456,3.0030231 22.1601365,3 L22.1601365,3 Z M18.9929743,13.1467397 L12.1298126,19.8847834 C12.1282895,19.8862787 12.1266009,19.887514 12.1250778,19.8889768 C12.1238197,19.890212 12.1227601,19.8915448 12.1215019,19.8927475 C12.1121317,19.9017193 12.1020331,19.9094884 12.0923649,19.9179726 C12.0804783,19.9284072 12.0688566,19.9392643 12.0565727,19.9489838 C12.0453152,19.9578905 12.033528,19.9656921 12.0219394,19.9739813 C12.0092581,19.9830506 11.9968087,19.992575 11.9837963,20.0009291 C11.9716118,20.0087307 11.9589305,20.0153945 11.9464811,20.0225785 C11.9334687,20.030055 11.9206551,20.0380516 11.9073447,20.0448454 C11.8938689,20.0517368 11.8799626,20.0574254 11.8662218,20.0636017 C11.8534081,20.0693553 11.8408262,20.0756616 11.8278139,20.0807976 C11.8127487,20.0867463 11.7973525,20.0913947 11.7820555,20.0964982 C11.7699372,20.1005615 11.7579843,20.1052425 11.7457336,20.1087532 C11.7288804,20.1135967 11.7117955,20.1171074 11.6947437,20.1209756 C11.683718,20.1234786 11.6727916,20.1266643 11.6616997,20.1287447 C11.6417342,20.1325154 11.6216032,20.1348559 11.6015052,20.1372939 C11.5931283,20.1383016 11.5848177,20.1399919 11.5764077,20.1408046 C11.5478004,20.1434701 11.5190938,20.1448354 11.4904203,20.1448354 L11.4903872,20.1448354 L11.4903541,20.1448354 C11.4611839,20.1448354 11.4319807,20.1434376 11.4029099,20.1406746 C11.3942019,20.1398619 11.3855932,20.1380415 11.3768852,20.1369688 C11.3565886,20.1344658 11.3362589,20.1320928 11.3161279,20.1282246 C11.3053339,20.1261442 11.2947718,20.122991 11.284044,20.1205205 C11.2661976,20.1164247 11.2483181,20.1126865 11.2307365,20.1075179 C11.2190155,20.1040723 11.2075924,20.0995213 11.1960038,20.0955881 C11.1797467,20.0900945 11.1633902,20.0850234 11.147398,20.0785872 C11.1352465,20.0737112 11.1235255,20.067665 11.1115396,20.0622689 C11.0965075,20.055475 11.0813761,20.0491038 11.0666752,20.0414322 C11.0545568,20.035126 11.0429682,20.027682 11.0310816,20.0207906 C11.017076,20.012664 11.0029048,20.0049599 10.9892634,19.9960532 C10.9775423,19.9883816 10.9664504,19.9796049 10.9550273,19.9713482 C10.9418495,19.9618238 10.9284729,19.9526895 10.9157255,19.9423849 C10.9048322,19.9335757 10.8946011,19.9236937 10.8840721,19.9142993 C10.8729801,19.9044499 10.8614909,19.895283 10.8507962,19.8847834 C10.8493394,19.8833532 10.8481474,19.8817928 10.8467237,19.88033 C10.8453993,19.8790298 10.8439424,19.8779246 10.8426511,19.8766243 L6.9988144,16.0045482 C6.65019643,15.6533805 6.65758002,15.0912132 7.0152702,14.7489848 C7.37292727,14.406659 7.94556927,14.4140054 8.29422035,14.7651081 L11.4985323,17.9930355 L17.7138917,11.8910139 C18.0670788,11.5443321 18.639754,11.5443321 18.9929743,11.8910139 C19.3461283,12.2377606 19.3461283,12.799993 18.9929743,13.1467397 Z" id="形状"></path>
                            </g>
                        </g>
                    </g>
                </g>
            </g>
        </g>
    </g>
</svg>