<?xml version="1.0" encoding="UTF-8"?>
<svg width="44px" height="44px" viewBox="0 0 44 44" version="1.1" xmlns="http://www.w3.org/2000/svg" xmlns:xlink="http://www.w3.org/1999/xlink">
    <title>犬病上报</title>
    <g id="页面-1" stroke="none" stroke-width="1" fill="none" fill-rule="evenodd">
        <g id="1-消息" transform="translate(-474.000000, -256.000000)">
            <g id="添加任务" transform="translate(434.000000, 116.000000)">
                <g id="编组-3备份" transform="translate(0.000000, 112.000000)">
                    <g id="犬病上报" transform="translate(40.000000, 28.000000)">
                        <rect id="矩形" x="0" y="0" width="44" height="44"></rect>
                        <g id="编组" transform="translate(4.000000, 8.000000)" fill="#ADB0BC" fill-rule="nonzero">
                            <path d="M33.6913148,0.165507746 C34.6180597,-0.277675248 35.1889659,0.219933727 34.942616,1.0557613 L28.6626484,23.6969697 C28.447581,24.4667086 27.8336614,24.7582763 27.2275624,24.5911108 C26.629284,24.4200577 15.9658521,21.3100016 15.9658521,21.3100016 C15.3362912,21.1195107 15.1290445,20.4430735 15.617834,19.9104764 L26.8951855,7.34973733 L11.4963608,19.6849973 C11.2304593,19.8988137 10.9450063,19.8988137 10.6595532,19.8249498 C10.6595532,19.8249498 2.29147682,17.4418694 0.926776516,17.0414496 C-0.43792379,16.6449175 -0.125098505,15.6224865 0.770363874,15.2104041 C1.66973657,14.7983217 33.6913148,0.169395316 33.6913148,0.165507746 Z M18.0109474,23.9613245 C18.4371719,24.0896143 18.5114679,24.4667086 18.3081314,24.7505012 L15.2854571,28.6536216 C14.8279501,29.2406447 14.2648646,28.9996153 14.2648646,28.5369945 L14.2648646,23.5958929 C14.2648646,23.2187986 14.5659589,23.0127573 14.9178874,23.1138342 L18.0109474,23.9613245 L18.0109474,23.9613245 Z" id="形状"></path>
                        </g>
                    </g>
                </g>
            </g>
        </g>
    </g>
</svg>