<?xml version="1.0" encoding="UTF-8"?>
<svg width="36px" height="36px" viewBox="0 0 36 36" version="1.1" xmlns="http://www.w3.org/2000/svg" xmlns:xlink="http://www.w3.org/1999/xlink">
    <title>警犬</title>
    <g id="1207新增案例评选" stroke="none" stroke-width="1" fill="none" fill-rule="evenodd">
        <g id="1-1线索发现-详情备份" transform="translate(-702.000000, -537.000000)">
            <g id="警犬" transform="translate(702.000000, 537.000000)">
                <rect id="矩形" x="0" y="0" width="36" height="36"></rect>
                <g id="编组" transform="translate(2.000000, 2.000000)" fill="#FDB205" fill-rule="nonzero">
                    <path d="M18.9405682,31.5445641 C18.7332216,31.8691621 18.1626192,32.024113 17.6661376,31.8886508 L6.36175594,28.8187075 C5.86527432,28.6829259 5.62821554,28.3100854 5.83556208,27.9854874 C6.04322813,27.6608894 6.61351109,27.5059386 7.10999271,27.6414007 L18.4118185,30.7129415 C18.910856,30.8452088 19.1479148,31.2199661 18.9405682,31.5445641 L18.9405682,31.5445641 Z" id="路径"></path>
                    <path d="M17.1498478,31.5413693 C17.3571944,31.8659673 17.9277968,32.0209181 18.4242784,31.885456 L29.3408038,28.9190262 C29.8372854,28.7832446 30.0743442,28.4104041 29.8669977,28.0858061 C29.6593316,27.7612081 29.0890487,27.6062573 28.592567,27.7417194 L17.6760417,30.7081492 C17.1795601,30.8439308 16.9425013,31.2167713 17.1498478,31.5413693 Z M18.9405682,28.7992189 C18.7332216,29.1238169 18.1626192,29.2787677 17.6661376,29.1433056 L6.36175594,26.0733623 C5.86527432,25.9375806 5.62821554,25.5647402 5.83556208,25.2401421 C6.04322813,24.9155441 6.61351109,24.7605933 7.10999271,24.8960555 L18.4118185,27.9675962 C18.910856,28.100183 19.1479148,28.4749403 18.9405682,28.7992189 Z" id="形状"></path>
                    <path d="M17.1498478,28.796024 C17.3571944,29.120622 17.9277968,29.2755729 18.4242784,29.1401107 L29.3408038,26.173681 C29.8372854,26.0378993 30.0743442,25.6650588 29.8669977,25.3404608 C29.6593316,25.0158628 29.0890487,24.860912 28.592567,24.9963741 L17.6760417,27.9628039 C17.1795601,28.0985855 16.9425013,28.471426 17.1498478,28.796024 Z M29.8842499,22.4302607 C29.7954327,22.2654058 29.6050189,22.1251513 29.3385674,22.0523084 L18.0367416,18.9807677 C17.9111316,18.9470448 17.7814907,18.9307053 17.6514412,18.9322058 C17.5213918,18.9307053 17.3917508,18.9470448 17.2661408,18.9807677 L6.36942361,21.9408077 C6.08060806,22.0184429 5.88029019,22.1765886 5.80393294,22.3590152 C5.80137706,22.3622101 5.80137706,22.3670024 5.79882118,22.3701973 L5.79882118,22.3717947 C5.66783182,22.676904 5.9052101,23.0062944 6.36431182,23.130894 L17.6661376,26.2024347 C17.9139005,26.2680876 18.1745588,26.2675367 18.422042,26.2008373 L18.4245979,26.2008373 L29.3408038,23.2344075 C29.8248255,23.1037377 30.0622038,22.7484689 29.8842499,22.4302607 Z" id="形状"></path>
                    <path d="M2.67041189,2.86013097 C2.67041189,2.86013097 2.78798283,1.54161124 4.54451818,1.56461428 C4.54451818,1.56461428 3.87359707,-0.0689188839 4.74259965,0.0112721483 C4.74259965,0.0112721483 5.50425484,-0.0494302283 7.24609383,2.32275512 C7.24609383,2.32275512 11.8920628,6.71760787 13.2719238,6.51153923 C13.2719238,6.51153923 21.03512,6.50610797 22.2983686,6.68310334 C22.2983686,6.68310334 25.4047333,6.52879148 26.8900249,10.2147042 C26.8900249,10.2147042 28.1826662,13.7306503 31.1107576,15.2926186 C31.1107576,15.2926186 32.1995667,16.0105041 31.9573961,17.1996319 C31.9573961,17.1996319 31.5877506,17.7759851 28.5836214,16.6823837 C28.5836214,16.6823837 26.6475348,15.2303187 25.9865178,14.1820844 C25.9865178,14.1820844 26.2903492,16.0204082 28.6580617,17.952661 C28.6580617,17.952661 29.4586942,19.9059999 29.116844,21.6599793 C29.116844,21.6599793 29.2813794,22.7973503 28.9372927,23.0289779 L26.5647879,23.0289779 C26.5647879,23.0289779 26.1005743,21.9280283 27.6213289,21.7123751 C27.6213289,21.7123751 27.5794762,19.1529708 25.8168706,18.3104856 C25.8168706,18.3104856 26.132523,21.3395346 25.2386005,23.0286584 L22.8660956,23.0286584 C22.8660956,23.0286584 22.5482068,21.6970397 24.2817392,21.5964016 C24.2817392,21.5964016 24.284934,19.9567982 23.7379736,19.3376338 C23.7379736,19.3376338 20.3945501,16.3149745 19.9552565,14.4555646 C19.9552565,14.4555646 15.6971439,15.5130641 13.9942822,15.0137071 C13.9942822,15.0137071 13.7406102,17.5178402 14.1233547,20.6957698 C14.1233547,20.6957698 14.5220735,22.5666813 14.2236734,23.0283389 L11.7316807,23.0283389 C11.7316807,23.0283389 11.5697011,21.7711606 12.838381,21.69065 C12.838381,21.69065 11.7329586,18.0274208 11.7217766,16.8459606 C11.7217766,16.8459606 11.3939837,20.5718092 9.82786217,23.0280194 L7.45535735,23.0280194 C7.45535735,23.0280194 7.24130157,21.7082218 8.88090493,21.7011931 C8.88090493,21.7011931 9.67482824,19.8695784 9.31316983,17.0957989 C9.31316983,17.0957989 8.03139103,10.6354676 7.1662223,9.73675283 C7.1662223,9.73675283 3.81097781,5.99780536 3.56752927,5.99780533 C3.56752927,5.99780533 0.618351766,6.54796063 0.0288996527,4.14414617 C0.0288996527,4.14414617 -0.261193865,3.30325838 1.10620725,3.09623131 L2.67041189,2.86013097 Z" id="路径"></path>
                </g>
            </g>
        </g>
    </g>
</svg>