<?xml version="1.0" encoding="UTF-8"?>
<svg width="64px" height="64px" viewBox="0 0 64 64" version="1.1" xmlns="http://www.w3.org/2000/svg" xmlns:xlink="http://www.w3.org/1999/xlink">
    <title>自评上报</title>
    <g id="页面-1" stroke="none" stroke-width="1" fill="none" fill-rule="evenodd">
        <g id="4-我的-我的任务-自评上报" transform="translate(-56.000000, -270.000000)">
            <g id="小组件/自评上报" transform="translate(24.000000, 232.000000)">
                <g id="自评上报" transform="translate(32.000000, 38.000000)">
                    <circle id="椭圆形" fill="#EBEEF5" cx="32" cy="32" r="32"></circle>
                    <g id="编组" transform="translate(20.000000, 16.000000)" fill="#5F93E0" fill-rule="nonzero">
                        <path d="M17.9648437,9.47109375 C17.0859375,10.2375 15.5460938,10.1285156 14.7761719,9.140625 C13.8972656,8.15625 14.00625,6.72890625 14.9941406,5.85351562 L20.2710937,1.1390625 L3.1078125,1.1390625 C1.4625,1.1390625 0.031640625,2.56289063 0.031640625,4.3171875 L0.031640625,28.4730469 C0.031640625,30.1183594 1.45898437,31.5421875 3.1078125,31.5421875 L20.7105469,31.5421875 C22.3558594,31.5421875 23.7867187,30.1183594 23.7867187,28.4730469 L23.7867187,4.32070313 L17.9648437,9.47109375 Z M12.2238281,22.3136719 C11.9003906,22.6371094 11.4539063,22.8128906 10.996875,22.7988281 L4.55625,22.7988281 C3.571875,22.7988281 2.840625,22.0710938 2.840625,21.0867188 C2.83007813,20.6296875 3.00585938,20.1867188 3.3328125,19.8597656 C3.65625,19.5363281 4.10273437,19.3605469 4.55976562,19.3746094 L11.0003906,19.3746094 C11.4574219,19.3605469 11.9039062,19.5363281 12.2273438,19.8597656 C12.5507812,20.1832031 12.7300781,20.6261719 12.7195313,21.0867188 C12.7300781,21.5472656 12.5507812,21.9902344 12.2238281,22.3136719 L12.2238281,22.3136719 Z M17.6132813,15.4371094 C17.2898437,15.7605469 16.8433594,15.9363281 16.3863281,15.9222656 L4.55625,15.9222656 C3.571875,15.9222656 2.840625,15.1945312 2.840625,14.2101562 C2.83007812,13.753125 3.00585937,13.3101562 3.3328125,12.9832031 C3.65625,12.6597656 4.10273437,12.4839844 4.55976562,12.4980469 L16.3863281,12.4980469 C16.8433594,12.4839844 17.2898437,12.6597656 17.6132812,12.9832031 C17.9367188,13.3066406 18.1160156,13.7496094 18.1054687,14.2101562 C18.1160156,14.6707031 17.9367188,15.1136719 17.6132812,15.4371094 L17.6132813,15.4371094 Z" id="形状"></path>
                        <path d="M24.8871094,0.37265625 C25.2175781,0.812109375 25.1085937,1.46953125 24.665625,1.69101562 L16.9734375,8.37070313 C16.6429687,8.81015625 15.9855469,8.70117188 15.7640625,8.26171875 C15.5953125,8.07539062 15.5109375,7.82929687 15.5320312,7.5796875 C15.553125,7.33007812 15.6761719,7.1015625 15.8730469,6.946875 L23.56875,0.263671875 C23.8992187,-0.066796875 24.5601562,-0.066796875 24.8871094,0.37265625 Z" id="路径"></path>
                    </g>
                </g>
            </g>
        </g>
    </g>
</svg>