<?xml version="1.0" encoding="UTF-8"?>
<svg width="36px" height="36px" viewBox="0 0 36 36" version="1.1" xmlns="http://www.w3.org/2000/svg" xmlns:xlink="http://www.w3.org/1999/xlink">
    <title>4w报备</title>
    <g id="页面-1" stroke="none" stroke-width="1" fill="none" fill-rule="evenodd">
        <g id="4-我的-我的任务-自评上报-详情" transform="translate(-48.000000, -2240.000000)">
            <g id="大组件/评分卡片备份-2" transform="translate(24.000000, 2202.000000)">
                <g id="编组-2" transform="translate(24.000000, 32.000000)">
                    <g id="4w报备" transform="translate(0.000000, 6.000000)">
                        <rect id="矩形" x="0" y="0" width="36" height="36"></rect>
                        <g id="编组" transform="translate(3.000000, 3.000000)" fill="#F8B61F" fill-rule="nonzero">
                            <path d="M26.25,5.30625 C25.287589,5.71553832 24.5121671,6.46867799 24.075,7.41875001 L17.6825,21.12625 C17.324618,21.8868128 17.2484249,22.7497443 17.4675,23.56125 L17.72375,24.49 C17.755,24.60375 17.7925,24.715 17.83625,24.82375 C18.5075,26.5375 20.41875,27.3025 22.1025,26.5325 L22.98,26.1325 C23.7423749,25.7781895 24.354146,25.1646465 24.70625,24.40125 L26.25,21.09125 L26.25,27.5 C26.25,28.8807119 25.1307119,30 23.75,30 L2.5,30 C1.11928812,30 0,28.8807119 0,27.5 L0,2.5 C0,1.11928812 1.11928812,0 2.5,0 L23.75,0 C25.1307119,0 26.25,1.11928812 26.25,2.5 L26.25,5.30625 Z M6.24999999,7.49999999 C5.80337243,7.49993162 5.39064228,7.73816532 5.16730876,8.12494475 C4.94397523,8.51172417 4.94397523,8.98827582 5.16730876,9.37505524 C5.39064228,9.76183467 5.80337243,10.0000684 6.24999999,9.99999999 L18.75,9.99999999 C19.1966276,10.0000684 19.6093577,9.76183467 19.8326912,9.37505524 C20.0560248,8.98827582 20.0560248,8.51172417 19.8326912,8.12494475 C19.6093577,7.73816532 19.1966276,7.49993162 18.75,7.49999999 L6.24999999,7.49999999 L6.24999999,7.49999999 Z M6.24999999,13.75 C5.55964405,13.75 4.99999998,14.3096441 4.99999998,15 C4.99999998,15.6903559 5.55964405,16.25 6.24999999,16.25 L16.25,16.25 C16.940356,16.25 17.5,15.6903559 17.5,15 C17.5,14.3096441 16.940356,13.75 16.25,13.75 L6.24999999,13.75 L6.24999999,13.75 Z M6.24999999,20 C5.80337243,19.9999316 5.39064228,20.2381653 5.16730876,20.6249448 C4.94397523,21.0117242 4.94397523,21.4882758 5.16730876,21.8750553 C5.39064228,22.2618347 5.80337243,22.5000684 6.24999999,22.5 L13.75,22.5 C14.1966276,22.5000684 14.6093577,22.2618347 14.8326912,21.8750553 C15.0560247,21.4882758 15.0560247,21.0117242 14.8326912,20.6249448 C14.6093577,20.2381653 14.1966276,19.9999316 13.75,20 L6.24999999,20 L6.24999999,20 Z M28.47125,7.15875 C29.41,7.59624999 29.79125,8.76375 29.32375,9.76749999 L22.85625,23.6375 C22.71625,23.9375 22.47875,24.1775 22.1875,24.3125 L21.3075,24.72125 C20.9832951,24.8799199 20.6047062,24.8833786 20.2776566,24.7306583 C19.950607,24.577938 19.7102192,24.2854398 19.62375,23.935 L19.37,22.9975 C19.2873979,22.6819896 19.318371,22.3474798 19.4575,22.0525 L25.925,8.1825 C26.3925,7.17875001 27.53375,6.72 28.47125,7.15749999 L28.47125,7.15875 Z" id="形状"></path>
                        </g>
                    </g>
                </g>
            </g>
        </g>
    </g>
</svg>