<?xml version="1.0" encoding="UTF-8"?>
<svg width="120px" height="120px" viewBox="0 0 120 120" version="1.1" xmlns="http://www.w3.org/2000/svg" xmlns:xlink="http://www.w3.org/1999/xlink">
    <title>警员头像</title>
    <g id="页面-1" stroke="none" stroke-width="1" fill="none" fill-rule="evenodd">
        <g id="4-我的" transform="translate(-72.000000, -191.000000)" fill-rule="nonzero">
            <g id="我的任务" transform="translate(24.000000, 152.000000)">
                <g id="警员头像" transform="translate(48.000000, 39.000000)">
                    <circle id="椭圆形" stroke="#527AD9" stroke-width="2" fill="#F5F8FF" cx="60" cy="60" r="59"></circle>
                    <g id="编组" transform="translate(27.000000, 18.000000)" fill="#5270BF">
                        <path d="M63,48.8679354 C61.994088,48.7106102 60.9781677,48.6317301 59.9607571,48.6319948 C49.0984508,48.6319948 40.2924645,57.5276997 40.2924644,68.5006752 C40.2882932,71.4400507 40.9322883,74.3434599 42.1776702,77 L0,76.9945361 C0.468597112,70.1448085 1.41464194,60.8810363 3.49653076,52.3906524 C3.92628298,50.2001303 5.47319416,48.3568136 5.52039807,48.2902535 C5.72199807,46.9868681 21.5200625,46.9868681 21.5200624,46.9868681 L24.1374205,46.7365227 C23.7647063,49.0715894 23.4785327,52.6325536 24.4811239,55.6809059 C25.7703804,59.6854384 27.8330926,63.6606646 30.6318907,66.0240442 L31.2239063,55.3818823 L36.6110517,55.3818823 L37.5374283,65.3579467 C39.4958986,62.5321236 41.7784039,58.0740885 42.0173736,52.40009 C42.208156,47.9619235 43.3066302,45.9358148 44.2526751,45 C50.7953326,45.2697173 59.0088117,46.4767397 62.3047258,48.3001879 C62.5491043,48.4352949 62.7802068,48.6250408 63,48.8684321 L63,48.8679354 Z" id="路径"></path>
                        <path d="M60,81.9999999 C67.732,81.9999999 74,75.7319999 74,67.9999999 C74,60.2680001 67.732,53.9999999 60,53.9999999 C52.2680001,53.9999999 46,60.268 46,67.9999999 C46,75.732 52.268,81.9999999 60,81.9999999 Z M60,84 C51.1635001,84 44,76.8365 44,68 C44,59.1635 51.1635,52 60,52 C68.8365,52 76,59.1635 76,68 C76,76.8365 68.8365,84 60,84 Z" id="形状"></path>
                        <path d="M51.5575221,59.891258 L53.8075221,59.891258 L53.8075221,59.0810235 L55.3606194,59.0810235 L55.3606194,59.891258 L57.1725663,59.891258 L57.1725663,59.0810235 L58.7256637,59.0810235 L58.7256637,59.891258 L60.9955752,59.891258 L60.9955752,61.2686567 L58.7256637,61.2686567 L58.7256637,62.0383796 L57.1725663,62.0383796 L57.1725663,61.2686567 L55.3606194,61.2686567 L55.3606194,62.0383796 L54.2853982,62.0383796 L54.1858407,62.3827292 L60.4380531,62.3827292 L60.4380531,63.2334755 C61.4933628,62.1396588 62.210177,60.7420042 62.5884955,59 L64.300885,59.2835821 C64.221239,59.607676 64.141593,59.9115139 64.0619469,60.2153518 L68.5619469,60.2153518 L68.5619469,61.7750533 L67.4867257,61.7750533 C67.2079647,63.0309168 66.7300885,64.0842217 66.0530973,64.934968 C66.8893805,65.4008529 67.8650442,65.8059702 69,66.1503198 L68.1438054,67.6897655 C66.829646,67.2441365 65.7345133,66.7174841 64.858407,66.1098081 C63.9026549,66.8187633 62.767699,67.3251599 61.4336283,67.6492537 L60.7367257,66.1098081 C61.8517699,65.8667377 62.8075221,65.5223881 63.5641593,65.0362474 C63.0862832,64.5298508 62.7079646,64.0031983 62.449115,63.4765458 C62.1106195,63.9221748 61.7522124,64.3070362 61.3539823,64.6716417 L60.4380531,63.4968017 C60.3783185,65.2793177 60.2190265,66.413646 59.9402655,66.8592751 C59.8606194,66.9808103 59.7610619,67.0820896 59.681416,67.163113 L60.5774337,67.0415778 C60.7566372,67.3859275 60.9358407,67.7707889 61.0951327,68.2164179 L68.721239,68.2164179 L68.721239,69.5735607 L51.4579646,69.5735607 L51.4579646,68.2164179 L59.2831858,68.2164179 C59.1637168,67.9733475 59.0243363,67.7707889 58.9048673,67.5682303 C58.6858407,67.6289979 58.4469027,67.6695096 58.2079646,67.6695096 L57.3915929,67.6695096 L57.2522124,67.1833688 L53.0707964,67.1833688 L53.0707964,64.6918977 C52.7323009,65.1172708 52.3738938,65.5021322 51.9955752,65.826226 L51,64.5703625 C51.8761062,63.8411514 52.4535398,62.8891258 52.7721238,61.673774 L53.8075221,61.8358209 L53.8075221,61.2686567 L51.5575221,61.2686567 L51.5575221,59.891258 L51.5575221,59.891258 Z M57.4513274,66.4541578 L57.8694691,66.4541578 C58.2278761,66.4136461 58.4469027,66.2515991 58.5464602,65.9275053 C58.6261062,65.6034115 58.6858407,64.8336886 58.7057522,63.6588486 L53.688053,63.6588486 C53.568584,63.8816631 53.449115,64.0842218 53.329646,64.2867804 L57.4513274,64.2867804 L57.4513274,66.4541578 Z M56.0376106,66.2110874 L56.0376106,65.2793177 L54.4646017,65.2793177 L54.4646017,66.2110874 L56.0376106,66.2110874 Z M63.4646018,61.7750533 L63.3451327,62.0181236 C63.6238938,62.7675906 64.0818584,63.4360341 64.7588496,64.0234542 C65.2964602,63.3752665 65.6747788,62.6257996 65.8738938,61.7750533 L63.4646018,61.7750533 Z M53.8672566,70.2825159 L66.471239,70.2825159 L66.471239,71.3965885 L53.8672566,71.3965885 L53.8672566,70.2825159 Z M53.8672566,72.1055437 L66.471239,72.1055437 L66.471239,73.2196162 L53.8672566,73.2196162 L53.8672566,72.1055437 Z M67.1880531,74.0095949 L67.1880531,78 L65.3561947,78 L65.3561947,77.4530917 L55.0221239,77.4530917 L55.0221239,78 L53.1902655,78 L53.1902655,74.0095949 L67.1880531,74.0095949 L67.1880531,74.0095949 Z M55.0221239,76.1972281 L65.3561947,76.1972281 L65.3561947,75.2452026 L55.0221239,75.2452026 L55.0221239,76.1972281 L55.0221239,76.1972281 Z" id="形状"></path>
                        <path d="M36.5817371,54 L33.1694564,54 L30.4415177,51.7062284 L34.5381402,46.3522674 L38.6258302,50.9408073 L36.5817371,53.9995017 L36.5817371,54 Z M54.6852855,8.55312371 C53.0565617,5.27068322 43.5705603,0.352753131 33.216601,0.0143931203 C22.8740558,-0.333434902 11.9136673,5.69674763 12.0005127,10.1103768 C12.0873582,14.5155346 17.5144526,16.4126426 17.5144526,16.4126427 C17.2350585,17.2642734 17.37947,20.5751181 17.37947,20.5751181 C17.37947,20.5751181 17.6295848,21.0305835 18.1025202,21.6689327 C16.5025794,42.8386059 34.9336592,43.1964005 34.9336591,43.1964005 C50.9072616,41.5320083 49.6338595,24.1077158 49.4795228,21.5911946 C49.4323839,20.8138748 49.3295576,20.0409731 49.1718419,19.2784868 C49.3743158,17.8547836 48.8155276,16.3832417 48.8155275,16.3832417 C51.1474512,15.4538731 56.3244308,11.8241027 54.6847893,8.55262535 L54.6852855,8.55312371 Z M30.6057796,6.89720301 C30.5825645,6.75647529 30.5694625,6.61425274 30.566575,6.47163679 C30.566575,4.68964086 32.1288001,3.23753349 34.0661974,3.23753349 C36.0035947,3.23753349 37.5658198,4.68964095 37.5658198,6.47163679 C37.5658198,6.69438631 37.5360442,6.91713575 37.4884033,7.13839036 C38.5290596,7.04221441 39.6570576,6.95500821 40.6793522,6.93557366 C40.6793522,6.93557366 37.7677974,8.29997663 36.1102905,9.10327007 C35.8575649,9.26863372 35.5855616,9.40218783 35.3003949,9.50093028 C35.2805445,9.51089673 35.2606942,9.52933456 35.2329036,9.53880266 C35.2329036,9.53880266 35.136133,9.56870194 34.9817963,9.58863476 C34.6832884,9.66995604 34.3754929,9.71183598 34.0661974,9.71321499 C34.0086314,9.71321499 33.9510652,9.69378044 33.8825814,9.69378052 C33.1118903,9.69378052 32.1288001,9.53930102 31.3387549,8.87204917 C31.3387549,8.87204917 30.1427694,8.04882283 27.4431174,6.92560729 C27.4431174,6.93557374 28.8792926,6.7521916 30.6057796,6.89720301 L30.6057796,6.89720301 Z M46.1833669,16.1993613 L19.7327328,16.1993613 L19.7327328,13.0629289 L46.1932921,13.0629289 L46.1932921,16.1993613 L46.1833669,16.1993613 L46.1833669,16.1993613 Z" id="形状"></path>
                    </g>
                </g>
            </g>
        </g>
    </g>
</svg>