<?xml version="1.0" encoding="UTF-8"?>
<svg width="36px" height="36px" viewBox="0 0 36 36" version="1.1" xmlns="http://www.w3.org/2000/svg" xmlns:xlink="http://www.w3.org/1999/xlink">
    <title>业务</title>
    <g id="页面-1" stroke="none" stroke-width="1" fill="none" fill-rule="evenodd">
        <g id="4-我的-我的任务-自评上报-详情" transform="translate(-48.000000, -1946.000000)">
            <g id="大组件/评分卡片备份" transform="translate(24.000000, 1908.000000)">
                <g id="编组-2" transform="translate(24.000000, 32.000000)">
                    <g id="业务" transform="translate(0.000000, 6.000000)">
                        <rect id="矩形" x="0" y="0" width="36" height="36"></rect>
                        <g id="编组" transform="translate(2.000000, 2.000000)" fill="#F8B61F" fill-rule="nonzero">
                            <path d="M26.7954858,16.2952558 C26.7954858,21.6156419 22.53565,25.9302177 17.2800412,25.9302177 C12.0244781,25.9302177 7.76464232,21.6156419 7.76464232,16.2952558 C7.76464232,10.9733425 12.0244781,6.65964606 17.2800412,6.65964606 C22.53565,6.65964606 26.7954858,10.9733426 26.7954858,16.2952558 L26.7954858,16.2952558 Z M19.9514613,14.3708737 L19.9514613,12.0044219 L18.6157283,12.0044219 L18.6157283,13.0187477 L17.2800412,11.6664829 L13.6068557,15.3851995 L14.274745,15.3851995 L14.274745,19.1030831 L16.2783215,19.1030831 L16.2783215,16.0609386 L18.2818981,16.0609386 L18.2818981,19.1030831 L20.2854746,19.1030831 L20.2854746,15.3851995 L20.9533639,15.3851995 L19.9514613,14.3708737 L19.9514613,14.3708737 Z M16.6121518,19.1046104 L17.9478847,19.1046104 L17.9478847,16.4002196 L16.6121518,16.4002196 L16.6121518,19.1046104 L16.6121518,19.1046104 Z M17.9478847,16.4002659 L16.6121518,16.4002659 L16.6121518,19.1046566 L17.9478847,19.1046566 L17.9478847,16.4002659 L17.9478847,16.4002659 Z M22.6018397,4.75729335 C22.6018397,7.3847662 24.7061874,9.51467928 27.300897,9.51467928 C29.8956523,9.51467928 32,7.38481247 32,4.75729335 C32,2.12977424 29.8956523,0 27.300897,0 C24.7061874,0 22.6018397,2.12977424 22.6018397,4.75729335 L22.6018397,4.75729335 Z M0,27.1583124 C0,30.3846526 2.58423451,33 5.77003137,33 C8.95591975,33 11.5400627,30.3846526 11.5400627,27.1583124 C11.5400627,23.9327126 8.95591975,21.3173652 5.77003137,21.3173652 C2.58418873,21.3173652 0,23.9327126 0,27.1583124 L0,27.1583124 Z M2.15699753,5.85682131 C2.15699753,7.87709627 3.77551188,9.51463302 5.7699856,9.51463302 C7.76455078,9.51463302 9.38306517,7.87709632 9.38306517,5.85682131 C9.38306517,3.83663887 7.76459655,2.1990096 5.7699856,2.1990096 C3.77551193,2.1990096 2.15699753,3.83663887 2.15699753,5.85682131 L2.15699753,5.85682131 Z M23.6878174,27.1583124 C23.6878174,29.1785873 25.3063318,30.8168646 27.3008512,30.8168646 C29.2953707,30.8168646 30.9138393,29.1786336 30.9138393,27.1583124 L30.9138393,27.1583124 C30.9138393,25.1388241 29.2953707,23.5005006 27.3008512,23.5005006 C25.3063318,23.5005006 23.6878174,25.1388241 23.6878174,27.1583124 L23.6878174,27.1583124 L23.6878174,27.1583124 Z" id="形状"></path>
                        </g>
                    </g>
                </g>
            </g>
        </g>
    </g>
</svg>