<?xml version="1.0" encoding="UTF-8"?>
<svg width="32px" height="32px" viewBox="0 0 32 32" version="1.1" xmlns="http://www.w3.org/2000/svg" xmlns:xlink="http://www.w3.org/1999/xlink">
    <title>编组</title>
    <g id="控件" stroke="none" stroke-width="1" fill="none" fill-rule="evenodd">
        <g id="大组件/日报卡片" transform="translate(-96.000000, -108.000000)" fill="#35C58B" fill-rule="nonzero">
            <g id="编组-7" transform="translate(24.000000, 24.000000)">
                <g id="编组-5" transform="translate(72.000000, 78.000000)">
                    <g id="编组" transform="translate(0.000000, 6.000000)">
                        <path d="M29.305877,13.8782822 C28.9609737,13.8802604 28.6309987,14.0193752 28.3886183,14.264991 C28.1462378,14.5106067 28.0113294,14.8425807 28.0136024,15.1878062 L28.0136024,16.5069512 C28.0256583,19.9166381 26.6850619,23.1916899 24.286298,25.6126861 C21.9213305,28.0278294 18.6830651,29.3860186 15.3044555,29.3798392 L15.2937756,29.3798392 C10.1240604,29.3025203 5.4996869,26.1436686 3.54336693,21.3532821 C1.58704695,16.5628955 2.67661624,11.0661699 6.31193318,7.38625028 C8.68108544,4.97080484 11.9227001,3.61282558 15.3044555,3.61909719 C17.087261,3.61704363 18.8498269,3.99722623 20.4735539,4.73406333 C20.7878681,4.87480548 21.145373,4.88382939 21.4663748,4.75912347 C21.7873767,4.63441755 22.045191,4.38634841 22.1823468,4.07021484 C22.4736902,3.41264315 22.1835315,2.64276189 21.5308695,2.34164318 C19.5777303,1.45745692 17.4587471,1.00002454 15.3151355,1.00002454 L15.3044555,1.00002454 C11.2358778,0.992697489 7.33596192,2.62657532 4.48566084,5.5326057 C-1.49106183,11.6134085 -1.49581376,21.3668681 4.47498088,27.4535027 C7.32296508,30.3646388 11.2231726,32.0036488 15.2937756,31.9999781 L15.3044555,31.9999781 C19.3702476,32.006895 23.2669491,30.3719798 26.1125703,27.4652617 C29.0005556,24.5529389 30.6141197,20.6113737 30.598269,16.5080202 L30.598269,15.1878062 C30.6004245,14.8425807 30.4655162,14.5106067 30.2231357,14.264991 C29.9807553,14.0193752 29.6507802,13.8802605 29.305877,13.8782822 Z M29.305877,13.8782822 L31.6234273,2.80986482 C31.3825421,2.56503256 31.0535927,2.42717011 30.7102911,2.42717011 C30.3669895,2.42717011 30.0380401,2.56503256 29.7971549,2.80986482 L15.3044545,17.4936374 L12.0150293,14.162636 C11.7741441,13.9178037 11.4451947,13.7799413 11.1018931,13.7799413 C10.7585915,13.7799413 10.4296421,13.9178037 10.188757,14.162636 C9.9427511,14.4077825 9.80445449,14.7409278 9.80445449,15.0883893 C9.80445449,15.4358508 9.9427511,15.768996 10.188757,16.0141426 L14.3859794,20.2719663 C14.6292734,20.516603 14.9595997,20.6546246 15.3044545,20.6557407 C15.6465759,20.6565676 15.9743058,20.5180198 16.2122518,20.2719663 L31.6234273,4.66457839 C32.1255242,4.14930627 32.1255242,3.32727492 31.6234273,2.8120028 L29.305877,13.8782822 Z" id="形状"></path>
                    </g>
                </g>
            </g>
        </g>
    </g>
</svg>