<?xml version="1.0" encoding="UTF-8"?>
<svg width="48px" height="48px" viewBox="0 0 48 48" version="1.1" xmlns="http://www.w3.org/2000/svg" xmlns:xlink="http://www.w3.org/1999/xlink">
    <title>下午</title>
    <g id="页面-1" stroke="none" stroke-width="1" fill="none" fill-rule="evenodd">
        <g id="3-工作台-工作上报（队员）" transform="translate(-56.000000, -541.000000)" fill-rule="nonzero">
            <g id="编组-3备份-2" transform="translate(32.000000, 496.000000)">
                <g id="编组-2" transform="translate(24.000000, 44.000000)">
                    <g id="下午" transform="translate(0.000000, 1.000000)">
                        <path d="M0,24 C0,37.254834 10.745166,48 24,48 C37.254834,48 48,37.254834 48,24 C48,10.745166 37.254834,0 24,0 C10.745166,0 0,10.745166 0,24 Z" id="路径" fill="#F98212"></path>
                        <path d="M38.0366056,14.5 L9.96339433,14.5 C9.30582361,14.5 8.8,15.0181818 8.8,15.6350649 C8.8,16.2766234 9.33111481,16.7701299 9.96339433,16.7701299 L14.1617305,16.7701299 C14.4146423,21.8532467 18.7394343,25.9 24,25.9 C29.2605657,25.9 33.5853577,21.8532467 33.8382695,16.7701299 L38.0366056,16.7701299 C38.6941764,16.7701299 39.2,16.251948 39.2,15.6350649 C39.2,15.0181818 38.6688852,14.5 38.0366056,14.5 L38.0366056,14.5 Z M24.0128162,24 C19.9885329,24 16.6819562,21.0577338 16.4,17.35 L31.6,17.35 C31.3436762,21.0577338 28.0370995,24 24.0128162,24 Z M23.524469,27.8 C22.7193343,27.8 22.1,28.2768924 22.1,28.8446215 L22.1,32.4553785 C22.1,33.0458167 22.7503011,33.5 23.524469,33.5 C24.3296037,33.5 24.948938,33.0231076 24.9489381,32.4553785 L24.9489381,28.8673307 C24.9799048,28.2768924 24.3296037,27.8 23.524469,27.8 Z M34.3689024,25.2635697 C33.9518292,24.8454768 33.279878,24.8454768 32.8628049,25.2635697 C32.4457317,25.6816626 32.4457317,26.3552567 32.8628049,26.7733496 L35.4579268,29.3748166 C35.6664634,29.5838631 35.9445122,29.7 36.222561,29.7 C36.5006098,29.7 36.7786585,29.5838631 36.9871951,29.3748166 C37.4042683,28.9567237 37.4042683,28.2831296 36.9871951,27.8650367 L34.3689024,25.2635697 Z M13.6079268,25.2635697 L11.0128049,27.8650367 C10.5957317,28.2831296 10.5957317,28.9567237 11.0128049,29.3748166 C11.2213415,29.5838631 11.4993902,29.7 11.777439,29.7 C12.0554878,29.7 12.3335366,29.5838631 12.5420732,29.3748166 L15.1371951,26.7733496 C15.5542683,26.3552567 15.5542683,25.6816626 15.1371951,25.2635697 C14.7201219,24.8454768 14.025,24.8454768 13.6079268,25.2635697 L13.6079268,25.2635697 Z" id="形状" fill="#FFFFFF"></path>
                    </g>
                </g>
            </g>
        </g>
    </g>
</svg>