<?xml version="1.0" encoding="UTF-8"?>
<svg width="80px" height="82px" viewBox="0 0 80 82" version="1.1" xmlns="http://www.w3.org/2000/svg" xmlns:xlink="http://www.w3.org/1999/xlink">
    <title>审批管理</title>
    <g id="页面-1" stroke="none" stroke-width="1" fill="none" fill-rule="evenodd">
        <g id="3-工作台" transform="translate(-335.000000, -1114.000000)">
            <g id="我的任务备份-2" transform="translate(24.000000, 998.000000)">
                <g id="编组-2" transform="translate(234.000000, 81.000000)">
                    <g id="审批管理" transform="translate(77.000000, 35.500000)">
                        <rect id="矩形" x="0" y="0.5" width="80" height="80"></rect>
                        <g transform="translate(9.000000, 5.500000)">
                            <path d="M26,2.11769 C29.34152,0.1884572 33.45848,0.1884572 36.8,2.11769 L57.1769,13.88231 C60.51842,15.81155 62.5769,19.3769 62.5769,23.23538 L62.5769,46.76462 C62.5769,50.6231 60.51842,54.18854 57.1769,56.1176 L36.8,67.88222 C33.45848,69.81146 29.34152,69.81146 26,67.88222 L5.623082,56.1176 C2.281544,54.18854 0.223082,50.6231 0.223082,46.76462 L0.223082,23.23538 C0.223082,19.3769 2.281544,15.81155 5.623082,13.88231 L26,2.11769 Z" id="路径" fill="#35C58B" fill-rule="nonzero"></path>
                            <path d="M42.62256,23.11886 L35.62758,23.11886 C35.01198,21.29456 33.3891,20 31.43052,20 C29.47194,20 27.84906,21.29456 27.23346,23.11886 L20.23848,23.11886 C19.17522,23.11886 18.05598,24.00158 18,25.41386 L18,48.24614 C18,49.77614 19.2312,50.6 20.23848,50.6 L42.62256,50.6 C43.68582,50.6 44.86104,49.71728 44.86104,48.24614 L44.86104,25.47272 C44.86104,23.94272 43.62984,23.11886 42.62256,23.11886 Z M31.43052,22.35386 C32.66172,22.35386 33.669,23.41316 33.669,24.70772 C33.669,26.00228 32.66172,27.06158 31.43052,27.06158 C30.19932,27.06158 29.19204,26.00228 29.19204,24.70772 C29.19204,23.41316 30.19932,22.35386 31.43052,22.35386 Z" id="形状" fill="#FFFFFF"></path>
                            <path d="M25.52472,36.07256 C25.02828,35.5565 24.22188,35.55506 23.72364,36.06932 C23.2254,36.5834 23.22396,37.4186 23.7204,37.93448 L28.17288,42.5621 C28.66734,43.076 29.4696,43.07978 29.96874,42.57074 L38.76156,33.60188 C39.26268,33.09068 39.2688,32.25548 38.77524,31.73654 C38.28168,31.2176 37.47528,31.2113 36.97416,31.7225 L29.0835,39.7712 L25.52472,36.07256 Z" id="路径" fill="#2AB27B" fill-rule="nonzero"></path>
                        </g>
                    </g>
                </g>
            </g>
        </g>
    </g>
</svg>