<?xml version="1.0" encoding="UTF-8"?>
<svg width="80px" height="80px" viewBox="0 0 80 80" version="1.1" xmlns="http://www.w3.org/2000/svg" xmlns:xlink="http://www.w3.org/1999/xlink">
    <title>日常巡逻</title>
    <g id="页面-1" stroke="none" stroke-width="1" fill="none" fill-rule="evenodd">
        <g id="3-工作台" transform="translate(-335.000000, -262.000000)">
            <g id="我的任务" transform="translate(24.000000, 144.000000)">
                <g id="编组-5" transform="translate(234.000000, 81.000000)">
                    <g id="日常巡逻" transform="translate(77.000000, 37.000000)">
                        <rect id="矩形" x="0" y="0" width="80" height="80"></rect>
                        <path d="M35.25,8.0310875 C38.4987,6.1554445 42.5013,6.1554445 45.75,8.0310875 L65.560875,19.4689125 C68.809575,21.3445625 70.810875,24.810875 70.810875,28.562175 L70.810875,51.437825 C70.810875,55.189125 68.809575,58.655525 65.560875,60.531 L45.75,71.968825 C42.5013,73.844475 38.4987,73.844475 35.25,71.968825 L15.4391075,60.531 C12.19039,58.655525 10.1891075,55.189125 10.1891075,51.437825 L10.1891075,28.562175 C10.1891075,24.810875 12.19039,21.3445625 15.4391075,19.4689125 L35.25,8.0310875 Z" id="路径" fill="#FDB205" fill-rule="nonzero"></path>
                        <path d="M50.2384,55.75 C52.388975,55.75 54.1731,54.117425 54.1731,52.051025 C54.1731,49.9848 52.388975,48.352225 50.2384,48.352225 L28.6847,48.352225 C27.876375,48.352225 27.263,47.7882 27.263,47.141575 C27.263,46.4988 27.876375,45.930925 28.6847,45.930925 L33.149125,45.930925 C33.842125,45.930925 34.4037,45.37495 34.4037,44.688775 C34.387775,43.98685 33.8262,43.42685 33.149125,43.4426 L28.6847,43.4426 C26.534125,43.4426 24.75,45.075175 24.75,47.141575 C24.75,49.207975 26.534125,50.840375 28.6847,50.840375 L50.234375,50.840375 C51.042875,50.840375 51.6601,51.4044 51.6601,52.051025 C51.6601,52.6938 51.046725,53.261675 50.234375,53.261675 L32.25715,53.261675 C31.580075,53.245925 31.0185,53.8019 31.002575,54.503825 C31.002575,55.19 31.56415,55.75 32.25715,55.75 L50.2384,55.75 Z M40.644375,24.2499718 C36.092275,24.238275 32.4045,27.889825 32.392425,32.397125 C32.392425,35.7412 36.9566,41.999375 39.30615,44.988375 C39.963275,45.721975 41.0943,45.789 41.835075,45.1422 L41.990475,44.988375 C44.336175,41.999375 48.9042,35.75695 48.9042,32.397125 C48.888275,27.889825 45.196475,24.24615 40.644375,24.2499718 Z M40.644375,36.9991 C39.4178,36.9991 38.24285,36.518025 37.374675,35.658425 C36.5065,34.79865 36.0207,33.635425 36.0207,32.42075 C36.0207,31.20625 36.5065,30.04285 37.374675,29.187275 C38.24285,28.331525 39.4178,27.85045 40.644375,27.8542771 C43.1614,27.8977 45.18055,29.932425 45.18055,32.428625 C45.18055,34.920975 43.1614,36.9557 40.644375,36.9991 Z" id="形状" fill="#FFFFFF"></path>
                    </g>
                </g>
            </g>
        </g>
    </g>
</svg>