<?xml version="1.0" encoding="UTF-8"?>
<svg width="80px" height="80px" viewBox="0 0 80 80" version="1.1" xmlns="http://www.w3.org/2000/svg" xmlns:xlink="http://www.w3.org/1999/xlink">
    <title>紧急调配</title>
    <g id="页面-1" stroke="none" stroke-width="1" fill="none" fill-rule="evenodd">
        <g id="3-工作台" transform="translate(-569.000000, -262.000000)">
            <g id="我的任务" transform="translate(24.000000, 144.000000)">
                <g id="编组-4" transform="translate(468.000000, 81.000000)">
                    <g id="紧急调配" transform="translate(77.000000, 37.000000)">
                        <rect id="矩形" x="0" y="0" width="80" height="80"></rect>
                        <path d="M35,7.11769 C38.34152,5.1884572 42.45848,5.1884572 45.8,7.11769 L66.1769,18.88231 C69.51842,20.81155 71.5769,24.3769 71.5769,28.23538 L71.5769,51.76462 C71.5769,55.6231 69.51842,59.18854 66.1769,61.1176 L45.8,72.88222 C42.45848,74.81146 38.34152,74.81146 35,72.88222 L14.623082,61.1176 C11.281544,59.18854 9.223082,55.6231 9.223082,51.76462 L9.223082,28.23538 C9.223082,24.3769 11.281544,20.81155 14.623082,18.88231 L35,7.11769 Z" id="路径" fill="#35C48B" fill-rule="nonzero"></path>
                        <g transform="translate(25.899991, 22.500000)" fill="#FFFFFF" id="形状">
                            <path d="M22.3079499,21.292504 C23.3882977,20.8280702 24.5957454,21.0271132 25.5489935,21.6905901 L24.786395,22.9511962 L28.0909884,22.9511962 L26.8835408,19.3684211 L26.2480421,20.3636364 C24.9134947,19.4347687 23.1976481,19.2357257 21.6724511,19.8328549 C19.5753053,20.6953748 18.3043078,22.8848485 18.5585073,25.2070175 L20.0201544,25.2070175 C19.8930547,23.5483254 20.7827529,21.9559809 22.3079499,21.292504 L22.3079499,21.292504 Z M28.5993874,24.3444976 L27.1377403,24.3444976 C27.3919398,26.0031898 26.5022416,27.661882 24.9770446,28.2590112 C23.9602466,28.6570973 22.8163489,28.5244019 21.8631008,27.9272727 C22.0537504,27.661882 22.4985995,26.799362 22.4985995,26.799362 L18.9398066,26.600319 L20.4650035,30.3157895 L21.1005023,29.2542265 C22.4350496,30.1167464 24.0237965,30.3157895 25.4854436,29.7186603 C27.5825894,28.8561404 28.8535869,26.6666667 28.5993874,24.3444976 Z"></path>
                            <path d="M17.15196,25.4308943 C17.15196,22.7642276 18.6462596,20.4227642 20.8552241,19.3170732 C21.2450414,19.1219512 21.1800718,18.601626 20.7902546,18.4065041 C19.5558332,17.8861789 18.2564423,17.6910569 16.8920818,17.6910569 L10.5900359,17.6910569 C4.74277682,17.6910569 0,22.4390244 0,28.2926829 L0,28.9430894 C0,32 4.67780728,32 10.5900359,32 L19.6857723,32 C20.1405591,32 20.3354677,31.3495935 19.9456505,31.0894309 C18.3214118,29.7886179 17.15196,27.7073171 17.15196,25.4308943 L17.15196,25.4308943 Z M13.5136655,16.8455285 C18.1265032,16.8455285 21.8947368,13.0731707 21.8947368,8.45528455 C21.8947368,3.83739837 18.1265032,0 13.5136655,0 C8.90082774,0 5.1325941,3.77235772 5.1325941,8.3902439 C5.1325941,13.0081301 8.90082774,16.8455285 13.5136655,16.8455285 Z"></path>
                        </g>
                    </g>
                </g>
            </g>
        </g>
    </g>
</svg>