<?xml version="1.0" encoding="UTF-8"?>
<svg width="80px" height="80px" viewBox="0 0 80 80" version="1.1" xmlns="http://www.w3.org/2000/svg" xmlns:xlink="http://www.w3.org/1999/xlink">
    <title>假期管理</title>
    <g id="页面-1" stroke="none" stroke-width="1" fill="none" fill-rule="evenodd">
        <g id="3-工作台" transform="translate(-101.000000, -1432.000000)">
            <g id="我的任务备份-3" transform="translate(24.000000, 1315.000000)">
                <g id="编组-6" transform="translate(0.000000, 81.000000)">
                    <g id="假期管理" transform="translate(77.000000, 36.000000)">
                        <rect id="矩形" x="0" y="0" width="80" height="80"></rect>
                        <g transform="translate(9.000000, 6.000000)" fill-rule="nonzero">
                            <path d="M26.0440481,1.45412389 C29.4201968,-0.484707964 33.5798214,-0.484707964 36.9559701,1.45412389 L57.544039,13.2772797 C60.9201877,15.2161188 63,18.7992085 63,22.6768867 L63,46.3231983 C63,50.2008765 60.9201877,53.7840567 57.544039,55.7227149 L36.9559701,67.5458707 C33.5798214,69.4847098 29.4201968,69.4847098 26.0440481,67.5458707 L5.45596101,55.7227149 C2.07979415,53.7840567 0,50.2008765 0,46.3231983 L0,22.6768867 C0,18.7992085 2.07979415,15.2161188 5.45596101,13.2772797 L26.0440481,1.45412389 Z" id="路径" fill="#539CF8"></path>
                            <g id="编组" transform="translate(14.000000, 19.000000)" fill="#FFFFFF">
                                <path d="M30.504,0.246031746 C31,0.492063492 31,0.984126984 31,1.23015873 L26.536,27.8015873 C26.536,28.047619 26.288,28.2936508 26.04,28.5396825 C25.792,28.5396825 25.792,28.7857143 25.544,28.7857143 L25.048,28.7857143 L17.112,25.3412698 L12.896,30.5079365 C12.648,30.7539683 12.4,31 12.152,31 L11.656,31 C11.408,31 11.16,30.7539683 11.16,30.5079365 C10.912,30.2619048 10.912,30.015873 10.912,29.7698413 L10.912,23.8650794 L25.792,5.65873016 L7.192,21.6507937 L0.496,18.6984127 C0.248,18.452381 0,18.2063492 0,17.7142857 C0,17.2222222 0.248,16.9761905 0.496,16.7301587 L29.264,0.246031746 C29.512,0.246031746 29.512,0 29.76,0 C30.008,0.246031746 30.256,0.246031746 30.504,0.246031746 Z" id="路径"></path>
                            </g>
                        </g>
                    </g>
                </g>
            </g>
        </g>
    </g>
</svg>