<?xml version="1.0" encoding="UTF-8"?>
<svg width="48px" height="48px" viewBox="0 0 48 48" version="1.1" xmlns="http://www.w3.org/2000/svg" xmlns:xlink="http://www.w3.org/1999/xlink">
    <title>晚上</title>
    <g id="页面-1" stroke="none" stroke-width="1" fill="none" fill-rule="evenodd">
        <g id="3-工作台-工作上报（队员）" transform="translate(-56.000000, -705.000000)" fill-rule="nonzero">
            <g id="编组-3备份-3" transform="translate(32.000000, 660.000000)">
                <g id="编组-2" transform="translate(24.000000, 44.000000)">
                    <g id="晚上" transform="translate(0.000000, 1.000000)">
                        <path d="M0,24 C0,37.254834 10.745166,48 24,48 C37.254834,48 48,37.254834 48,24 C48,10.745166 37.254834,0 24,0 C10.745166,0 0,10.745166 0,24 Z" id="路径" fill="#359CFF"></path>
                        <path d="M28.6142857,20.076555 C27.4571428,18.9138756 26.1714286,18.3971292 24.5,18.3971292 C22.8285714,18.3971292 21.5428571,18.9138756 20.3857143,20.076555 C19.2285714,21.2392345 18.7142857,22.5311005 18.7142857,24.2105263 C18.7142857,26.5358851 19.6142857,28.0861244 21.5428571,29.2488038 L22.5714286,29.8947368 L22.5714286,35.1913876 L26.4285714,35.1913876 L26.4285714,29.7655502 L27.4571428,29.1196172 C28.3571428,28.6028708 29,27.9569378 29.5142857,27.0526316 C30.0285714,26.1483254 30.2857143,25.1148325 30.2857143,24.0813397 C30.2857143,22.5311005 29.7714286,21.2392344 28.6142857,20.076555 L28.6142857,20.076555 Z M25.7857143,10 L25.7857143,13.8755981 L23.2142857,13.8755981 L23.2142857,10 L25.7857143,10 Z M33.5,13.2296651 L35.3,15.0382775 L32.9857143,17.3636364 L31.1857143,15.5550239 L33.5,13.2296651 Z M15.5,13.2296651 L17.8142857,15.5550239 L15.8857143,17.3636364 L13.7,15.0382775 L15.5,13.2296651 Z M19.1,18.6555024 C20.6428571,17.1052632 22.4428571,16.3301435 24.5,16.3301435 C26.5571429,16.3301435 28.3571429,17.1052632 29.9,18.6555024 C31.4428571,20.2057416 32.2142857,22.014354 32.2142857,24.0813397 C32.2142857,27.0526316 30.9285714,29.2488038 28.3571428,30.7990431 L28.3571428,37 L20.6428571,37 L20.6428571,30.7990431 C19.4857143,30.1531101 18.5857143,29.1196172 17.8142857,27.9569378 C17.0428571,26.7942584 16.7857143,25.5023924 16.7857143,24.0813397 C16.7857143,22.014354 17.5571428,20.2057416 19.1,18.6555024 Z M38,22.9186603 L38,25.5023924 L34.1428571,25.5023924 L34.1428571,22.9186603 L38,22.9186603 L38,22.9186603 Z M14.8571428,22.9186603 L14.8571428,25.5023924 L11,25.5023924 L11,22.9186603 L14.8571428,22.9186603 L14.8571428,22.9186603 Z" id="形状" fill="#FFFFFF"></path>
                    </g>
                </g>
            </g>
        </g>
    </g>
</svg>