<svg width="50" height="64" viewBox="0 0 50 64" fill="none" xmlns="http://www.w3.org/2000/svg">
<g clip-path="url(#clip0)">
<path fill-rule="evenodd" clip-rule="evenodd" d="M12 46H38V64L25 56.724L12 64V46Z" fill="#FDC672"/>
<g filter="url(#filter0_di)">
<path fill-rule="evenodd" clip-rule="evenodd" d="M25 50C38.8071 50 50 38.8071 50 25C50 11.1929 38.8071 0 25 0C11.1929 0 0 11.1929 0 25C0 38.8071 11.1929 50 25 50Z" fill="#FFD49C"/>
</g>
<path fill-rule="evenodd" clip-rule="evenodd" d="M25 46C36.598 46 46 36.598 46 25C46 13.402 36.598 4 25 4C13.402 4 4 13.402 4 25C4 36.598 13.402 46 25 46Z" fill="#F69208"/>
<path fill-rule="evenodd" clip-rule="evenodd" d="M25 45C36.0457 45 45 36.0457 45 25C45 13.9543 36.0457 5 25 5C13.9543 5 5 13.9543 5 25C5 36.0457 13.9543 45 25 45Z" fill="#FFA70A"/>
<path opacity="0.57952" fill-rule="evenodd" clip-rule="evenodd" d="M25.5 22.8964C32.4036 22.8964 38 24.136 38 18.0392C38 11.9424 32.4036 7 25.5 7C18.5964 7 13 11.9424 13 18.0392C13 24.136 18.5964 22.8964 25.5 22.8964Z" fill="url(#paint0_linear)"/>
<path fill-rule="evenodd" clip-rule="evenodd" d="M25 12C26.1046 12 27 11.5523 27 11C27 10.4477 26.1046 10 25 10C23.8954 10 23 10.4477 23 11C23 11.5523 23.8954 12 25 12Z" fill="white"/>
<path fill-rule="evenodd" clip-rule="evenodd" d="M25.5 43.4624C29.0899 43.4624 32 42.1193 32 40.4624C32 38.8056 29.0899 39.0078 25.5 39.0078C21.9101 39.0078 19 38.8056 19 40.4624C19 42.1193 21.9101 43.4624 25.5 43.4624Z" fill="url(#paint1_linear)"/>
<path d="M25.424 15.152C24.656 15.984 23.696 16.72 22.544 17.424C21.392 18.064 20.336 18.512 19.312 18.768V22.224C21.424 21.616 23.184 20.656 24.56 19.344V38H28.048V15.152H25.424Z" fill="white"/>
</g>
<defs>
<filter id="filter0_di" x="-4" y="-2" width="58" height="58" filterUnits="userSpaceOnUse" color-interpolation-filters="sRGB">
<feFlood flood-opacity="0" result="BackgroundImageFix"/>
<feColorMatrix in="SourceAlpha" type="matrix" values="0 0 0 0 0 0 0 0 0 0 0 0 0 0 0 0 0 0 127 0"/>
<feOffset dy="2"/>
<feGaussianBlur stdDeviation="2"/>
<feColorMatrix type="matrix" values="0 0 0 0 0.943699 0 0 0 0 0.466846 0 0 0 0 0.144036 0 0 0 0.5 0"/>
<feBlend mode="normal" in2="BackgroundImageFix" result="effect1_dropShadow"/>
<feBlend mode="normal" in="SourceGraphic" in2="effect1_dropShadow" result="shape"/>
<feColorMatrix in="SourceAlpha" type="matrix" values="0 0 0 0 0 0 0 0 0 0 0 0 0 0 0 0 0 0 127 0" result="hardAlpha"/>
<feOffset dy="1"/>
<feGaussianBlur stdDeviation="1.5"/>
<feComposite in2="hardAlpha" operator="arithmetic" k2="-1" k3="1"/>
<feColorMatrix type="matrix" values="0 0 0 0 1 0 0 0 0 0.603847 0 0 0 0 0.230316 0 0 0 0.32594 0"/>
<feBlend mode="normal" in2="shape" result="effect2_innerShadow"/>
</filter>
<linearGradient id="paint0_linear" x1="13" y1="7" x2="13" y2="23" gradientUnits="userSpaceOnUse">
<stop stop-color="#FFE59F"/>
<stop offset="1" stop-color="#FEC666" stop-opacity="0.311107"/>
</linearGradient>
<linearGradient id="paint1_linear" x1="19" y1="39" x2="19" y2="43.4624" gradientUnits="userSpaceOnUse">
<stop stop-color="#FFE07C" stop-opacity="0.01"/>
<stop offset="1" stop-color="#FFBD46"/>
</linearGradient>
<clipPath id="clip0">
<rect width="50" height="64" fill="white"/>
</clipPath>
</defs>
</svg>
