<?xml version="1.0" encoding="UTF-8"?>
<svg width="48px" height="48px" viewBox="0 0 48 48" version="1.1" xmlns="http://www.w3.org/2000/svg" xmlns:xlink="http://www.w3.org/1999/xlink">
    <title>Group 38</title>
    <g id="页面-1" stroke="none" stroke-width="1" fill="none" fill-rule="evenodd">
        <g id="3-工作台-工作上报（领导）" transform="translate(-56.000000, -177.000000)" fill-rule="nonzero">
            <g id="大组件/日报卡片" transform="translate(32.000000, 152.000000)">
                <g id="编组-7" transform="translate(24.000000, 24.000000)">
                    <g id="Group-38" transform="translate(0.000000, 1.000000)">
                        <circle id="椭圆形" fill="#F8FAFF" cx="24" cy="24" r="24"></circle>
                        <path d="M24.0000532,0 C10.74514,0 0,10.7452263 0,23.9999855 C0,37.2548197 10.745215,48 24.0000532,48 C37.2548165,48 48,37.2548197 48,23.9999855 C48,10.7452263 37.2548165,0 24.0000532,0 Z M38.9179437,42.3857378 C36.867181,43.9178276 31.142732,47.6545185 24.1091132,47.6394877 C16.1405338,47.6560186 10.1780131,43.1484074 8.79308632,42.004028 C8.59424312,41.839763 8.48525815,41.5924654 8.49418396,41.3348169 C8.68447638,35.8275145 12.7172205,31.1517379 18.3626872,29.2272874 C18.9875694,29.0142679 19.1228068,28.1915179 18.5970837,27.7920314 C16.4062082,26.1271796 14.9790525,23.4081815 14.9790525,20.3362763 C14.9790525,15.269639 18.8608828,11.1622643 23.6494712,11.1622643 C28.4379845,11.1622643 32.3198148,15.269639 32.3198148,20.3362763 C32.3198148,23.2940961 30.9968437,25.9248111 28.9428557,27.6024141 C28.4322839,28.0194522 28.596474,28.8386019 29.2281068,29.0272441 C34.9641818,30.7400254 39.1824929,35.2501118 39.6814386,40.6628306 C39.7430942,41.3309166 39.4553679,41.9842262 38.9179437,42.3857378 Z" id="形状" fill="#E4EAF2"></path>
                    </g>
                </g>
            </g>
        </g>
    </g>
</svg>