<?xml version="1.0" encoding="UTF-8"?>
<svg width="48px" height="48px" viewBox="0 0 48 48" version="1.1" xmlns="http://www.w3.org/2000/svg" xmlns:xlink="http://www.w3.org/1999/xlink">
    <title>早晨</title>
    <g id="页面-1" stroke="none" stroke-width="1" fill="none" fill-rule="evenodd">
        <g id="3-工作台-工作上报（队员）" transform="translate(-56.000000, -213.000000)" fill-rule="nonzero">
            <g id="编组-3" transform="translate(32.000000, 168.000000)">
                <g id="编组-2" transform="translate(24.000000, 44.000000)">
                    <g id="早晨" transform="translate(0.000000, 1.000000)">
                        <path d="M0,24 C0,37.254834 10.745166,48 24,48 C37.254834,48 48,37.254834 48,24 C48,10.745166 37.254834,0 24,0 C10.745166,0 0,10.745166 0,24 Z" id="路径" fill="#20C26B"></path>
                        <path d="M31.6363636,33.8181818 C32.2388561,33.8181818 32.7272727,34.3065984 32.7272727,34.9090909 C32.7272727,35.5115834 32.2388561,36 31.6363636,36 L16.3636364,36 C15.7611439,36 15.2727273,35.5115834 15.2727273,34.9090909 C15.2727273,34.3065984 15.7611439,33.8181818 16.3636364,33.8181818 L31.6363636,33.8181818 Z M24,19.6778182 C29.2739569,19.6860282 33.6187964,23.8209118 33.888,29.088 L38.0989091,29.088 C38.7477935,29.088 39.2738182,29.6140247 39.2738182,30.2629091 C39.2738182,30.9117935 38.7477935,31.4378182 38.0989091,31.4378182 L9.90109092,31.4378182 C9.25220654,31.4378182 8.72618182,30.9117935 8.72618182,30.2629091 C8.72618182,29.6140247 9.25220654,29.088 9.90109092,29.088 L14.112,29.088 C14.382323,23.8217712 18.726844,19.6881493 24,19.68 L24,19.6778182 Z M24,22.0276364 C20.0224145,22.0347071 16.7289722,25.11939 16.4618182,29.088 L31.5381818,29.088 C31.2710278,25.11939 27.9775855,22.0347071 24,22.0276364 Z M36.2247273,16.8087136 C36.7009227,16.8064328 37.1311356,17.0925859 37.3130992,17.5326503 C37.4950627,17.9727147 37.3925738,18.4791362 37.0538182,18.8138182 L34.2043636,21.6654546 C33.9077682,21.96205 33.475471,22.0778837 33.0703142,21.9693222 C32.6651573,21.8607608 32.3486938,21.5442973 32.2401323,21.1391404 C32.1315709,20.7339835 32.2474046,20.3016863 32.544,20.0050909 L35.3956364,17.1534546 C35.6152561,16.9330052 35.9135509,16.8089773 36.2247273,16.8087136 L36.2247273,16.8087136 Z M11.7752727,16.8087273 C12.0763636,16.8087273 12.3774545,16.9221818 12.6043636,17.1534546 L15.4581818,20.0050909 C15.7547772,20.3016863 15.8706109,20.7339835 15.7620494,21.1391404 C15.653488,21.5442972 15.3370245,21.8607607 14.9318676,21.9693222 C14.5267108,22.0778836 14.0944136,21.96205 13.7978182,21.6654546 L10.944,18.8138182 C10.605653,18.4782775 10.5037296,17.9714854 10.6860527,17.5312303 C10.8683757,17.0909752 11.2987619,16.8046287 11.7752727,16.8065359 L11.7752727,16.8087273 Z M23.856,12 C24.504,12 25.0298182,12.5236364 25.0298182,13.1738182 L25.0298182,17.208 C25.0298182,17.8568844 24.5037935,18.3829091 23.8549091,18.3829091 C23.2060247,18.3829091 22.68,17.8568844 22.68,17.208 L22.68,13.1738182 C22.68,12.5258182 23.2058182,12 23.856,12 L23.856,12 Z" id="形状" fill="#FFFFFF"></path>
                    </g>
                </g>
            </g>
        </g>
    </g>
</svg>