<?xml version="1.0" encoding="UTF-8"?>
<svg width="80px" height="80px" viewBox="0 0 80 80" version="1.1" xmlns="http://www.w3.org/2000/svg" xmlns:xlink="http://www.w3.org/1999/xlink">
    <title>定点集合</title>
    <g id="页面-1" stroke="none" stroke-width="1" fill="none" fill-rule="evenodd">
        <g id="3-工作台" transform="translate(-101.000000, -481.000000)">
            <g id="我的任务" transform="translate(24.000000, 144.000000)">
                <g id="编组-6" transform="translate(0.000000, 301.000000)">
                    <g id="定点集合" transform="translate(77.000000, 36.000000)">
                        <rect id="矩形" x="0" y="0" width="80" height="80"></rect>
                        <path d="M35,7.61769 C38.34152,5.6884572 42.45848,5.6884572 45.8,7.61769 L66.1769,19.38231 C69.51842,21.31155 71.5769,24.8769 71.5769,28.73538 L71.5769,52.26462 C71.5769,56.1231 69.51842,59.68854 66.1769,61.6176 L45.8,73.38222 C42.45848,75.31146 38.34152,75.31146 35,73.38222 L14.623082,61.6176 C11.281544,59.68854 9.223082,56.1231 9.223082,52.26462 L9.223082,28.73538 C9.223082,24.8769 11.281544,21.31155 14.623082,19.38231 L35,7.61769 Z" id="路径" fill="#539CF8" fill-rule="nonzero"></path>
                        <g transform="translate(24.399991, 23.000000)" fill="#FFFFFF">
                            <path d="M3.32579524,22.974359 L27.8937665,22.974359 C28.3229014,22.974359 28.7520362,23.292911 28.8593199,23.7176471 L31.112278,30.5134238 C31.3268454,31.0443439 31.0049943,31.681448 30.4685757,31.893816 C30.361292,31.893816 30.2540082,32 30.1467245,32 L1.07283719,32 C0.429134877,32 0,31.5752639 0,30.9381599 C0,30.8319759 0,30.7257919 0.107283738,30.6196078 L2.36024179,23.8238311 C2.46752549,23.186727 2.89666036,22.974359 3.32579524,22.974359 Z" id="路径" opacity="0.498767671"></path>
                            <path d="M16,27.0769231 C8.65088756,20.2815563 4.92307692,14.8452628 4.92307692,10.8725869 C4.92307692,4.80902883 9.92899409,0 16,0 C22.0710059,0 27.0769231,4.80902879 27.0769231,10.8725869 C27.0769231,14.8452629 23.3491124,20.2815563 16,27.0769231 Z M16,15.1588952 C18.4497041,15.1588952 20.3668639,13.1725572 20.3668639,10.8725869 C20.3668639,8.57261659 18.4497041,6.4817345 16,6.4817345 C13.5502959,6.4817345 11.6331361,8.46807247 11.6331361,10.8725869 C11.6331361,13.2771013 13.5502959,15.1588952 16,15.1588952 Z" id="形状"></path>
                        </g>
                    </g>
                </g>
            </g>
        </g>
    </g>
</svg>