<?xml version="1.0" encoding="UTF-8"?>
<svg width="32px" height="32px" viewBox="0 0 32 32" version="1.1" xmlns="http://www.w3.org/2000/svg" xmlns:xlink="http://www.w3.org/1999/xlink">
    <title>编组</title>
    <g id="控件" stroke="none" stroke-width="1" fill="none" fill-rule="evenodd">
        <g id="大组件/日报卡片" transform="translate(-240.000000, -109.000000)" fill="#FF7575" fill-rule="nonzero">
            <g id="编组-7" transform="translate(24.000000, 24.000000)">
                <g id="编组-5" transform="translate(72.000000, 78.000000)">
                    <g id="编组-3备份-2" transform="translate(144.000000, 0.000000)">
                        <g id="编组" transform="translate(0.000000, 7.000000)">
                            <path d="M15.8823529,0 C7.11529412,0 0,7.11529412 0,15.8823529 C0,24.6494118 7.11529412,31.7647059 15.8823529,31.7647059 C24.6494118,31.7647059 31.7647059,24.6494118 31.7647059,15.8823529 C31.7647059,7.11529412 24.6494118,0 15.8823529,0 Z M15.8823529,29.6470588 C8.28,29.6470588 2.11764706,23.4847059 2.11764706,15.8823529 C2.11764706,8.28 8.28,2.11764706 15.8823529,2.11764706 C23.4847059,2.11764706 29.6470588,8.28 29.6470588,15.8823529 C29.6470588,23.4847059 23.4847059,29.6470588 15.8823529,29.6470588 Z M17.3435294,15.7764706 L22.9129412,10.2705882 C23.3364706,9.84705882 23.3364706,9.16941176 22.9129412,8.76705882 C22.4894118,8.34352941 21.8117647,8.34352941 21.3882353,8.76705882 L15.8188235,14.2305882 L10.3552941,8.74588235 C9.93176471,8.32235294 9.25411765,8.32235294 8.85176471,8.74588235 C8.42823529,9.16941176 8.42823529,9.84705882 8.85176471,10.2494118 L14.2941176,15.7341176 L8.51294118,21.4517647 C8.08941176,21.8752941 8.08941176,22.5529412 8.51294118,22.9552941 C8.93647059,23.3788235 9.61411765,23.3788235 10.0376471,22.9552941 L15.7976471,17.2588235 L21.4729412,22.9552941 C21.8964706,23.3788235 22.5741176,23.3788235 22.9764706,22.9552941 C23.4,22.5317647 23.4,21.8541176 22.9764706,21.4517647 L17.3435294,15.7764706 Z" id="形状"></path>
                        </g>
                    </g>
                </g>
            </g>
        </g>
    </g>
</svg>