<?xml version="1.0" encoding="UTF-8"?>
<svg width="80px" height="82px" viewBox="0 0 80 82" version="1.1" xmlns="http://www.w3.org/2000/svg" xmlns:xlink="http://www.w3.org/1999/xlink">
    <title>外勤任务</title>
    <g id="页面-1" stroke="none" stroke-width="1" fill="none" fill-rule="evenodd">
        <g id="3-工作台" transform="translate(-335.000000, -480.000000)">
            <g id="我的任务" transform="translate(24.000000, 144.000000)">
                <g id="外勤任务" transform="translate(311.000000, 336.500000)">
                    <rect id="矩形" x="0" y="0.5" width="80" height="80"></rect>
                    <path d="M35,8.11769 C38.34152,6.1884572 42.45848,6.1884572 45.8,8.11769 L66.1769,19.88231 C69.51842,21.81155 71.5769,25.3769 71.5769,29.23538 L71.5769,52.76462 C71.5769,56.6231 69.51842,60.18854 66.1769,62.1176 L45.8,73.88222 C42.45848,75.81146 38.34152,75.81146 35,73.88222 L14.623082,62.1176 C11.281544,60.18854 9.223082,56.6231 9.223082,52.76462 L9.223082,29.23538 C9.223082,25.3769 11.281544,21.81155 14.623082,19.88231 L35,8.11769 Z" id="路径" fill="#6E8FF3" fill-rule="nonzero"></path>
                    <g id="外勤" transform="translate(24.399991, 26.999958)" fill="#FFFFFF">
                        <path d="M1.67420264,17.4348968 L29.9158537,17.4348968 C30.708349,17.4348968 31.4287993,16.9305816 31.5728893,16.2101313 C31.6449343,16.2821764 31.6449343,16.4983114 31.6449343,16.6424015 L31.6449343,26.1523452 C31.6449343,27.0889306 30.852439,27.8814259 29.9158537,27.8814259 L1.74624766,27.8814259 C0.809662308,27.8814259 0.0171669787,27.0889306 0.0171669787,26.1523452 L0.0171669787,16.6424015 C0.0171669787,16.4983114 0.0171669787,16.3542214 0.0892120061,16.2101313 C0.233302061,16.9305816 0.881707308,17.4348968 1.67420264,17.4348968" id="路径"></path>
                        <path d="M19.6854597,1.72908069 C19.6854597,1.36885555 19.3972796,1.15272044 19.1090994,1.15272044 L12.5530019,1.15272044 C12.1927767,1.15272044 11.9766416,1.44090055 11.9766416,1.72908069 L11.9766416,3.67429643 L19.6854597,3.67429643 L19.6854597,1.72908069 Z M17.0918386,13.2562852 C17.0918386,12.5358349 16.5154784,11.9594747 15.7950282,11.9594747 C15.0745779,11.9594747 14.4982176,12.5358349 14.4982176,13.2562852 C14.4982176,13.8326454 14.9304878,14.3369606 15.506848,14.4810507 L16.1552533,14.4810507 C16.6595685,14.3369606 17.0918386,13.8326454 17.0918386,13.2562852 Z M1.67420264,3.74634145 L10.6077861,3.74634145 L10.6077861,1.87317074 C10.6077861,0.864540329 11.4723265,0 12.4809568,0 L19.0370544,0 C20.0456848,0 20.9102252,0.864540329 20.9102251,1.87317074 L20.9102251,3.74634145 L29.9158537,3.74634145 C30.852439,3.74634145 31.6449343,4.46679173 31.6449343,5.40337711 L31.6449343,13.7606004 C31.6449343,14.4090056 31.2847092,14.9853658 30.780394,15.273546 C30.708349,15.273546 30.708349,15.345591 30.6363039,15.345591 C30.5642589,15.345591 30.5642589,15.417636 30.4922139,15.417636 L30.2040338,15.417636 L1.53011258,15.417636 L1.16988742,15.417636 C1.09784239,15.417636 1.09784239,15.417636 1.02579736,15.345591 C0.953752335,15.345591 0.953752335,15.273546 0.881707308,15.273546 C0.377392116,14.9853658 0.0171669787,14.4090056 0.0171669787,13.7606004 L0.0171669787,5.40337711 C-0.0548780488,4.46679176 0.737617253,3.74634145 1.67420264,3.74634145 Z" id="形状"></path>
                    </g>
                </g>
            </g>
        </g>
    </g>
</svg>