<?xml version="1.0" encoding="UTF-8"?>
<svg width="750px" height="332px" viewBox="0 0 750 332" version="1.1" xmlns="http://www.w3.org/2000/svg" xmlns:xlink="http://www.w3.org/1999/xlink">
    <title>头部bg</title>
    <defs>
        <linearGradient x1="1.99867058%" y1="40.8506226%" x2="100%" y2="59.7976889%" id="linearGradient-1">
            <stop stop-color="#5C99E2" offset="0%"></stop>
            <stop stop-color="#436FD8" offset="100%"></stop>
        </linearGradient>
        <rect id="path-2" x="0" y="0" width="750" height="332"></rect>
        <linearGradient x1="3.31310056%" y1="39.6241599%" x2="99.8018985%" y2="61.3838097%" id="linearGradient-4">
            <stop stop-color="#C1DDFF" offset="0%"></stop>
            <stop stop-color="#4D8AEF" offset="100%"></stop>
        </linearGradient>
        <linearGradient x1="40.7373283%" y1="3.30849211%" x2="59.3926413%" y2="98.6925728%" id="linearGradient-5">
            <stop stop-color="#D2E4F9" offset="0%"></stop>
            <stop stop-color="#5481EB" offset="100%"></stop>
        </linearGradient>
        <linearGradient x1="3.31310056%" y1="39.6242457%" x2="99.8018985%" y2="61.3837156%" id="linearGradient-6">
            <stop stop-color="#C1DDFF" offset="0%"></stop>
            <stop stop-color="#4D8AEF" offset="100%"></stop>
        </linearGradient>
        <linearGradient x1="40.7370904%" y1="3.30849211%" x2="59.3928825%" y2="98.6925728%" id="linearGradient-7">
            <stop stop-color="#D2E4F9" offset="0%"></stop>
            <stop stop-color="#5481EB" offset="100%"></stop>
        </linearGradient>
        <linearGradient x1="3.31310056%" y1="39.6243509%" x2="99.8018985%" y2="61.3836001%" id="linearGradient-8">
            <stop stop-color="#FAFCFF" offset="0%"></stop>
            <stop stop-color="#4D8AEF" offset="100%"></stop>
        </linearGradient>
        <linearGradient x1="40.9604009%" y1="4.44972428%" x2="59.392777%" y2="98.6925728%" id="linearGradient-9">
            <stop stop-color="#9FC7F7" offset="0%"></stop>
            <stop stop-color="#5481EB" offset="100%"></stop>
        </linearGradient>
        <linearGradient x1="50%" y1="0%" x2="50%" y2="100%" id="linearGradient-10">
            <stop stop-color="#FFECBA" offset="0%"></stop>
            <stop stop-color="#FAC74B" offset="100%"></stop>
        </linearGradient>
        <linearGradient x1="0%" y1="0%" x2="0%" y2="100%" id="linearGradient-11">
            <stop stop-color="#FFEFBF" offset="0%"></stop>
            <stop stop-color="#FFB240" offset="100%"></stop>
        </linearGradient>
        <linearGradient x1="50%" y1="0%" x2="50%" y2="100%" id="linearGradient-12">
            <stop stop-color="#FFF9DB" offset="0%"></stop>
            <stop stop-color="#FFD975" offset="100%"></stop>
        </linearGradient>
        <polygon id="path-13" points="8.912 5.7714 7.232 0.7317 5.552 5.7713 0.512 7.4512 5.552 9.1312 7.232 14.1707 8.912 9.131 13.951 7.4512"></polygon>
        <polygon id="path-15" points="6.308 3.9634 5.158 0.7805 4.009 3.9634 0.561 5.0244 4.009 6.0854 5.158 9.2683 6.308 6.0853 9.756 5.0244"></polygon>
        <polygon id="path-17" points="2.896 2.2013 2.366 0.6098 1.835 2.2012 0.244 2.7317 1.835 3.2622 2.366 4.854 2.896 3.2622 4.488 2.7317"></polygon>
        <linearGradient x1="1.99867058%" y1="3.30849211%" x2="100%" y2="100%" id="linearGradient-19">
            <stop stop-color="#5C99E2" offset="0%"></stop>
            <stop stop-color="#436FD8" offset="100%"></stop>
        </linearGradient>
        <linearGradient x1="1.99867058%" y1="3.30849211%" x2="100%" y2="100%" id="linearGradient-20">
            <stop stop-color="#71A0F2" offset="0%"></stop>
            <stop stop-color="#3664D1" offset="100%"></stop>
        </linearGradient>
    </defs>
    <g id="页面-1" stroke="none" stroke-width="1" fill="none" fill-rule="evenodd">
        <g id="头部bg">
            <mask id="mask-3" fill="white">
                <use xlink:href="#path-2"></use>
            </mask>
            <use id="蒙版" fill="url(#linearGradient-1)" xlink:href="#path-2"></use>
            <g mask="url(#mask-3)">
                <g transform="translate(321.000000, 80.000000)">
                    <polygon id="路径" stroke="none" fill="url(#linearGradient-4)" fill-rule="evenodd" points="369.399 218.219 321 193.822 369.399 171 419.766 193.822"></polygon>
                    <polygon id="路径" stroke="none" fill="url(#linearGradient-5)" fill-rule="evenodd" points="321 193.822 369.399 218.219 369.399 304 321 279.604"></polygon>
                    <polygon id="路径" stroke="none" fill="#4A74D1" fill-rule="nonzero" points="369.399 217.825 419.766 193.822 419.766 279.604 369.399 303.607"></polygon>
                    <polygon id="路径" stroke="none" fill="url(#linearGradient-6)" fill-rule="evenodd" points="119.5 225 58 194 119.5 165 183.5 194"></polygon>
                    <polygon id="路径" stroke="none" fill="url(#linearGradient-7)" fill-rule="evenodd" points="58 194 119.5 225 119.5 334 58 303"></polygon>
                    <polygon id="路径" stroke="none" fill="#4A74D1" fill-rule="nonzero" points="119.5 224.5 183.5 194 183.5 303 119.5 333.5"></polygon>
                    <polygon id="路径" stroke="none" fill="url(#linearGradient-8)" fill-rule="evenodd" points="253.976 188.757 163 142.899 253.976 100 348.651 142.899"></polygon>
                    <polygon id="路径" stroke="none" fill="url(#linearGradient-9)" fill-rule="evenodd" points="163 142.899 253.976 188.757 253.976 350 163 304.142"></polygon>
                    <polygon id="路径" stroke="none" fill="#4A74D1" fill-rule="nonzero" points="253.976 188.018 348.651 142.899 348.651 304.142 253.976 349.26"></polygon>
                    <ellipse id="椭圆形" stroke="none" fill-opacity="0.21284965" fill="#3970C6" fill-rule="nonzero" cx="255.5" cy="140.5" rx="50.5" ry="15.5"></ellipse>
                    <ellipse id="椭圆形" stroke="none" fill-opacity="0.427201705" fill="#BCD7FF" fill-rule="nonzero" cx="255.5" cy="140.5" rx="25.5" ry="7.5"></ellipse>
                    <rect id="矩形" stroke="none" fill="#FFB94F" fill-rule="nonzero" x="251.976" y="107.927" width="7.07317" height="15.561"></rect>
                    <rect id="矩形" stroke="none" fill="#FFB94F" fill-rule="nonzero" x="239.951" y="123.488" width="30.4146" height="6.36585" rx="1"></rect>
                    <rect id="矩形" stroke="#E4C0A1" stroke-width="1" fill="#CBA069" fill-rule="nonzero" x="231.463" y="129.854" width="48.0976" height="14.1463" rx="2"></rect>
                    <path d="M226.369,47.398 L226.369,43.561 L209.168,43.561 C207.419,43.561 206,44.7635 206,46.2469 L206,66.3694 C206,67.1151 206.233,67.8475 206.675,68.492 C210.146,73.5487 216.338,77.251 225.134,79.6341 L226.512,75.9793 C218.706,73.8645 213.437,70.7138 210.588,66.5624 C210.548,66.5038 210.526,66.4372 210.526,66.3694 L210.526,47.398 L226.369,47.398 Z" id="路径" stroke="none" fill="url(#linearGradient-10)" fill-rule="nonzero"></path>
                    <path d="M284.655,47.398 L284.655,43.561 L301.856,43.561 C303.606,43.561 305.024,44.7635 305.024,46.2469 L305.024,66.3694 C305.024,67.1151 304.791,67.8475 304.349,68.492 C300.878,73.5487 294.686,77.251 285.89,79.6341 L284.512,75.9793 C292.318,73.8645 297.587,70.7138 300.436,66.5624 C300.477,66.5038 300.498,66.4372 300.498,66.3694 L300.498,47.398 L284.655,47.398 Z" id="路径" stroke="none" fill="url(#linearGradient-10)" fill-rule="nonzero"></path>
                    <rect id="矩形" stroke="none" fill="#FFB94F" fill-rule="nonzero" x="242.78" y="133.39" width="26.1707" height="7.07317" rx="1"></rect>
                    <path d="M220.146,32.2439 L289.463,32.2439 L289.463,75.3903 C289.463,94.5316 273.946,110.049 254.805,110.049 C235.663,110.049 220.146,94.5316 220.146,75.3902 L220.146,32.2439 Z" id="路径" stroke="none" fill="url(#linearGradient-11)" fill-rule="nonzero"></path>
                    <path d="M268.866,64.4268 C268.866,71.9972 262.729,78.1341 255.158,78.1341 C247.588,78.1341 241.451,71.9972 241.451,64.4268 C241.451,56.8565 247.588,50.7195 255.158,50.7195 C262.729,50.7195 268.866,56.8565 268.866,64.4268 Z" id="路径" stroke="#FFFFFF" stroke-width="3" fill="none"></path>
                    <path d="M259.666,71.85 C259.494,71.8499 259.324,71.8097 259.171,71.733 L255.512,69.9073 L251.852,71.733 C251.495,71.9113 251.062,71.8815 250.736,71.6562 C250.409,71.4309 250.246,71.0492 250.314,70.6716 L251.012,66.8006 L248.052,64.0657 C247.763,63.798 247.659,63.398 247.784,63.0335 C247.908,62.6691 248.24,62.4034 248.64,62.348 L252.733,61.7845 L254.56,58.2682 C254.737,57.9243 255.106,57.7065 255.509,57.7072978 C255.912,57.7069 256.28,57.9246 256.457,58.2682 L258.287,61.7872 L262.378,62.3508 C262.778,62.4038 263.112,62.6677 263.239,63.0317 C263.366,63.3957 263.264,63.7965 262.977,64.0657 L260.016,66.8042 L260.715,70.6752 C260.768,70.9675 260.682,71.2668 260.481,71.4937 C260.28,71.7207 259.984,71.8523 259.672,71.8537 L259.666,71.85 Z" id="路径" stroke="none" fill="#FFFFFF" fill-rule="evenodd"></path>
                    <rect id="矩形" stroke="none" fill="url(#linearGradient-12)" fill-rule="nonzero" x="216.61" y="28" width="77.0976" height="8.4878" rx="2"></rect>
                    <polygon id="路径" stroke="none" fill="#FFFFFF" fill-rule="evenodd" opacity="0.479841" points="232.629 28 234.293 28 228.883 36.4878 227.22 36.4878"></polygon>
                    <polygon id="路径" stroke="none" fill="#FFFFFF" fill-rule="evenodd" opacity="0.479841" points="239.289 28 242.073 28 236.369 36.4878 233.585 36.4878"></polygon>
                    <polygon id="路径" stroke="none" fill="#FFFFFF" fill-rule="evenodd" opacity="0.479841" points="243.589 28 247.732 28 241.972 36.4878 237.829 36.4878"></polygon>
                    <g id="Clipped" stroke="none" stroke-width="1" fill="none" fill-rule="evenodd" transform="translate(226.000000, 40.000000)">
                        <mask id="mask-14" fill="white">
                            <use xlink:href="#path-13"></use>
                        </mask>
                        <g id="路径"></g>
                        <path d="M7.232,0.7317 L10.078,-0.217 L7.232,-8.7551 L4.386,-0.217 L7.232,0.7317 Z M8.912,5.7714 L6.066,6.7201 L6.54,8.1431 L7.963,8.6174 L8.912,5.7714 Z M5.552,5.7713 L6.501,8.6173 L7.924,8.143 L8.398,6.72 L5.552,5.7713 Z M0.512,7.4512 L-0.436,4.6052 L-8.975,7.4512 L-0.436,10.2973 L0.512,7.4512 Z M5.552,9.1312 L8.398,8.1825 L7.924,6.7594 L6.501,6.2851 L5.552,9.1312 Z M7.232,14.1707 L4.386,15.1194 L7.232,23.6576 L10.078,15.1194 L7.232,14.1707 Z M8.912,9.131 L7.963,6.285 L6.54,6.7593 L6.066,8.1823 L8.912,9.131 Z M13.951,7.4512 L14.9,10.2973 L23.438,7.4512 L14.9,4.6052 L13.951,7.4512 Z M4.386,1.6804 L6.066,6.7201 L11.758,4.8227 L10.078,-0.217 L4.386,1.6804 Z M8.398,6.72 L10.078,1.6804 L4.386,-0.217 L2.706,4.8226 L8.398,6.72 Z M1.461,10.2973 L6.501,8.6173 L4.603,2.9252 L-0.436,4.6052 L1.461,10.2973 Z M6.501,6.2851 L1.461,4.6052 L-0.436,10.2973 L4.603,11.9772 L6.501,6.2851 Z M10.078,13.222 L8.398,8.1825 L2.706,10.0798 L4.386,15.1194 L10.078,13.222 Z M6.066,8.1823 L4.386,13.222 L10.078,15.1194 L11.758,10.0797 L6.066,8.1823 Z M13.003,4.6052 L7.963,6.285 L9.86,11.9771 L14.9,10.2973 L13.003,4.6052 Z M7.963,8.6174 L13.003,10.2973 L14.9,4.6052 L9.86,2.9253 L7.963,8.6174 Z" id="形状" fill="#FFFFFF" fill-rule="nonzero" mask="url(#mask-14)"></path>
                    </g>
                    <g id="Clipped" stroke="none" stroke-width="1" fill="none" fill-rule="evenodd" transform="translate(279.000000, 64.000000)">
                        <mask id="mask-16" fill="white">
                            <use xlink:href="#path-15"></use>
                        </mask>
                        <g id="路径"></g>
                        <path d="M5.158,0.7805 L7.98,-0.2384 L5.158,-8.0523 L2.337,-0.2384 L5.158,0.7805 Z M6.308,3.9634 L3.486,4.9824 L3.995,6.3905 L5.426,6.8308 L6.308,3.9634 Z M4.009,3.9634 L4.891,6.8307 L6.322,6.3904 L6.831,4.9823 L4.009,3.9634 Z M0.561,5.0244 L-0.321,2.157 L-9.64,5.0244 L-0.321,7.8917 L0.561,5.0244 Z M4.009,6.0854 L6.831,5.0664 L6.322,3.6583 L4.891,3.218 L4.009,6.0854 Z M5.158,9.2683 L2.337,10.2872 L5.158,18.1011 L7.98,10.2872 L5.158,9.2683 Z M6.308,6.0853 L5.426,3.218 L3.995,3.6583 L3.486,5.0664 L6.308,6.0853 Z M9.756,5.0244 L10.638,7.8917 L19.957,5.0244 L10.638,2.1571 L9.756,5.0244 Z M2.337,1.7994 L3.486,4.9824 L9.129,2.9445 L7.98,-0.2384 L2.337,1.7994 Z M6.831,4.9823 L7.98,1.7994 L2.337,-0.2384 L1.187,2.9445 L6.831,4.9823 Z M1.443,7.8917 L4.891,6.8307 L3.127,1.0961 L-0.321,2.157 L1.443,7.8917 Z M4.891,3.218 L1.443,2.157 L-0.321,7.8917 L3.127,8.9527 L4.891,3.218 Z M7.98,8.2494 L6.831,5.0664 L1.187,7.1043 L2.337,10.2872 L7.98,8.2494 Z M3.486,5.0664 L2.337,8.2494 L7.98,10.2872 L9.129,7.1043 L3.486,5.0664 Z M8.874,2.1571 L5.426,3.218 L7.19,8.9527 L10.638,7.8917 L8.874,2.1571 Z M5.426,6.8308 L8.874,7.8917 L10.638,2.1571 L7.19,1.0961 L5.426,6.8308 Z" id="形状" fill="#FFFFFF" fill-rule="nonzero" mask="url(#mask-16)"></path>
                    </g>
                    <g id="Clipped" stroke="none" stroke-width="1" fill="none" fill-rule="evenodd" transform="translate(239.000000, 96.000000)">
                        <mask id="mask-18" fill="white">
                            <use xlink:href="#path-17"></use>
                        </mask>
                        <g id="路径"></g>
                        <path d="M2.366,0.6098 L5.212,-0.3389 L2.366,-8.8771 L-0.48,-0.3389 L2.366,0.6098 Z M2.896,2.2013 L0.05,3.1499 L0.525,4.573 L1.948,5.047 L2.896,2.2013 Z M1.835,2.2012 L2.784,5.047 L4.207,4.573 L4.682,3.1499 L1.835,2.2012 Z M0.244,2.7317 L-0.705,-0.1143 L-9.243,2.7317 L-0.705,5.578 L0.244,2.7317 Z M1.835,3.2622 L4.682,2.3136 L4.207,0.8905 L2.784,0.4162 L1.835,3.2622 Z M2.366,4.854 L-0.48,5.802 L2.366,14.34 L5.212,5.802 L2.366,4.854 Z M2.896,3.2622 L1.948,0.4161 L0.525,0.8904 L0.05,2.3135 L2.896,3.2622 Z M4.488,2.7317 L5.436,5.578 L13.975,2.7317 L5.436,-0.1143 L4.488,2.7317 Z M-0.48,1.5584 L0.05,3.1499 L5.743,1.2526 L5.212,-0.3389 L-0.48,1.5584 Z M4.682,3.1499 L5.212,1.5584 L-0.48,-0.3389 L-1.011,1.2525 L4.682,3.1499 Z M1.193,5.578 L2.784,5.047 L0.887,-0.6449 L-0.705,-0.1143 L1.193,5.578 Z M2.784,0.4162 L1.193,-0.1143 L-0.705,5.578 L0.887,6.108 L2.784,0.4162 Z M5.212,3.905 L4.682,2.3136 L-1.011,4.211 L-0.48,5.802 L5.212,3.905 Z M0.05,2.3135 L-0.48,3.905 L5.212,5.802 L5.743,4.211 L0.05,2.3135 Z M3.539,-0.1143 L1.948,0.4161 L3.845,6.108 L5.436,5.578 L3.539,-0.1143 Z M1.948,5.047 L3.539,5.578 L5.436,-0.1143 L3.845,-0.6448 L1.948,5.047 Z" id="形状" fill="#FFFFFF" fill-rule="nonzero" mask="url(#mask-18)"></path>
                    </g>
                    <circle id="椭圆形" stroke="none" fill="url(#linearGradient-19)" fill-rule="evenodd" cx="24.5" cy="213.5" r="24.5"></circle>
                    <circle id="椭圆形" stroke="none" fill="url(#linearGradient-20)" fill-rule="evenodd" cx="394.5" cy="92.5" r="34.5"></circle>
                    <g id="编组" opacity="0.2" stroke="none" stroke-width="1" fill="none" fill-rule="evenodd" transform="translate(132.000000, 101.000000)">
                        <path d="M3.136,13.335 L3.046,14.257 L7.771,11.647 L7.073,11.025 L3.136,13.335 Z M11.071,9.315 L14.663,5.812 L9.698,5.092 L7.486,0.592 L6.923,1.732 L8.611,5.167 L13.576,5.887 L9.983,9.39 L10.711,13.62 L11.918,14.257 L11.071,9.315 Z" id="形状" fill="#3EA7F4" fill-rule="nonzero"></path>
                        <polygon id="路径" fill="#3EA9F4" fill-rule="nonzero" points="13.576 5.887 8.611 5.167 6.924 1.732 5.266 5.092 0.301 5.812 3.894 9.315 3.136 13.335 6.774 11.325 7.696 11.797 7.486 11.55 10.711 13.62 9.984 9.39"></polygon>
                        <path d="M11.918,14.52 C11.873,14.52 11.821,14.505 11.776,14.483 L7.486,12.225 L3.188,14.483 C3.091,14.535 2.963,14.528 2.873,14.46 C2.783,14.392 2.738,14.28 2.753,14.168 L3.571,9.383 L0.091,6 C0.008,5.918 -0.022,5.798 0.016,5.693 C0.053,5.588 0.143,5.505 0.256,5.49 L5.063,4.793 L7.216,0.435 C7.268,0.33 7.373,0.27 7.486,0.27 C7.598,0.27 7.703,0.338 7.756,0.435 L9.901,4.785 L14.708,5.483 C14.821,5.498 14.918,5.58 14.948,5.685 C14.986,5.79 14.956,5.91 14.873,5.993 L11.393,9.375 L12.211,14.16 C12.233,14.273 12.181,14.385 12.091,14.453 C12.046,14.498 11.978,14.52 11.918,14.52 Z M0.946,5.993 L4.103,9.06 C4.171,9.127 4.208,9.225 4.193,9.323 L3.451,13.665 L7.351,11.618 C7.441,11.573 7.546,11.573 7.628,11.618 L11.521,13.665 L10.778,9.323 C10.763,9.225 10.793,9.127 10.868,9.06 L14.026,5.993 L9.661,5.363 C9.563,5.348 9.481,5.288 9.436,5.198 L7.493,1.245 L5.543,5.198 C5.498,5.288 5.416,5.348 5.318,5.363 L0.946,5.993 Z" id="形状" fill="#3E8FF4" fill-rule="nonzero"></path>
                        <path d="M3.338,6.547 C3.226,6.547 3.128,6.465 3.113,6.352 C3.098,6.232 3.181,6.112 3.308,6.097 L5.746,5.76 C5.866,5.745 5.986,5.827 6.001,5.955 C6.016,6.075 5.933,6.195 5.806,6.21 L3.368,6.547 C3.361,6.54 3.346,6.547 3.338,6.547 Z M2.588,6.6 L2.573,6.6 C2.446,6.6 2.348,6.502 2.348,6.375 C2.348,6.247 2.446,6.15 2.573,6.15 L2.588,6.15 C2.716,6.15 2.813,6.247 2.813,6.375 C2.813,6.502 2.716,6.6 2.588,6.6 Z" id="形状" fill="#C5EAFF" fill-rule="nonzero"></path>
                    </g>
                    <g id="编组" opacity="0.1" stroke="none" stroke-width="1" fill="none" fill-rule="evenodd" transform="translate(49.000000, 169.000000)">
                        <path d="M2.3,9.779 L2.234,10.455 L5.699,8.541 L5.187,8.085 L2.3,9.779 Z M8.119,6.831 L10.753,4.262 L7.112,3.734 L5.49,0.434 L5.077,1.27 L6.315,3.789 L9.956,4.317 L7.321,6.886 L7.855,9.988 L8.74,10.455 L8.119,6.831 Z" id="形状" fill="#FFFFFF" fill-rule="nonzero"></path>
                        <polygon id="路径" fill="#FFFFFF" fill-rule="nonzero" points="9.956 4.317 6.315 3.789 5.077 1.271 3.862 3.734 0.221 4.262 2.855 6.831 2.3 9.779 4.967 8.305 5.644 8.651 5.49 8.47 7.855 9.988 7.321 6.886"></polygon>
                        <path d="M8.74,10.648 C8.707,10.648 8.669,10.637 8.636,10.621 L5.49,8.965 L2.338,10.621 C2.267,10.659 2.173,10.654 2.107,10.604 C2.041,10.555 2.008,10.472 2.019,10.39 L2.619,6.881 L0.067,4.4 C0.006,4.34 -0.016,4.252 0.012,4.175 C0.039,4.098 0.105,4.037 0.188,4.026 L3.713,3.515 L5.292,0.319 C5.33,0.242 5.407,0.198 5.49,0.198 C5.572,0.198 5.649,0.248 5.688,0.319 L7.261,3.509 L10.786,4.021 C10.869,4.032 10.94,4.092 10.962,4.169 C10.99,4.246 10.968,4.334 10.907,4.395 L8.355,6.875 L8.955,10.384 C8.971,10.467 8.933,10.549 8.867,10.599 C8.834,10.632 8.784,10.648 8.74,10.648 Z M0.694,4.395 L3.009,6.644 C3.059,6.694 3.086,6.765 3.075,6.837 L2.531,10.021 L5.391,8.52 C5.457,8.487 5.534,8.487 5.594,8.52 L8.449,10.021 L7.904,6.837 C7.893,6.765 7.915,6.694 7.97,6.644 L10.286,4.395 L7.085,3.933 C7.013,3.922 6.953,3.878 6.92,3.812 L5.495,0.913 L4.065,3.812 C4.032,3.878 3.972,3.922 3.9,3.933 L0.694,4.395 Z" id="形状" fill="#FFFFFF" fill-rule="nonzero"></path>
                        <path d="M2.448,4.802 C2.366,4.802 2.294,4.741 2.283,4.659 C2.272,4.571 2.333,4.483 2.426,4.472 L4.214,4.224 C4.302,4.213 4.39,4.274 4.401,4.367 C4.412,4.455 4.351,4.543 4.258,4.554 L2.47,4.802 C2.465,4.796 2.454,4.802 2.448,4.802 Z M1.898,4.84 L1.887,4.84 C1.794,4.84 1.722,4.769 1.722,4.675 C1.722,4.582 1.794,4.51 1.887,4.51 L1.898,4.51 C1.992,4.51 2.063,4.582 2.063,4.675 C2.063,4.769 1.992,4.84 1.898,4.84 Z" id="形状" fill="#FFFFFF" fill-rule="nonzero"></path>
                    </g>
                    <g id="编组" opacity="0.6" stroke="none" stroke-width="1" fill="none" fill-rule="evenodd" transform="translate(174.000000, 0.000000)">
                        <path d="M4.181,17.78 L4.061,19.01 L10.361,15.53 L9.431,14.7 L4.181,17.78 Z M14.761,12.42 L19.551,7.74999 L12.931,6.789993 L9.981,0.789993 L9.231,2.30999 L11.481,6.88999 L18.101,7.84999 L13.311,12.52 L14.281,18.16 L15.891,19.01 L14.761,12.42 Z" id="形状" fill="#6BA1D9" fill-rule="nonzero"></path>
                        <polygon id="路径" fill="#6BA1D9" fill-rule="nonzero" points="18.101 7.85 11.481 6.89 9.231 2.31 7.021 6.79 0.401 7.75 5.191 12.42 4.181 17.78 9.031 15.1 10.261 15.73 9.981 15.4 14.281 18.16 13.311 12.52"></polygon>
                        <path d="M15.891,19.360001 C15.831,19.360001 15.761,19.34 15.701,19.31 L9.981,16.3 L4.251,19.31 C4.121,19.38 3.951,19.37 3.831,19.28 C3.711,19.19 3.651,19.04 3.671,18.89 L4.761,12.51 L0.121,8 C0.011,7.89 -0.029,7.73 0.021,7.59 C0.071,7.45 0.191,7.34 0.341,7.32 L6.751,6.39 L9.621,0.580001 C9.691,0.440001 9.831,0.360001 9.981,0.360001 C10.131,0.360001 10.271,0.450001 10.341,0.580001 L13.201,6.38 L19.611,7.31 C19.761,7.33 19.891,7.44 19.931,7.58 C19.981,7.72 19.941,7.88 19.831,7.99 L15.191,12.5 L16.281,18.88 C16.311,19.03 16.241,19.18 16.121,19.27 C16.061,19.33 15.971,19.360001 15.891,19.360001 Z M1.261,7.99 L5.471,12.08 C5.561,12.17 5.611,12.3 5.591,12.43 L4.601,18.22 L9.801,15.49 C9.921,15.43 10.061,15.43 10.171,15.49 L15.361,18.22 L14.371,12.43 C14.351,12.3 14.391,12.17 14.491,12.08 L18.701,7.99 L12.881,7.15 C12.751,7.13 12.641,7.05 12.581,6.93 L9.991,1.66 L7.391,6.93 C7.331,7.05 7.221,7.13 7.091,7.15 L1.261,7.99 Z" id="形状" fill="#6BA1D9" fill-rule="nonzero"></path>
                    </g>
                </g>
            </g>
        </g>
    </g>
</svg>