<?xml version="1.0" encoding="UTF-8"?>
<svg width="80px" height="80px" viewBox="0 0 80 80" version="1.1" xmlns="http://www.w3.org/2000/svg" xmlns:xlink="http://www.w3.org/1999/xlink">
    <title>考核管理</title>
    <g id="页面-1" stroke="none" stroke-width="1" fill="none" fill-rule="evenodd">
        <g id="3-工作台" transform="translate(-101.000000, -1115.000000)">
            <g id="我的任务备份-2" transform="translate(24.000000, 998.000000)">
                <g id="编组-6" transform="translate(0.000000, 81.000000)">
                    <g id="考核管理" transform="translate(77.000000, 36.000000)">
                        <rect id="矩形" x="0" y="0" width="80" height="80"></rect>
                        <g transform="translate(9.000000, 6.000000)" fill-rule="nonzero">
                            <path d="M26,2.11769 C29.34152,0.1884572 33.45848,0.1884572 36.8,2.11769 L57.1769,13.88231 C60.51842,15.81155 62.5769,19.3769 62.5769,23.23538 L62.5769,46.76462 C62.5769,50.6231 60.51842,54.18854 57.1769,56.1176 L36.8,67.88222 C33.45848,69.81146 29.34152,69.81146 26,67.88222 L5.623082,56.1176 C2.281544,54.18854 0.223082,50.6231 0.223082,46.76462 L0.223082,23.23538 C0.223082,19.3769 2.281544,15.81155 5.623082,13.88231 L26,2.11769 Z" id="路径" fill="#FDB205"></path>
                            <g id="编组" transform="translate(16.000000, 19.000000)" fill="#FFFFFF">
                                <path d="M24.5,17 C20.9077372,17 18,20.1349693 18,24.002045 C18,27.8670757 20.9116826,31 24.5,31 C28.0942275,31 31,27.8670757 31,24.002045 C31.0039374,20.1349693 28.0942275,17.002045 24.5,17.002045 L24.5,17 Z M28.3546218,21.3619632 L23.9535623,27.6666667 C23.8184433,27.8604084 23.6091559,27.9841716 23.3795111,28.006135 L23.3203306,28.0102249 C23.1110496,28.0099884 22.9108929,27.9213793 22.7660062,27.7648262 L20.3159318,25.1738241 C20.0050135,24.8377817 20.0006886,24.3087369 20.3060684,23.9672802 C20.4507019,23.8071574 20.6521876,23.71528 20.8637819,23.7129629 C21.0753762,23.7106459 21.2786891,23.7980905 21.4265533,23.9550102 L23.2295871,25.8609407 L27.0881583,20.3333333 C27.2104595,20.1535193 27.398677,20.0337182 27.6086983,20.0020078 C27.8187196,19.9702973 28.032082,20.0294652 28.1987798,20.1656442 C28.5479449,20.4478528 28.6189616,20.9836401 28.3565945,21.3619632 L28.3546218,21.3619632 Z" id="形状"></path>
                                <path d="M16.7763196,23.2301954 C16.7763196,21.7388207 17.170312,20.3425137 17.8603091,19.1383227 C17.6990376,19.0828665 17.5377661,19.029391 17.3805774,18.9719542 C17.1886847,18.9085757 15.9862934,18.363917 16.7375328,16.0624862 L16.7273258,16.0624862 C18.682998,14.0304139 20.1773112,10.7624614 20.1773112,7.54204278 C20.1773112,2.59654133 16.9110528,0 13.1181102,0 C9.32108486,-0.00395662913 6.07319918,2.59258018 6.07319918,7.54204278 C6.07319918,10.7723643 7.56342957,14.0541809 9.53135025,16.082292 C10.2968796,18.1104031 8.92300962,18.8630225 8.63721202,18.9679931 C4.66462526,20.4177756 0,23.0598657 0,25.6663054 L0,26.64273 C0,30.1958856 6.83056285,31 13.1548556,31 C15.8821814,31 18.6870808,30.8494761 21,30.3959239 C18.4808982,29.0095198 16.7742782,26.3159347 16.7742782,23.2301954 L16.7763196,23.2301954 Z" id="路径"></path>
                            </g>
                        </g>
                    </g>
                </g>
            </g>
        </g>
    </g>
</svg>