<?xml version="1.0" encoding="UTF-8"?>
<svg width="80px" height="80px" viewBox="0 0 80 80" version="1.1" xmlns="http://www.w3.org/2000/svg" xmlns:xlink="http://www.w3.org/1999/xlink">
    <title>巡逻计划</title>
    <g id="页面-1" stroke="none" stroke-width="1" fill="none" fill-rule="evenodd">
        <g id="3-工作台" transform="translate(-101.000000, -262.000000)">
            <g id="我的任务" transform="translate(24.000000, 144.000000)">
                <g id="编组-3" transform="translate(0.000000, 81.000000)">
                    <g id="巡逻计划" transform="translate(77.000000, 37.000000)">
                        <rect id="矩形" x="0" y="0" width="80" height="80"></rect>
                        <path d="M35,7.11769 C38.34152,5.1884572 42.45848,5.1884572 45.8,7.11769 L66.1769,18.88231 C69.51842,20.81155 71.5769,24.3769 71.5769,28.23538 L71.5769,51.76462 C71.5769,55.6231 69.51842,59.18854 66.1769,61.1176 L45.8,72.88222 C42.45848,74.81146 38.34152,74.81146 35,72.88222 L14.623082,61.1176 C11.281544,59.18854 9.223082,55.6231 9.223082,51.76462 L9.223082,28.23538 C9.223082,24.3769 11.281544,20.81155 14.623082,18.88231 L35,7.11769 Z" id="路径" fill="#539CF8" fill-rule="nonzero"></path>
                        <g id="编组" transform="translate(26.000000, 25.000000)" fill="#FFFFFF" fill-rule="nonzero">
                            <path d="M21.7674419,10.5072464 L27,14.2898551 L27,5.88405797 L21.7674419,10.5072464 Z M1.6744186,0 L0,0 L0,25.6376812 L17.1627907,10.9275362 L1.6744186,0 Z M27,2.10144928 L27,0 L6.48837209,0 L19.255814,8.82608696 L27,2.10144928 Z M0.418604651,29 L13.1860465,29 L8.79069767,21.8550725 L0.418604651,29 Z M14.4418605,22.6956522 C14.4418605,18.2826087 18,14.5 22.3953488,14.5 L19.4651163,12.3985507 L10.8837209,19.9637681 L16.5348837,29 L17.372093,29 C15.4883721,27.5289855 14.4418605,25.2173913 14.4418605,22.6956522 Z" id="形状"></path>
                            <path d="M27.375,26 L18.625,26 C18.2083333,26 18,25.7878788 18,25.3636364 C18,24.9393939 18.2083333,24.7272727 18.625,24.7272727 L27.375,24.7272727 C27.7916667,24.7272727 28,24.9393939 28,25.3636364 C28,25.7878788 27.7916667,26 27.375,26 L27.375,26 Z M27.375,20.2727273 L18.625,20.2727273 C18.2083333,20.2727273 18,20.0606061 18,19.6363636 C18,19.2121212 18.2083333,19 18.625,19 L27.375,19 C27.7916667,19 28,19.2121212 28,19.6363636 C28,19.8484848 27.7916667,20.2727273 27.375,20.2727273 L27.375,20.2727273 Z" id="形状"></path>
                            <path d="M20.6,26.2295082 C20.2,26.2295082 20,26.0163934 20,25.5901639 L20,20.0491803 C20,19.6229508 20.2,19.4098361 20.6,19.4098361 C21,19.4098361 21.2,19.6229508 21.2,20.0491803 L21.2,25.5901639 C21.2,26.0163934 20.8,26.2295082 20.6,26.2295082 Z M26.4,26.2295082 C26,26.2295082 25.8,26.0163934 25.8,25.5901639 L25.8,20.0491803 C25.8,19.6229508 26,19.4098361 26.4,19.4098361 C26.8,19.4098361 27,19.6229508 27,20.0491803 L27,25.5901639 C27,26.0163934 26.6,26.2295082 26.4,26.2295082 Z M23.6,29 C23.2,29 23,28.7868852 23,28.3606557 L23,16.6393443 C23,16.2131148 23.2,16 23.6,16 C24,16 24.2,16.2131148 24.2,16.6393443 L24.2,28.3606557 C24.2,28.7868852 23.8,29 23.6,29 Z" id="形状"></path>
                            <path d="M23.6056338,30 C22.5492958,30 21.7042254,29.7857143 20.6478873,29.3571429 C19.8028169,28.9285714 18.9577465,28.5 18.3239437,27.6428571 C17.6901408,27 17.056338,26.1428571 16.6338028,25.2857143 C16.2112676,24.4285714 16,23.3571429 16,22.2857143 C16,21.2142857 16.2112676,20.3571429 16.6338028,19.2857143 C17.056338,18.6428571 17.6901408,18 18.3239437,17.1428571 C18.9577465,16.5 19.8028169,16.0714286 20.6478873,15.6428571 C21.4929577,15.2142857 22.5492958,15 23.6056338,15 C24.6619718,15 25.5070423,15.2142857 26.5633803,15.6428571 C27.1971831,16.0714286 28.0422535,16.5 28.6760563,17.1428571 C29.3098592,17.7857143 29.943662,18.6428571 30.3661972,19.5 C30.7887324,20.3571429 31,21.4285714 31,22.5 C31,23.5714286 30.7887324,24.4285714 30.3661972,25.5 C29.943662,26.3571429 29.5211268,27.2142857 28.6760563,27.8571429 C28.0422535,28.5 27.1971831,29.1428571 26.3521127,29.5714286 C25.5070423,29.7857143 24.4507042,30 23.6056338,30 L23.6056338,30 Z M23.6056338,16.2857143 C20.2253521,16.2857143 17.4788732,19.0714286 17.4788732,22.5 C17.4788732,25.9285714 20.2253521,28.7142857 23.6056338,28.7142857 C26.9859155,28.7142857 29.7323944,25.9285714 29.7323944,22.5 C29.7323944,19.0714286 26.9859155,16.2857143 23.6056338,16.2857143 Z" id="形状"></path>
                            <path d="M29.3606557,23 L17.6393443,23 C17.2131148,23 17,22.8333333 17,22.5 C17,22.1666667 17.2131148,22 17.6393443,22 L29.3606557,22 C29.7868852,22 30,22.1666667 30,22.5 C30,22.6666667 29.7868852,23 29.3606557,23 Z" id="路径"></path>
                        </g>
                    </g>
                </g>
            </g>
        </g>
    </g>
</svg>