<svg width="50" height="64" viewBox="0 0 50 64" fill="none" xmlns="http://www.w3.org/2000/svg">
<g clip-path="url(#clip0)">
<path fill-rule="evenodd" clip-rule="evenodd" d="M12 46H38V64L25 56.724L12 64V46Z" fill="#C4CEE5"/>
<g filter="url(#filter0_di)">
<path fill-rule="evenodd" clip-rule="evenodd" d="M25 50C38.8071 50 50 38.8071 50 25C50 11.1929 38.8071 0 25 0C11.1929 0 0 11.1929 0 25C0 38.8071 11.1929 50 25 50Z" fill="#CED5E0"/>
</g>
<path fill-rule="evenodd" clip-rule="evenodd" d="M25 46C36.598 46 46 36.598 46 25C46 13.402 36.598 4 25 4C13.402 4 4 13.402 4 25C4 36.598 13.402 46 25 46Z" fill="#818994"/>
<path fill-rule="evenodd" clip-rule="evenodd" d="M25 45C36.0457 45 45 36.0457 45 25C45 13.9543 36.0457 5 25 5C13.9543 5 5 13.9543 5 25C5 36.0457 13.9543 45 25 45Z" fill="#BEC2C7"/>
<path opacity="0.57952" fill-rule="evenodd" clip-rule="evenodd" d="M25.5 22.8964C32.4036 22.8964 38 24.136 38 18.0392C38 11.9424 32.4036 7 25.5 7C18.5964 7 13 11.9424 13 18.0392C13 24.136 18.5964 22.8964 25.5 22.8964Z" fill="url(#paint0_linear)"/>
<path fill-rule="evenodd" clip-rule="evenodd" d="M25 12C26.1046 12 27 11.5523 27 11C27 10.4477 26.1046 10 25 10C23.8954 10 23 10.4477 23 11C23 11.5523 23.8954 12 25 12Z" fill="white"/>
<path opacity="0.57952" fill-rule="evenodd" clip-rule="evenodd" d="M25.5 43.4624C29.0899 43.4624 32 42.1193 32 40.4624C32 38.8056 29.0899 39.0078 25.5 39.0078C21.9101 39.0078 19 38.8056 19 40.4624C19 42.1193 21.9101 43.4624 25.5 43.4624Z" fill="url(#paint1_linear)"/>
<path d="M24.952 14.704C22.52 14.704 20.536 15.504 19.064 17.168C17.624 18.704 16.888 20.752 16.856 23.312H20.344C20.408 21.456 20.792 20.08 21.56 19.12C22.296 18.128 23.384 17.648 24.824 17.648C26.168 17.648 27.224 17.968 27.928 18.608C28.632 19.248 28.984 20.208 28.984 21.488C28.984 22.832 28.44 24.08 27.416 25.232C26.776 25.904 25.688 26.768 24.152 27.856C21.56 29.648 19.832 31.024 19 32.016C17.464 33.744 16.728 35.728 16.728 38H32.472V34.928H21.048C21.528 33.68 23 32.24 25.464 30.608C27.736 29.072 29.304 27.856 30.2 26.928C31.672 25.296 32.44 23.504 32.44 21.52C32.44 19.504 31.736 17.872 30.36 16.592C28.952 15.312 27.128 14.704 24.952 14.704Z" fill="white"/>
</g>
<defs>
<filter id="filter0_di" x="-4" y="-2" width="58" height="58" filterUnits="userSpaceOnUse" color-interpolation-filters="sRGB">
<feFlood flood-opacity="0" result="BackgroundImageFix"/>
<feColorMatrix in="SourceAlpha" type="matrix" values="0 0 0 0 0 0 0 0 0 0 0 0 0 0 0 0 0 0 127 0"/>
<feOffset dy="2"/>
<feGaussianBlur stdDeviation="2"/>
<feColorMatrix type="matrix" values="0 0 0 0 0.673072 0 0 0 0 0.723994 0 0 0 0 0.787647 0 0 0 1 0"/>
<feBlend mode="normal" in2="BackgroundImageFix" result="effect1_dropShadow"/>
<feBlend mode="normal" in="SourceGraphic" in2="effect1_dropShadow" result="shape"/>
<feColorMatrix in="SourceAlpha" type="matrix" values="0 0 0 0 0 0 0 0 0 0 0 0 0 0 0 0 0 0 127 0" result="hardAlpha"/>
<feOffset dy="1"/>
<feGaussianBlur stdDeviation="1.5"/>
<feComposite in2="hardAlpha" operator="arithmetic" k2="-1" k3="1"/>
<feColorMatrix type="matrix" values="0 0 0 0 0.654981 0 0 0 0 0.70978 0 0 0 0 0.778278 0 0 0 1 0"/>
<feBlend mode="normal" in2="shape" result="effect2_innerShadow"/>
</filter>
<linearGradient id="paint0_linear" x1="13" y1="7" x2="13" y2="23" gradientUnits="userSpaceOnUse">
<stop stop-color="#E9F0FA"/>
<stop offset="1" stop-color="#DAE3F2" stop-opacity="0.01"/>
</linearGradient>
<linearGradient id="paint1_linear" x1="32" y1="43.4624" x2="32" y2="39" gradientUnits="userSpaceOnUse">
<stop stop-color="#E9F0FA"/>
<stop offset="1" stop-color="#DAE3F2" stop-opacity="0.01"/>
</linearGradient>
<clipPath id="clip0">
<rect width="50" height="64" fill="white"/>
</clipPath>
</defs>
</svg>
