<?xml version="1.0" encoding="UTF-8"?>
<svg width="80px" height="80px" viewBox="0 0 80 80" version="1.1" xmlns="http://www.w3.org/2000/svg" xmlns:xlink="http://www.w3.org/1999/xlink">
    <title>巡逻计划</title>
    <g id="页面-1" stroke="none" stroke-width="1" fill="none" fill-rule="evenodd">
        <g id="3-工作台" transform="translate(-569.000000, -484.000000)">
            <g id="我的任务" transform="translate(24.000000, 144.000000)">
                <g id="巡逻计划" transform="translate(545.000000, 340.000000)">
                    <rect id="矩形" x="0" y="0" width="80" height="80"></rect>
                    <path d="M35,7.11769 C38.34152,5.1884572 42.45848,5.1884572 45.8,7.11769 L66.1769,18.88231 C69.51842,20.81155 71.5769,24.3769 71.5769,28.23538 L71.5769,51.76462 C71.5769,55.6231 69.51842,59.18854 66.1769,61.1176 L45.8,72.88222 C42.45848,74.81146 38.34152,74.81146 35,72.88222 L14.623082,61.1176 C11.281544,59.18854 9.223082,55.6231 9.223082,51.76462 L9.223082,28.23538 C9.223082,24.3769 11.281544,20.81155 14.623082,18.88231 L35,7.11769 Z" id="路径" fill="#FF7575" fill-rule="nonzero"></path>
                    <path d="M40.1059428,56 C39.4684666,56 39.0410222,55.7947042 38.6153973,55.5911539 L26.702431,48.8377073 C25.6374761,48.4288612 25,47.4059403 25,46.17769 L25,32.8759249 C25,31.853004 25.6374761,30.8300831 26.4886917,30.2159411 L38.4054342,23.4605813 C39.4684666,22.8464729 40.5334215,22.8464729 41.5964539,23.4605813 L53.5113427,30.2140949 C54.5743751,30.8282704 55,31.8511578 55,32.8741123 L55,46.1758438 C55,47.1987983 54.3625582,48.2217528 53.5113427,48.8358276 L41.5964539,55.5893413 C41.1708633,55.7928244 40.7453071,55.9981874 40.1078309,55.9981874 L40.1059428,56 Z M32.9761981,34.1323439 C32.3277437,33.8094264 31.4436944,34.1031457 31.1276281,34.7344484 C30.8116621,35.3638802 31.1075604,36.2469423 31.7377532,36.5625769 L38.2021293,40.0929877 C38.4345921,40.20789 38.5792427,40.4470238 38.572947,40.7060165 L38.572947,48.7338534 C38.572947,49.2994434 39.1811991,50 39.84243,50 C40.5986145,50 41.3128576,49.5110469 41.3128576,48.7338534 L41.3128576,40.7060165 C41.3128576,40.4432994 41.4443345,40.213422 41.6690593,40.1002706 L48.2576211,36.8782116 C48.8932656,36.5625769 49.1891639,35.6795483 48.8713249,35.0482456 C48.5553255,34.4187803 47.6730823,34.1232236 47.0410834,34.4388917 L46.8602399,34.539248 L39.8552064,37.9637902 L32.9780042,34.1323439 L32.9761981,34.1323439 Z" id="形状" fill="#FFFFFF"></path>
                </g>
            </g>
        </g>
    </g>
</svg>