<?xml version="1.0" encoding="UTF-8"?>
<svg width="80px" height="80px" viewBox="0 0 80 80" version="1.1" xmlns="http://www.w3.org/2000/svg" xmlns:xlink="http://www.w3.org/1999/xlink">
    <title>假期管理</title>
    <g id="页面-1" stroke="none" stroke-width="1" fill="none" fill-rule="evenodd">
        <g id="3-工作台" transform="translate(-101.000000, -1432.000000)">
            <g id="我的任务备份-3" transform="translate(24.000000, 1315.000000)">
                <g id="编组-6" transform="translate(0.000000, 81.000000)">
                    <g id="假期管理" transform="translate(77.000000, 36.000000)">
                        <rect id="矩形" x="0" y="0" width="80" height="80"></rect>
                        <g transform="translate(9.000000, 6.000000)">
                            <path d="M26.0440481,1.45412389 C29.4201968,-0.484707964 33.5798214,-0.484707964 36.9559701,1.45412389 L57.544039,13.2772797 C60.9201877,15.2161188 63,18.7992085 63,22.6768867 L63,46.3231983 C63,50.2008765 60.9201877,53.7840567 57.544039,55.7227149 L36.9559701,67.5458707 C33.5798214,69.4847098 29.4201968,69.4847098 26.0440481,67.5458707 L5.45596101,55.7227149 C2.07979415,53.7840567 0,50.2008765 0,46.3231983 L0,22.6768867 C0,18.7992085 2.07979415,15.2161188 5.45596101,13.2772797 L26.0440481,1.45412389 Z" id="路径" fill="#539CF8" fill-rule="nonzero"></path>
                            <path d="M32.7947643,51 L45.2059427,51 C45.6469074,50.9918273 46,50.6246 46,50.1745558 L46,48.5538157 C46,48.1063142 45.644412,47.7434456 45.2059427,47.7434456 L40.5884681,47.7434456 C40.2503476,47.7438089 39.9719374,47.472838 39.9560741,47.128131 C39.9402108,45.7703707 40.4289437,44.456743 41.3237064,43.4516808 C42.18193,42.5299802 42.4298612,41.1800293 41.9568134,40.0038849 C41.4837655,38.8277404 40.3777889,38.0446128 39.1326072,38.0041124 C38.2688582,37.9590717 37.4259633,38.285617 36.8092543,38.904564 C35.566568,40.1072243 35.4820824,42.0986424 36.6180033,43.40664 C37.5464532,44.4282294 38.0704776,45.7651038 38.088658,47.1582793 C38.0726165,47.5004436 37.7918891,47.7670557 37.456264,47.7585198 L32.7947643,47.7585198 C32.3561167,47.7585198 32.0005287,48.1213883 32.0005287,48.5688898 L32.0005287,50.1445892 C31.9926862,50.365979 32.0723593,50.5813754 32.221724,50.7422871 C32.3710888,50.9031987 32.5774902,50.9960045 32.7947643,51 Z" id="路径" fill="#FFFFFF"></path>
                            <path d="M39.4968546,21 L19.5034192,21 C18.0926065,21.0405146 16.976489,22.2489305 17.000659,23.7094373 L17.000659,47.2905627 C16.9852618,47.9933562 17.2402107,48.6736416 17.7096461,49.1819649 C18.1790814,49.6901082 18.8243313,49.9843343 19.5034192,50 L29.5721098,50 L29.5721098,49.19601 C29.5799874,47.7441463 30.7150829,46.5692226 32.1180179,46.5609396 L35.2824994,46.5609396 C35.1108027,46.0949315 34.8572862,45.6660168 34.5344822,45.2956232 C33.7508366,44.3677485 33.3166716,43.1784195 33.3118376,41.946055 C33.2975146,40.5925068 33.8169013,39.2915376 34.7502219,38.3433156 C35.6432592,37.3875308 36.8743186,36.8498569 38.1590891,36.8547186 L38.3318599,36.8547186 C39.7815236,36.9298057 41.1246602,37.6657312 41.9996147,38.8644235 L41.9996147,23.7094373 C42.0237848,22.2489305 40.9076672,21.0405146 39.4968546,21 Z M18.9279938,30.3342068 C18.9279938,30.3342068 19.1294106,28.9793981 20.7692117,30.3342068 C21.2581622,30.7361117 21.7759376,31.0189937 22.0924752,31.2422743 L20.0786655,32.1206311 C19.5836278,31.6108672 19.1922526,31.0033281 18.9279938,30.3342068 Z M35.598858,30.9743376 C34.663926,31.271985 25.0986878,34.130336 25.0986878,34.130336 C23.3999835,34.6337976 21.5761321,34.0145542 20.495822,32.5671922 L22.6679006,31.6441792 C23.0531885,31.7911122 23.4764323,31.7911122 23.8617202,31.6441792 L26.3356554,30.9743376 L22.6247526,25.2875265 C22.6247526,25.2875265 21.8767355,24.0519208 24.4801145,24.6621609 L30.0324143,29.1283118 C30.4296977,29.2909104 30.8719194,29.2909104 31.2693819,29.1283118 L34.9802847,27.8629954 C34.9802847,27.8629954 37.4975468,26.9547478 38.0727932,28.4435248 C38.6482185,29.9323018 36.5337899,30.6765102 35.598858,30.9743376 Z" id="形状" fill="#FFFFFF"></path>
                        </g>
                    </g>
                </g>
            </g>
        </g>
    </g>
</svg>