<?xml version="1.0" encoding="UTF-8"?>
<svg width="80px" height="82px" viewBox="0 0 80 82" version="1.1" xmlns="http://www.w3.org/2000/svg" xmlns:xlink="http://www.w3.org/1999/xlink">
    <title>分组管理</title>
    <g id="页面-1" stroke="none" stroke-width="1" fill="none" fill-rule="evenodd">
        <g id="3-工作台" transform="translate(-335.000000, -1431.000000)">
            <g id="我的任务备份-3" transform="translate(24.000000, 1315.000000)">
                <g id="编组-2" transform="translate(234.000000, 81.000000)">
                    <g id="分组管理" transform="translate(77.000000, 35.500000)">
                        <rect id="矩形" x="0" y="0.5" width="80" height="80"></rect>
                        <g transform="translate(10.000000, 7.500000)" fill-rule="nonzero">
                            <path d="M25.25,2.0310875 C28.4987,0.1554445 32.5013,0.1554445 35.75,2.0310875 L55.560875,13.4689125 C58.809575,15.3445625 60.810875,18.810875 60.810875,22.562175 L60.810875,45.437825 C60.810875,49.189125 58.809575,52.655525 55.560875,54.531 L35.75,65.968825 C32.5013,67.844475 28.4987,67.844475 25.25,65.968825 L5.4391075,54.531 C2.19039,52.655525 0.1891075,49.189125 0.1891075,45.437825 L0.1891075,22.562175 C0.1891075,18.810875 2.19039,15.3445625 5.4391075,13.4689125 L25.25,2.0310875 Z" id="路径" fill="#FF7575"></path>
                            <g id="编组" transform="translate(16.000000, 20.000000)" fill="#FFFFFF">
                                <path d="M1.66133333,10.4999814 C0.732482676,10.5494512 0.00363127491,11.3151533 0,12.2453117 L0,26.2452869 C0,27.2143609 0.785591032,27.9999814 1.75466668,27.9999814 L26.2453333,27.9999814 C26.7098395,28.0024345 27.1561734,27.8196492 27.4855083,27.4920667 C27.8148432,27.1644842 28,26.7191323 28,26.2546203 L28,12.254645 C27.9963687,11.3244867 27.2675173,10.5587846 26.3386667,10.5093148 L25.7133334,11.0226472 L15.008,19.7586317 L14,20.5799636 L12.992,19.7586317 L2.28666667,11.0133139 L1.66133333,10.4999814 Z M3.528,1.76399688 C3.52778501,0.804163555 4.29504663,0.0203138954 5.25466669,0 L22.7453333,0 C23.2123215,0 23.6600481,0.18613985 23.9893816,0.517224484 C24.318715,0.848309119 24.502484,1.29701615 24.5000249,1.76399688 L24.5000249,9.62264968 L14,18.3773008 L3.50000001,9.62264968 L3.528,1.76399688 Z M7.66266667,5.2546574 L21,5.2546574 L21,3.49999382 L7.00000002,3.49999382 L7.00000002,5.2546574 L7.66266667,5.2546574 Z M7.66266667,8.75465119 L21,8.75465119 L21,6.99998765 L7.00000002,6.99998765 L7.00000002,8.75465119 L7.66266667,8.75465119 Z" id="形状"></path>
                            </g>
                        </g>
                    </g>
                </g>
            </g>
        </g>
    </g>
</svg>