<?xml version="1.0" encoding="UTF-8"?>
<svg width="80px" height="80px" viewBox="0 0 80 80" version="1.1" xmlns="http://www.w3.org/2000/svg" xmlns:xlink="http://www.w3.org/1999/xlink">
    <title>icon/80px/紧急调配</title>
    <g id="icon/80px/紧急调配" stroke="none" stroke-width="1" fill="none" fill-rule="evenodd">
        <g id="编组-3">
            <rect id="矩形" fill="#FF8551" fill-rule="nonzero" x="0" y="0" width="80" height="80" rx="12"></rect>
            <path d="M49.49,47.2848 C50.774,46.7334 52.208,46.9696 53.34,47.7576 L52.434,49.2546 L56.358,49.2546 L54.924,45 L54.17,46.1818 C52.584,45.0788 50.548,44.8424 48.736,45.5516 C46.246,46.5758 44.736,49.1758 45.038,51.9334 L46.774,51.9334 C46.624,49.9636 47.68,48.0728 49.49,47.2848 Z M56.962,50.909 L55.226,50.909 C55.528,52.8788 54.472,54.8484 52.66,55.5576 C51.452,56.0304 50.094,55.8728 48.962,55.1636 C49.188,54.8484 49.718,53.8242 49.718,53.8242 L45.492,53.5878 L47.302,58 L48.056,56.7394 C49.642,57.7636 51.528,58 53.264,57.291 C55.754,56.2666 57.264,53.6666 56.962,50.909 Z" id="形状" fill="#FFFFFF"></path>
            <path d="M43.368,52.1992 C43.368,49.0326 45.142,46.252 47.766,44.939 C48.228,44.7074 48.152,44.0894 47.688,43.8578 C46.222,43.2398 44.68,43.0082 43.06,43.0082 L35.576,43.0082 C28.632,43.0082 23,48.6464 23,55.5976 L23,56.37 C23,60 28.554,60 35.576,60 L46.376,60 C46.916,60 47.148,59.2276 46.686,58.9188 C44.756,57.374 43.368,54.9024 43.368,52.1992 Z M39.048,42.004 C44.526,42.004 49,37.5244 49,32.0406 C49,26.557 44.526,22 39.048,22 C33.57,22 29.094,26.4796 29.094,31.9634 C29.094,37.4472 33.57,42.004 39.048,42.004 Z" id="形状" fill="#FFFFFF"></path>
        </g>
    </g>
</svg>