<?xml version="1.0" encoding="UTF-8"?>
<svg width="80px" height="80px" viewBox="0 0 80 80" version="1.1" xmlns="http://www.w3.org/2000/svg" xmlns:xlink="http://www.w3.org/1999/xlink">
    <title>icon/80px/训练计划</title>
    <g id="icon/80px/训练计划" stroke="none" stroke-width="1" fill="none" fill-rule="evenodd">
        <g id="训练计划">
            <rect id="矩形" fill="#35C48B" x="0" y="0" width="80" height="80" rx="12"></rect>
            <g id="训练营" transform="translate(21.600000, 19.200000)" fill="#FFFFFF">
                <path d="M18.3819799,41.6 C17.6062538,41.6 17.0861092,41.3412029 16.5681787,41.0846061 L2.07163852,32.5711705 C0.775726068,32.0557766 0,30.7662762 0,29.2179365 L0,12.4496508 C0,11.1601505 0.775726068,9.87065015 1.81154533,9.09645911 L16.3126808,0.580611545 C17.6062538,-0.193537182 18.9021663,-0.193537182 20.1957393,0.580611545 L34.6946189,9.0941318 C35.9881919,9.86836516 36.5061224,11.1578232 36.5061224,12.4473658 L36.5061224,29.2156092 C36.5061224,30.5051518 35.7304382,31.7946944 34.6946189,32.5688008 L20.1957393,41.0823211 C19.6778506,41.3388332 19.1600036,41.597715 18.3842775,41.597715 L18.3819799,41.6 Z M9.44310405,14.099673 C8.63316399,13.6906584 7.52895851,14.0626898 7.13418166,14.8623121 C6.73953014,15.6595647 7.10911647,16.778071 7.8962472,17.1778609 L15.9704573,21.6495589 C16.2608106,21.7950968 16.4414839,22.097989 16.4336204,22.426035 L16.4336204,32.5942743 C16.4336204,33.3106634 17.1933465,34.1980041 18.0192447,34.1980041 C18.9637431,34.1980041 19.8558552,33.5786852 19.8558552,32.5942743 L19.8558552,22.426035 C19.8558552,22.0932716 20.0200741,21.8021037 20.3007625,21.6587836 L28.5300844,17.5776509 C29.3240245,17.1778609 29.6936108,16.0593969 29.2966199,15.2597747 C28.9019266,14.4624798 27.799977,14.088121 27.0105904,14.4879533 L26.7847112,14.6150669 L18.0352029,18.9526694 L9.44535992,14.099673 L9.44310405,14.099673 Z" id="形状"></path>
            </g>
        </g>
    </g>
</svg>