<?xml version="1.0" encoding="UTF-8"?>
<svg width="80px" height="80px" viewBox="0 0 80 80" version="1.1" xmlns="http://www.w3.org/2000/svg" xmlns:xlink="http://www.w3.org/1999/xlink">
    <title>icon/80px/日常巡逻</title>
    <g id="icon/80px/日常巡逻" stroke="none" stroke-width="1" fill="none" fill-rule="evenodd">
        <g id="日常巡逻">
            <rect id="矩形" fill="#FDB205" x="0" y="0" width="80" height="80" rx="12"></rect>
            <g id="巡逻里程" transform="translate(20.800000, 20.800000)" fill="#FFFFFF">
                <path d="M10.2678375,26.9473585 C10.2678375,26.1894528 9.76695,25.6842075 9.0156375,25.6842075 L1.2521625,25.6842075 C0.5008875,25.6842075 0,26.1894528 0,26.9473585 C0,27.7052642 0.5008875,28.2105094 1.2521625,28.2105094 L8.9321625,28.2105094 C9.683475,28.2105094 10.2678375,27.7052642 10.2678375,26.9473585 Z M34.476525,25.6 L28.0486875,25.6 C27.297375,25.6 26.796525,26.1052452 26.796525,26.8631131 C26.796525,27.620981 27.297375,28.1263019 28.0486875,28.1263019 L34.476525,28.1263019 C35.2278375,28.1263019 35.7286875,28.6315849 35.7286875,29.3894906 C35.7286875,30.1473963 35.2278375,30.6526037 34.476525,30.6526037 L11.52,30.6526037 C9.349575,30.6526037 7.68,32.336868 7.68,34.5263019 C7.68,36.7157357 9.349575,38.4 11.52,38.4 L26.88,38.4 C27.6313125,38.4 28.1321625,37.8947548 28.1321625,37.1368869 C28.1321625,36.379019 27.6313125,35.8736981 26.88,35.8736981 L11.52,35.8736981 C10.7686875,35.8736981 10.2678375,35.3684529 10.2678375,34.6105472 C10.2678375,33.8526415 10.7686875,33.3473963 11.52,33.3473963 L34.56,33.3473963 C36.730425,33.3473963 38.4,31.6631698 38.4,29.4736981 C38.4,27.2842265 36.730425,25.6 34.476525,25.6 L34.476525,25.6 Z" id="形状"></path>
                <path d="M18.3995727,28.8 C18.3995727,28.8 30.399071,21.8777437 30.399071,12.0498465 C30.4818606,5.38396008 25.0200202,0 18.3996099,0 C11.7791996,0 6.4,5.38396008 6.4,12.0498465 C6.4,22.134152 18.3995727,28.8 18.3995727,28.8 Z M18.3995727,7.69136607 C20.7994649,7.69136607 22.8683478,9.82789716 22.8683478,12.3062548 C22.8683478,14.7846125 20.7994649,16.9210668 18.3996099,16.9210668 C15.9997548,16.9210668 13.9307976,14.9554873 13.9307976,12.3062548 C14.0135499,9.82789716 15.9996805,7.69136607 18.3996099,7.69136607 L18.3995727,7.69136607 Z" id="形状"></path>
            </g>
        </g>
    </g>
</svg>