<?xml version="1.0" encoding="UTF-8"?>
<svg width="80px" height="80px" viewBox="0 0 80 80" version="1.1" xmlns="http://www.w3.org/2000/svg" xmlns:xlink="http://www.w3.org/1999/xlink">
    <title>icon/80px/网格化搜捕</title>
    <g id="icon/80px/网格化搜捕" stroke="none" stroke-width="1" fill="none" fill-rule="evenodd">
        <g id="网格化">
            <rect id="矩形" fill="#539CF8" x="0" y="0" width="80" height="80" rx="12"></rect>
            <g id="编组" transform="translate(21.200000, 20.800000)" fill="#FFFFFF" fill-rule="nonzero">
                <path d="M27.8739018,13.5111111 L34.4888889,18.3111111 L34.4888889,7.64444444 L27.8739018,13.5111111 Z M2.47235142,0.177777778 L0.355555556,0.177777778 L0.355555556,32.7111111 L22.0527132,14.0444444 L2.47235142,0.177777778 Z M34.4888889,2.84444444 L34.4888889,0.177777778 L8.55813953,0.177777778 L24.698708,11.3777778 L34.4888889,2.84444444 Z M0.884754522,36.9777778 L17.025323,36.9777778 L11.4687339,27.9111111 L0.884754522,36.9777778 Z M18.6129199,28.9777778 C18.6129199,23.3777778 23.1111111,18.5777778 28.6677003,18.5777778 L24.9633075,15.9111111 L14.1147287,25.5111111 L21.2589147,36.9777778 L22.3173127,36.9777778 C19.9359173,35.1111111 18.6129199,32.1777778 18.6129199,28.9777778 Z" id="形状"></path>
                <path d="M34.7555556,33.2444444 L23.5555556,33.2444444 C23.0222222,33.2444444 22.7555556,32.9858586 22.7555556,32.4686869 C22.7555556,31.9515152 23.0222222,31.6929293 23.5555556,31.6929293 L34.7555556,31.6929293 C35.2888889,31.6929293 35.5555556,31.9515152 35.5555556,32.4686869 C35.5555556,32.9858586 35.2888889,33.2444444 34.7555556,33.2444444 L34.7555556,33.2444444 Z M34.7555556,26.2626263 L23.5555556,26.2626263 C23.0222222,26.2626263 22.7555556,26.0040404 22.7555556,25.4868687 C22.7555556,24.969697 23.0222222,24.7111111 23.5555556,24.7111111 L34.7555556,24.7111111 C35.2888889,24.7111111 35.5555556,24.969697 35.5555556,25.4868687 C35.5555556,25.7454545 35.2888889,26.2626263 34.7555556,26.2626263 L34.7555556,26.2626263 Z" id="形状"></path>
                <path d="M25.6660317,33.4542805 C25.1479365,33.4542805 24.8888889,33.1832423 24.8888889,32.6411658 L24.8888889,25.5941712 C24.8888889,25.0520947 25.1479365,24.7810565 25.6660317,24.7810565 C26.184127,24.7810565 26.4431746,25.0520947 26.4431746,25.5941712 L26.4431746,32.6411658 C26.4431746,33.1832423 25.9250794,33.4542805 25.6660317,33.4542805 Z M33.1784127,33.4542805 C32.6603175,33.4542805 32.4012698,33.1832423 32.4012698,32.6411658 L32.4012698,25.5941712 C32.4012698,25.0520947 32.6603175,24.7810565 33.1784127,24.7810565 C33.6965079,24.7810565 33.9555556,25.0520947 33.9555556,25.5941712 L33.9555556,32.6411658 C33.9555556,33.1832423 33.4374603,33.4542805 33.1784127,33.4542805 Z M29.551746,36.9777778 C29.0336508,36.9777778 28.7746032,36.7067395 28.7746032,36.164663 L28.7746032,21.2575592 C28.7746032,20.7154827 29.0336508,20.4444444 29.551746,20.4444444 C30.0698413,20.4444444 30.3288889,20.7154827 30.3288889,21.2575592 L30.3288889,36.164663 C30.3288889,36.7067395 29.8107937,36.9777778 29.551746,36.9777778 Z" id="形状"></path>
                <path d="M29.2907668,38.0444444 C27.9386541,38.0444444 26.856964,37.7777778 25.5048513,37.2444444 C24.4231612,36.7111111 23.341471,36.1777778 22.5302034,35.1111111 C21.7189358,34.3111111 20.9076682,33.2444444 20.3668232,32.1777778 C19.8259781,31.1111111 19.5555556,29.7777778 19.5555556,28.4444444 C19.5555556,27.1111111 19.8259781,26.0444444 20.3668232,24.7111111 C20.9076682,23.9111111 21.7189358,23.1111111 22.5302034,22.0444444 C23.341471,21.2444444 24.4231612,20.7111111 25.5048513,20.1777778 C26.5865415,19.6444444 27.9386541,19.3777778 29.2907668,19.3777778 C30.6428795,19.3777778 31.7245696,19.6444444 33.0766823,20.1777778 C33.8879499,20.7111111 34.9696401,21.2444444 35.7809077,22.0444444 C36.5921753,22.8444444 37.4034429,23.9111111 37.9442879,24.9777778 C38.485133,26.0444444 38.7555556,27.3777778 38.7555556,28.7111111 C38.7555556,30.0444444 38.485133,31.1111111 37.9442879,32.4444444 C37.4034429,33.5111111 36.8625978,34.5777778 35.7809077,35.3777778 C34.9696401,36.1777778 33.8879499,36.9777778 32.8062598,37.5111111 C31.7245696,37.7777778 30.372457,38.0444444 29.2907668,38.0444444 L29.2907668,38.0444444 Z M29.2907668,20.9777778 C24.9640063,20.9777778 21.4485133,24.4444444 21.4485133,28.7111111 C21.4485133,32.9777778 24.9640063,36.4444444 29.2907668,36.4444444 C33.6175274,36.4444444 37.1330203,32.9777778 37.1330203,28.7111111 C37.1330203,24.4444444 33.6175274,20.9777778 29.2907668,20.9777778 Z" id="形状"></path>
                <path d="M36.8757741,28.9777778 L21.9686703,28.9777778 C21.4265938,28.9777778 21.1555556,28.7111111 21.1555556,28.1777778 C21.1555556,27.6444444 21.4265938,27.3777778 21.9686703,27.3777778 L36.8757741,27.3777778 C37.4178506,27.3777778 37.6888889,27.6444444 37.6888889,28.1777778 C37.6888889,28.4444444 37.4178506,28.9777778 36.8757741,28.9777778 Z" id="路径"></path>
            </g>
        </g>
    </g>
</svg>