<?xml version="1.0" encoding="UTF-8"?>
<svg width="80px" height="80px" viewBox="0 0 80 80" version="1.1" xmlns="http://www.w3.org/2000/svg" xmlns:xlink="http://www.w3.org/1999/xlink">
    <title>icon/80px/日常巡逻未选</title>
    <g id="icon/80px/日常巡逻未选" stroke="none" stroke-width="1" fill="none" fill-rule="evenodd">
        <g id="编组-2">
            <rect id="矩形" fill="#F7F7F7" fill-rule="nonzero" x="0" y="0" width="80" height="80" rx="12"></rect>
            <path d="M31.16,47.6668 C31.16,46.9168 30.666,46.4168 29.922,46.4168 L22.24,46.4168 C21.496,46.4168 21,46.9168 21,47.6668 C21,48.4168 21.496,48.9168 22.24,48.9168 L29.84,48.9168 C30.582,48.9168 31.16,48.4168 31.16,47.6668 Z M55.118,46.3334 L48.756,46.3334 C48.014,46.3334 47.518,46.8334 47.518,47.5834 C47.518,48.3334 48.014,48.8334 48.756,48.8334 L55.118,48.8334 C55.86,48.8334 56.356,49.3336 56.356,50.0836 C56.356,50.8336 55.86,51.3334 55.118,51.3334 L32.4,51.3334 C30.252,51.3334 28.6,53.0002 28.6,55.1668 C28.6,57.3334 30.252,59.0002 32.4,59.0002 L47.6,59.0002 C48.344,59.0002 48.84,58.5002 48.84,57.7502 C48.84,57.0002 48.344,56.5002 47.6,56.5002 L32.4,56.5002 C31.656,56.5002 31.16,56.0002 31.16,55.2502 C31.16,54.5002 31.656,54.0002 32.4,54.0002 L55.2,54.0002 C57.348,54.0002 59,52.3336 59,50.1668 C59,48.0002 57.348,46.3334 55.118,46.3334 Z" id="形状" fill="#B6BCCE"></path>
            <path d="M39.026,49.2564 C39.026,49.2564 51.204,42.4648 51.204,32.8224 C51.288,26.2824 45.744,21 39.026,21 C32.306,21 26.846,26.2824 26.846,32.8224 C26.846,42.7164 39.026,49.2564 39.026,49.2564 Z M39.026,28.5462 C41.46,28.5462 43.56,30.6424 43.56,33.074 C43.56,35.5056 41.46,37.6016 39.026,37.6016 C36.59,37.6016 34.49,35.6732 34.49,33.074 C34.574,30.6424 36.59,28.5462 39.026,28.5462 L39.026,28.5462 Z" id="形状" fill="#B6BCCE"></path>
        </g>
    </g>
</svg>