<?xml version="1.0" encoding="UTF-8"?>
<svg width="80px" height="80px" viewBox="0 0 80 80" version="1.1" xmlns="http://www.w3.org/2000/svg" xmlns:xlink="http://www.w3.org/1999/xlink">
    <title>icon/80px/定点集合未选</title>
    <g id="icon/80px/定点集合未选" stroke="none" stroke-width="1" fill="none" fill-rule="evenodd">
        <g id="编组-4">
            <rect id="矩形" fill="#F7F7F7" fill-rule="nonzero" x="0" y="0" width="80" height="80" rx="12"></rect>
            <path d="M26.054,49 L55.996,49 C56.518,49 57.042,49.3882 57.172,49.9058 L59.918,58.1882 C60.18,58.8352 59.788,59.6118 59.134,59.8706 C59.002,59.8706 58.872,60 58.742,60 L23.308,60 C22.524,60 22,59.4824 22,58.7058 C22,58.5764 22,58.447 22.13,58.3176 L24.876,50.0352 C25.008,49.2588 25.53,49 26.054,49 Z" id="路径" fill="#B6BCCE" opacity="0.498768"></path>
            <path d="M41.5,54 C32.544,45.7182 28,39.0926 28,34.251 C28,26.861 34.1,21 41.5,21 C48.9,21 55,26.861 55,34.251 C55,39.0926 50.456,45.7182 41.5,54 Z M41.5,39.475 C44.486,39.475 46.822,37.054 46.822,34.251 C46.822,31.4478 44.486,28.8996 41.5,28.8996 C38.514,28.8996 36.178,31.3204 36.178,34.251 C36.178,37.1814 38.514,39.475 41.5,39.475 Z" id="形状" fill="#B6BCCE"></path>
        </g>
    </g>
</svg>