<?xml version="1.0" encoding="UTF-8"?>
<svg width="80px" height="80px" viewBox="0 0 80 80" version="1.1" xmlns="http://www.w3.org/2000/svg" xmlns:xlink="http://www.w3.org/1999/xlink">
    <title>icon/80px/训练计划未选</title>
    <g id="icon/80px/训练计划未选" stroke="none" stroke-width="1" fill="none" fill-rule="evenodd">
        <g id="编组">
            <rect id="矩形" fill="#F7F7F7" fill-rule="nonzero" x="0" y="0" width="80" height="80" rx="12"></rect>
            <path d="M40.6236,60 C39.8798,60 39.3812,59.7574 38.8846,59.5168 L24.9862,51.5354 C23.7438,51.0522 23,49.8434 23,48.3918 L23,32.6716 C23,31.4626 23.7438,30.2538 24.7368,29.528 L38.6396,21.5444 C39.8798,20.8186 41.1224,20.8186 42.3626,21.5444 L56.2632,29.5258 C57.5034,30.2516 58,31.4604 58,32.6694 L58,48.3896 C58,49.5986 57.2564,50.8076 56.2632,51.5332 L42.3626,59.5146 C41.866,59.7552 41.3696,59.9978 40.6258,59.9978 L40.6236,60 Z M32.0536,34.2184 C31.277,33.835 30.2184,34.1838 29.8398,34.9334 C29.4614,35.6808 29.8158,36.7294 30.5704,37.1042 L38.3116,41.2964 C38.59,41.4328 38.7632,41.7168 38.7556,42.0244 L38.7556,51.5572 C38.7556,52.2288 39.484,53.0606 40.2758,53.0606 C41.1814,53.0606 42.0366,52.48 42.0366,51.5572 L42.0366,42.0244 C42.0366,41.7124 42.1942,41.4394 42.4632,41.3052 L50.353,37.479 C51.1142,37.1042 51.4686,36.0556 51.088,35.306 C50.7096,34.5586 49.653,34.2076 48.8962,34.5824 L48.6796,34.7016 L40.2912,38.7682 L32.0556,34.2184 L32.0536,34.2184 Z" id="形状" fill="#B6BCCE"></path>
        </g>
    </g>
</svg>