<?xml version="1.0" encoding="UTF-8"?>
<svg width="361px" height="249px" viewBox="0 0 361 249" version="1.1" xmlns="http://www.w3.org/2000/svg" xmlns:xlink="http://www.w3.org/1999/xlink">
    <title>404</title>
    <defs>
        <linearGradient x1="50%" y1="0%" x2="50%" y2="86.0706991%" id="linearGradient-1">
            <stop stop-color="#D2DEFB" offset="0%"></stop>
            <stop stop-color="#F3F4F8" offset="100%"></stop>
        </linearGradient>
        <linearGradient x1="50%" y1="0%" x2="50%" y2="43.9096274%" id="linearGradient-2">
            <stop stop-color="#E5ECF8" offset="0%"></stop>
            <stop stop-color="#F3F4F6" offset="100%"></stop>
        </linearGradient>
        <linearGradient x1="50%" y1="0%" x2="50%" y2="86.0706991%" id="linearGradient-3">
            <stop stop-color="#D8E3FB" offset="0%"></stop>
            <stop stop-color="#F3F4F8" offset="100%"></stop>
        </linearGradient>
        <linearGradient x1="50%" y1="0%" x2="50%" y2="43.9096274%" id="linearGradient-4">
            <stop stop-color="#E5ECF8" offset="0%"></stop>
            <stop stop-color="#F3F4F6" offset="100%"></stop>
        </linearGradient>
        <linearGradient x1="50%" y1="0%" x2="50%" y2="86.0706991%" id="linearGradient-5">
            <stop stop-color="#D8E3FB" offset="0%"></stop>
            <stop stop-color="#F3F4F8" offset="100%"></stop>
        </linearGradient>
        <linearGradient x1="50%" y1="0%" x2="50%" y2="43.9096274%" id="linearGradient-6">
            <stop stop-color="#E5ECF8" offset="0%"></stop>
            <stop stop-color="#F3F4F6" offset="100%"></stop>
        </linearGradient>
        <linearGradient x1="50%" y1="0%" x2="50%" y2="100%" id="linearGradient-7">
            <stop stop-color="#D4E0FC" offset="0%"></stop>
            <stop stop-color="#E0E8FE" offset="100%"></stop>
        </linearGradient>
        <linearGradient x1="50%" y1="0%" x2="50%" y2="88.0272486%" id="linearGradient-8">
            <stop stop-color="#D0DDFC" offset="0%"></stop>
            <stop stop-color="#F3F4F8" offset="100%"></stop>
        </linearGradient>
        <linearGradient x1="50%" y1="0%" x2="50%" y2="100%" id="linearGradient-9">
            <stop stop-color="#E8EDF8" offset="0%"></stop>
            <stop stop-color="#F4F5F6" offset="100%"></stop>
        </linearGradient>
        <linearGradient x1="50%" y1="0%" x2="50%" y2="88.0272486%" id="linearGradient-10">
            <stop stop-color="#D0DDFC" offset="0%"></stop>
            <stop stop-color="#F3F4F8" offset="100%"></stop>
        </linearGradient>
        <linearGradient x1="50%" y1="0%" x2="50%" y2="100%" id="linearGradient-11">
            <stop stop-color="#E8EDF8" offset="0%"></stop>
            <stop stop-color="#F4F5F6" offset="100%"></stop>
        </linearGradient>
        <linearGradient x1="51.503123%" y1="45.4855527%" x2="50%" y2="54.8995405%" id="linearGradient-12">
            <stop stop-color="#DBE7FC" offset="0%"></stop>
            <stop stop-color="#F3F5F6" offset="100%"></stop>
        </linearGradient>
    </defs>
    <g id="页面-1" stroke="none" stroke-width="1" fill="none" fill-rule="evenodd">
        <g id="1-消息-404" transform="translate(-181.000000, -539.000000)">
            <g id="404" transform="translate(150.500000, 488.500000)">
                <g id="编组" transform="translate(0.804265, 0.470370)">
                    <g id="404" transform="translate(30.298695, 50.971209)">
                        <g id="编组-4备份-7" transform="translate(20.000000, 17.000000)">
                            <g id="编组-14" opacity="0.352608817" transform="translate(41.802294, 30.247188)" fill-rule="nonzero">
                                <polygon id="矩形" fill="url(#linearGradient-1)" points="-7.48594957e-14 66.0000137 22.1543252 3.09097273e-13 22.1543252 66.0000137"></polygon>
                                <polygon id="矩形备份-12" fill="url(#linearGradient-2)" points="21.4746131 0.0679409914 51.6581189 43.1617177 47.4366082 54.4187277 21.4746131 66.0000137"></polygon>
                            </g>
                            <g id="编组-14备份-5" transform="translate(174.006295, 28.547908)" fill-rule="nonzero">
                                <polygon id="矩形" fill="url(#linearGradient-3)" points="-1.33199289e-13 44.8038529 34.2984352 0.67971209 31.2667562 54.0371112"></polygon>
                                <polygon id="矩形备份-12" fill="url(#linearGradient-4)" points="34.2984352 0 85.6437234 59.1349519 31.2667562 54.2546269"></polygon>
                            </g>
                            <g id="编组-14备份-9" transform="translate(234.500671, 74.768330)" fill-rule="nonzero">
                                <polygon id="矩形" fill="url(#linearGradient-5)" points="3.52564075e-13 44.8038529 24.8094913 0.67971209 22.6165512 54.0371112"></polygon>
                                <polygon id="矩形备份-12" fill="url(#linearGradient-6)" points="24.9683223 0 62.1936563 59.1349519 22.770355 54.2546269"></polygon>
                            </g>
                            <g id="编组-24" opacity="0.652297247" transform="translate(106.714798, 0.000000)">
                                <g id="编组-23" transform="translate(0.000000, 29.907671)">
                                    <path d="M14.1380036,3.39822114 L36.1631682,3.39822114 L36.1631682,13.325756 L36.1631682,22.2889442 L38.2608029,36.1539479 L50.9784068,78.9533275 C41.9325169,83.8665067 33.2555266,86.3230963 24.947436,86.3230963 C16.6393454,86.3230963 8.32353342,83.8665067 0,78.9533275 L11.5159603,36.1539479 L14.1380036,22.0430453 L14.1380036,13.0683126 L14.1380036,3.39822114 Z" id="矩形" fill="url(#linearGradient-7)" fill-rule="nonzero"></path>
                                    <ellipse id="椭圆形" fill="#E1E7FF" fill-rule="nonzero" cx="25.4892034" cy="3.39822114" rx="11.2152495" ry="3.39856045"></ellipse>
                                    <path d="M14.2739539,16.3127509 C14.2739539,18.189724 19.1430334,19.7113113 25.1493473,19.7113113 C31.1556613,19.7113113 36.0247408,18.189724 36.0247408,16.3127509" id="路径" stroke="#AEACEB" stroke-width="2" opacity="0.421526228"></path>
                                    <path d="M14.2739539,24.4692959 C14.2739539,26.3462691 19.1430334,27.8678564 25.1493473,27.8678564 C31.1556613,27.8678564 36.0247408,26.3462691 36.0247408,24.4692959" id="路径" stroke="#AEACEB" stroke-width="2" opacity="0.421526228"></path>
                                    <path d="M12.2348176,32.625841 C12.2348176,34.5028141 17.8646908,36.0244016 24.8094913,36.0244016 C31.7542918,36.0244016 37.384165,34.5028141 37.384165,32.625841" id="路径" stroke="#AEACEB" stroke-width="2" opacity="0.421526228"></path>
                                </g>
                                <g id="编组-22" transform="translate(18.352226, 0.000000)" fill-rule="nonzero">
                                    <path d="M8.99289751,33.3058924 C13.6662493,33.3058924 6.73573882,22.6563036 17.4547494,19.353747 C25.1156181,16.9934123 31.6914457,25.7208952 33.7990215,20.2960987 C40.8003504,2.27502208 51.7094936,6.60080466 48.2931352,3.12365502 C44.8767768,-0.353494638 20.5108213,-1.67671729 8.99289751,3.12365502 C2.10259621,5.99535414 0,14.1091793 0,16.9934123 C0,24.6989695 4.31954573,33.3058924 8.99289751,33.3058924 Z" id="椭圆形" fill="#E0E8FF"></path>
                                    <path d="M8.88959007,33.3058924 C13.5092559,33.3058924 6.65836088,24.0090875 17.254235,21.1260443 C24.8270982,19.0655355 31.6927398,25.8617459 33.7761045,21.1260443 C40.6970042,5.39412857 52.541904,4.07827254 45.3335369,4.07827254 C43.1064898,4.07827254 36.8885804,14.2141095 31.4527799,16.7136332 C29.0126946,17.8356485 24.159972,10.9170483 20.6325136,12.2153673 C18.7994963,12.8900291 11.6841695,14.0448415 8.88959007,18.7152737 C6.79540691,22.2151706 0,17.225284 0,19.0655355 C0,25.7922799 4.26992423,33.3058924 8.88959007,33.3058924 Z" id="椭圆形备份-7" fill="#D7DDF3"></path>
                                </g>
                            </g>
                            <g id="编组-13" opacity="0.733537946" transform="translate(6.797121, 94.140125)" fill-rule="nonzero">
                                <polygon id="矩形" fill="url(#linearGradient-8)" points="26.5087715 0.339856045 26.5087715 91.7611322 0 91.7611322"></polygon>
                                <polygon id="矩形备份-11" fill="url(#linearGradient-9)" points="26.6937532 0 85.6437234 75.1216202 38.6610154 90.3927148 26.5087715 91.7611322"></polygon>
                            </g>
                            <g id="编组-13备份" opacity="0.456287202" transform="translate(68.311065, 70.690057)" fill-rule="nonzero">
                                <path d="M0.0879919078,41.2159644 C0.906207085,30.3192287 7.64456446,16.5805739 20.303064,0 L22.0906429,75.108186 L14.7522066,73.9245962 C4.15784831,63.0155774 -0.73022327,52.1127001 0.0879919078,41.2159644 Z" id="矩形" fill="url(#linearGradient-10)"></path>
                                <polygon id="矩形备份-11" fill="url(#linearGradient-11)" points="20.3913627 0 55.0566793 30.8380063 48.9141619 57.4945881 20.3913627 75.7883205"></polygon>
                            </g>
                            <ellipse id="椭圆形" fill="url(#linearGradient-12)" fill-rule="nonzero" cx="160.072197" cy="154.974357" rx="160.072197" ry="58.4552398"></ellipse>
                            <g id="编组" transform="translate(33.985605, 128.465585)" fill-rule="nonzero">
                                <polygon id="路径" fill="#B3CCFF" points="5.43769672 16.3130902 9.51596927 16.3130902 9.51596927 23.1102111 5.43769672 23.1102111"></polygon>
                                <polygon id="路径" fill="#A8C4FC" points="7.81683664 17.6725144 15.6333781 17.6725144 11.7252549 10.8752453 7.81683664 4.07827254 3.9084183 10.8752453 0 17.6725144"></polygon>
                                <polygon id="路径" fill="#B9D1FF" points="7.47683299 14.2739539 14.2739539 14.2739539 10.8753934 8.49640113 7.47683299 2.71884836 4.07827254 8.49640113 0.67971209 14.2739539"></polygon>
                                <polygon id="路径" fill="#CADDFD" points="7.81668904 10.1956814 13.5942418 10.1956814 10.7054654 5.09769434 7.81668904 0 4.92791266 5.09769434 2.03913627 10.1956814"></polygon>
                            </g>
                            <g id="编组备份-5" opacity="0.576892671" transform="translate(263.388435, 123.367744)" fill-rule="nonzero">
                                <polygon id="路径" fill="#B3CCFF" points="5.43769672 16.3130902 9.51596927 16.3130902 9.51596927 23.1102111 5.43769672 23.1102111"></polygon>
                                <polygon id="路径" fill="#A8C4FC" points="7.81683664 17.6725144 15.6333781 17.6725144 11.7252549 10.8752453 7.81683664 4.07827254 3.9084183 10.8752453 0 17.6725144"></polygon>
                                <polygon id="路径" fill="#B9D1FF" points="7.47683299 14.2739539 14.2739539 14.2739539 10.8753934 8.49640113 7.47683299 2.71884836 4.07827254 8.49640113 0.67971209 14.2739539"></polygon>
                                <polygon id="路径" fill="#CADDFD" points="7.81668904 10.1956814 13.5942418 10.1956814 10.7054654 5.09769434 7.81668904 0 4.92791266 5.09769434 2.03913627 10.1956814"></polygon>
                            </g>
                        </g>
                        <ellipse id="椭圆形" fill="#D7E7FF" fill-rule="nonzero" cx="180.072197" cy="174.013493" rx="33.9856045" ry="4.41812859"></ellipse>
                        <ellipse id="椭圆形备份-4" fill="#C3DAFD" fill-rule="nonzero" cx="196.555215" cy="150.393498" rx="74.2585459" ry="11.7250336"></ellipse>
                        <g id="编组-12" transform="translate(104.666667, 41.653649)" fill-rule="nonzero" font-family="Helvetica" font-size="88" font-weight="normal">
                            <g id="404" transform="translate(0.000000, 0.577778)" fill="#77A0EA">
                                <text>
                                    <tspan x="0" y="86">404</tspan>
                                </text>
                            </g>
                            <g id="404备份" transform="translate(3.398560, 2.000000)" fill="#C7D9FC">
                                <text id="404">
                                    <tspan x="0" y="86">404</tspan>
                                </text>
                            </g>
                        </g>
                        <g id="编组-11" transform="translate(160.712768, 162.340000) rotate(49.000000) translate(-160.712768, -162.340000) translate(119.712768, 116.340000)">
                            <g id="编组-10" transform="translate(0.460701, 1.003038)" fill-rule="nonzero">
                                <g id="编组-9" transform="translate(40.570647, 45.200806) scale(-1, 1) rotate(71.000000) translate(-40.570647, -45.200806) translate(3.070647, 16.200806)">
                                    <path d="M9.77512816,54.4442434 L9.77512816,56.408923 C14.7948468,55.7540299 17.6099466,55.4265834 18.2204275,55.4265834 C19.1361489,55.4265834 27.5475744,46.9970918 28.4802326,44.8184426 C29.4128909,42.6397937 34.9653691,38.8210889 37.4150083,38.8210889 C39.0481012,38.8210889 40.6906034,37.9334077 42.3425148,36.1580449 C42.2744148,29.8501428 40.984588,26.6961918 38.4730352,26.6961918 C34.7057054,26.6961918 34.0347535,26.8038142 30.4253997,27.8198633 C26.816046,28.8359123 25.4485288,30.0220743 23.723224,30.8483289 C21.9979192,31.6745834 22.2107595,32.6261803 19.5725561,32.6261803 C17.8137539,32.6261803 15.0834892,33.4988294 11.381762,35.2441275 C7.60143367,37.8759282 5.22074469,39.6240981 4.23969509,40.4886375 C3.25436305,41.3569506 2.25408395,41.3166257 2.25408395,42.0958731 C2.25408395,44.038911 2.49340925,44.7303257 2.97205983,44.1701175 C6.76334455,42.0561548 9.03103398,40.6361594 9.77512816,39.9101311 C10.5192223,39.1841031 11.1636324,38.8210889 11.7083583,38.8210889 C18.747754,36.2730274 22.267452,35.3853462 22.267452,36.1580449 C22.267452,37.3170927 26.1122189,38.9893289 24.6564468,41.9038857 C23.6859321,43.8469236 21.5405923,47.2987565 18.2204275,52.2593844 L9.77512816,54.4442434 Z" id="路径-57" fill="#FFFFFF"></path>
                                    <ellipse id="椭圆形" fill="#FFD3BD" cx="7.90197054" cy="55.940305" rx="1.90319385" ry="1.42739539"></ellipse>
                                    <ellipse id="椭圆形" fill="#FEDCDC" cx="18.3695367" cy="40.2389558" rx="5.70958156" ry="3.80638771"></ellipse>
                                    <ellipse id="椭圆形备份-3" fill="#FEDCDC" cx="20.3994273" cy="38.9961484" rx="5.70958156" ry="1.35942418"></ellipse>
                                    <ellipse id="椭圆形" fill="#483E3E" transform="translate(16.942141, 39.763157) rotate(-11.000000) translate(-16.942141, -39.763157) " cx="16.9421413" cy="39.7631573" rx="5.2337831" ry="3.33058924"></ellipse>
                                    <path d="M35.1682135,26.9020211 C36.6898629,25.5318161 44.5595542,25.0525241 46.6665036,20.6811121 C48.773453,16.3097 51.8458054,12.5440642 51.8458054,9.28258315 C51.8458054,7.10826251 51.8458054,5.27437336 51.8458054,3.7809158 L56.1020466,3.7809158 C56.2627591,12.1688179 55.9885694,16.7607859 55.2794784,17.5568199 C54.5703871,18.3528539 53.0033479,20.4953708 50.5783612,23.9843707 L50.5783612,25.0134049 C53.4429545,25.6994277 55.284183,25.6994277 56.1020466,25.0134049 C57.3288423,23.9843707 65.8605198,10.3812229 66.5955809,10.3812229 C67.3306423,10.3812229 69.9925572,10.8537623 69.9925572,11.9377234 C69.9925572,13.0216846 64.1306984,27.6787496 61.2136008,28.8197926 C58.2965036,29.9608357 45.1224237,37.4260536 42.3425148,36.1580449 C41.0475426,35.5673649 42.4622413,33.1566324 40.4472766,30.2527148 C39.5785665,29.0007512 33.6465643,28.272226 35.1682135,26.9020211 Z" id="路径-58" fill="#3484FE"></path>
                                    <path d="M51.4939021,2.94607789 C55.3998191,1.07845677 57.7228952,0.144646209 58.4631302,0.144646209 C59.5734827,0.144646209 59.4587232,2.94607789 59.4587232,2.94607789 C59.4587232,2.94607789 58.6204734,3.48754078 56.9439737,4.57046655 L54.6847266,4.57046655 L52.2561554,3.94478453 L51.4939021,2.94607789 Z" id="路径-59" fill="#373535"></path>
                                    <path d="M66.5123202,9.88318318 C69.8384699,8.82768422 72.0682692,8.56380947 73.201718,9.09155897 C74.3351671,9.61930844 74.6961904,10.3298071 74.2847882,11.2230548 L72.5114289,12.4208845 L70.4807231,12.4208845 L67.7266058,11.2230548 L66.5123202,9.88318318 Z" id="路径-60" fill="#373535"></path>
                                    <path d="M1.68051304,41.9038857 C0.260995403,43.7799217 -0.259229754,44.9038644 0.119837573,45.2757141 C0.498904899,45.6475639 1.18975537,45.6475639 2.19238898,45.2757141 L3.38333876,45.2757141 L1.68051304,41.9038857 Z" id="路径-61" fill="#FFD2BD"></path>
                                </g>
                                <path d="M62.6819759,30.9269001 L63.4530117,30.9269001 C63.8735843,30.9269001 64.1539652,30.5190743 64.1539652,29.907332 C64.1539652,29.2955939 63.8735843,28.8877681 63.4530117,28.8877681 L62.6819616,28.8877681 C62.331484,26.0329815 60.6491942,23.7899232 58.5463261,23.7899232 C56.4434577,23.7899232 54.7611743,26.0329696 54.4106903,28.8877681 L53.6396691,28.8877681 C53.2190966,28.8877681 52.9387157,29.2955939 52.9387157,29.907332 C52.9387157,30.5190743 53.2190966,30.9269001 53.6396691,30.9269001 L62.6819759,30.9269001 Z" id="形状备份-4" fill="#FBEA34" transform="translate(58.546340, 27.358412) rotate(16.000000) translate(-58.546340, -27.358412) "></path>
                            </g>
                            <path d="M44.8116873,51.7835442 C49.5890852,42.8694719 53.3352871,38.4124355 56.0502938,38.4124355" id="路径-62" stroke="#3484FE" stroke-width="3" stroke-linecap="round" stroke-linejoin="round"></path>
                            <line x1="40.3149589" y1="46.37382" x2="52.9060751" y2="34.0627447" id="路径-63" stroke="#3484FE" stroke-width="3" stroke-linecap="round" stroke-linejoin="round"></line>
                        </g>
                        <path d="M134.871343,170.275076 C134.871343,173.587576 136.378996,175.243826 139.394302,175.243826" id="路径-64" stroke="#B9CEEF"></path>
                        <path d="M130.793071,171.634501 C130.793071,173.220496 131.472783,174.013493 132.832207,174.013493" id="路径-64备份" stroke="#B9CEEF"></path>
                    </g>
                </g>
            </g>
        </g>
    </g>
</svg>