<?xml version="1.0" encoding="UTF-8"?>
<svg width="48px" height="48px" viewBox="0 0 48 48" version="1.1" xmlns="http://www.w3.org/2000/svg" xmlns:xlink="http://www.w3.org/1999/xlink">
    <title>添加</title>
    <g id="页面-1" stroke="none" stroke-width="1" fill="none" fill-rule="evenodd">
        <g id="1-消息" transform="translate(-672.000000, -61.000000)">
            <g id="添加" transform="translate(672.000000, 61.000000)">
                <rect id="矩形" stroke="#6B6B6B" stroke-width="2" x="1" y="1" width="46" height="46" rx="23"></rect>
                <g id="编组-5" transform="translate(14.000000, 13.500000)" fill="#6B6B6B">
                    <path d="M10,0.5 C10.8284271,0.5 11.5,1.17157288 11.5,2 L11.499,9 L18.5,9 C19.3284271,9 20,9.67157288 20,10.5 C20,11.3284271 19.3284271,12 18.5,12 L11.499,12 L11.5,19 C11.5,19.8284271 10.8284271,20.5 10,20.5 C9.17157288,20.5 8.5,19.8284271 8.5,19 L8.499,12 L1.5,12 C0.671572875,12 2.27475129e-13,11.3284271 2.27373675e-13,10.5 C2.27272222e-13,9.67157288 0.671572875,9 1.5,9 L8.499,9 L8.5,2 C8.5,1.17157288 9.17157288,0.5 10,0.5 Z" id="形状结合"></path>
                </g>
            </g>
        </g>
    </g>
</svg>