<?xml version="1.0" encoding="UTF-8"?>
<svg width="48px" height="48px" viewBox="0 0 48 48" version="1.1" xmlns="http://www.w3.org/2000/svg" xmlns:xlink="http://www.w3.org/1999/xlink">
    <title>账号</title>
    <g id="页面-1" stroke="none" stroke-width="1" fill="none" fill-rule="evenodd">
        <g id="0-登录" transform="translate(-80.000000, -537.000000)">
            <g id="编组-3" transform="translate(80.000000, 504.000000)">
                <g id="编组" transform="translate(-0.000000, 0.000000)">
                    <g id="账号" transform="translate(0.000000, 33.000000)">
                        <rect id="矩形" x="0" y="0" width="48" height="48"></rect>
                        <g id="user" transform="translate(9.000000, 8.000000)" fill="#B7BDC7" fill-rule="nonzero">
                            <path d="M21.3333333,19.8333333 C26.0026499,19.8333333 29.8039531,23.5497399 29.9406387,28.1859487 L29.9444444,28.4444444 L29.9444444,32 C29.9444444,32.8284271 29.2728716,33.5 28.4444444,33.5 C27.6647483,33.5 27.0239958,32.9051119 26.951311,32.14446 L26.9444444,32 L26.9444444,28.4444444 C26.9444444,25.4192974 24.5504679,22.9532936 21.5536617,22.8375798 L21.3333333,22.8333333 L7.11111111,22.8333333 C4.08596409,22.8333333 1.61996025,25.2273099 1.50424643,28.2241161 L1.5,28.4444444 L1.5,32 C1.5,32.8284271 0.828427125,33.5 0,33.5 C-0.779696117,33.5 -1.42044868,32.9051119 -1.49313342,32.14446 L-1.5,32 L-1.5,28.4444444 C-1.5,23.7751279 2.21640659,19.9738247 6.85261542,19.837139 L7.11111111,19.8333333 L21.3333333,19.8333333 Z" id="路径"></path>
                            <path d="M14.2222222,-1.5 C9.46643688,-1.5 5.61111111,2.35532577 5.61111111,7.11111111 C5.61111111,11.8668965 9.46643688,15.7222222 14.2222222,15.7222222 C18.9780076,15.7222222 22.8333333,11.8668965 22.8333333,7.11111111 C22.8333333,2.35532577 18.9780076,-1.5 14.2222222,-1.5 Z M14.2222222,1.5 C17.3211533,1.5 19.8333333,4.01218002 19.8333333,7.11111111 C19.8333333,10.2100422 17.3211533,12.7222222 14.2222222,12.7222222 C11.1232911,12.7222222 8.61111111,10.2100422 8.61111111,7.11111111 C8.61111111,4.01218002 11.1232911,1.5 14.2222222,1.5 Z" id="椭圆形"></path>
                        </g>
                    </g>
                </g>
            </g>
        </g>
    </g>
</svg>