<?xml version="1.0" encoding="UTF-8"?>
<svg width="48px" height="48px" viewBox="0 0 48 48" version="1.1" xmlns="http://www.w3.org/2000/svg" xmlns:xlink="http://www.w3.org/1999/xlink">
    <title>密码</title>
    <g id="页面-1" stroke="none" stroke-width="1" fill="none" fill-rule="evenodd">
        <g id="0-登录" transform="translate(-80.000000, -681.000000)">
            <g id="编组-3" transform="translate(80.000000, 504.000000)">
                <g id="编组备份" transform="translate(0.000000, 144.000000)">
                    <g id="密码" transform="translate(0.000000, 33.000000)">
                        <rect id="矩形" x="0" y="0" width="48" height="48"></rect>
                        <g id="lock" transform="translate(9.000000, 8.000000)" fill="#B7BDC7" fill-rule="nonzero">
                            <path d="M26.8,12.9 L2,12.9 C0.0670033756,12.9 -1.5,14.4670034 -1.5,16.4 L-1.5,30 C-1.5,31.9329966 0.0670033756,33.5 2,33.5 L26.8,33.5 C28.7329966,33.5 30.3,31.9329966 30.3,30 L30.3,16.4 C30.3,14.4670034 28.7329966,12.9 26.8,12.9 Z M2,15.9 L26.8,15.9 C27.0761424,15.9 27.3,16.1238576 27.3,16.4 L27.3,30 C27.3,30.2761424 27.0761424,30.5 26.8,30.5 L2,30.5 C1.72385763,30.5 1.5,30.2761424 1.5,30 L1.5,16.4 C1.5,16.1238576 1.72385763,15.9 2,15.9 Z" id="矩形"></path>
                            <path d="M14.4,-1.5 C19.5562447,-1.5 23.7530394,2.60789389 23.8962236,7.72952133 L23.9,8 L23.9,14.4 C23.9,15.2284271 23.2284271,15.9 22.4,15.9 C21.6203039,15.9 20.9795513,15.3051119 20.9068666,14.54446 L20.9,14.4 L20.9,8 C20.9,4.41014913 17.9898509,1.5 14.4,1.5 C10.8881894,1.5 8.02684944,4.28499621 7.90410301,7.76686587 L7.9,8 L7.9,14.4 C7.9,15.2284271 7.22842712,15.9 6.4,15.9 C5.62030388,15.9 4.97955132,15.3051119 4.90686658,14.54446 L4.9,14.4 L4.9,8 C4.9,2.75329488 9.15329488,-1.5 14.4,-1.5 Z" id="路径"></path>
                        </g>
                    </g>
                </g>
            </g>
        </g>
    </g>
</svg>