<?xml version="1.0" encoding="UTF-8"?>
<svg width="100px" height="100px" viewBox="0 0 100 100" version="1.1" xmlns="http://www.w3.org/2000/svg" xmlns:xlink="http://www.w3.org/1999/xlink">
    <title>值班管理</title>
    <g id="页面-1" stroke="none" stroke-width="1" fill="none" fill-rule="evenodd">
        <g id="1-消息" transform="translate(-48.000000, -1102.000000)">
            <g id="卡片备份-5" transform="translate(24.000000, 1072.000000)">
                <g id="值班管理" transform="translate(24.000000, 30.000000)">
                    <rect id="矩形" fill="#618CF3" x="0" y="0" width="100" height="100" rx="16"></rect>
                    <g id="编组" transform="translate(26.000000, 26.000000)" fill="#FFFFFF" fill-rule="nonzero">
                        <path d="M37.0001115,26 C32.5486229,26 28.5359761,28.6829964 26.8350217,32.7967012 C25.1340672,36.9104059 26.0801697,41.6437637 29.2317483,44.7875416 C32.3833269,47.9313196 37.1190078,48.8656821 41.228474,47.1545277 C45.3379402,45.4433733 48.0109584,41.4240777 47.9999662,36.9725946 C47.9847692,30.9080878 43.0646073,26 37.0001115,26 L37.0001115,26 Z M43.8068844,38.2929641 C43.4645063,38.6371969 42.999035,38.8308306 42.5135264,38.8308306 L37.0003485,38.8308306 C36.5069823,38.8344967 36.0328355,38.6397107 35.6845651,38.2902366 C35.3362947,37.9407625 35.1431454,37.4659459 35.1485651,36.9725946 L35.1485651,29.6687459 C35.2069443,28.6983699 36.0109245,27.9413035 36.9830531,27.9413035 C37.9551818,27.9413035 38.7591619,28.6983699 38.8175412,29.6687459 L38.8175412,35.1686662 L42.5000219,35.1686662 C43.2397534,35.169722 43.906178,35.6158027 44.1891182,36.2992866 C44.4720584,36.9827706 44.3159217,37.7693662 43.7933798,38.2929641 L43.8068844,38.2929641 L43.8068844,38.2929641 Z" id="形状"></path>
                        <path d="M10.919797,12.3746857 C10.919797,17.3802368 13.975783,21.8930259 18.6624392,23.8077242 C23.3490953,25.722902 28.7432999,24.6628042 32.3292172,21.1223509 C35.9151344,17.5818976 36.9861894,12.2581493 35.0431079,7.63433884 C33.1000264,3.01052843 28.5252933,-0.00287333274 23.4527458,2.05596306e-06 C16.5298184,0.00384071168 10.919797,5.54291766 10.919797,12.3746857 Z M23.5427709,42.5355592 C24.0680337,43.7801352 24.7672636,44.9462338 25.6201601,46 L1.78638924,46 C0.820400771,46 0.0293201665,45.2433168 0,44.2917583 L0,44.0797867 C0.162045114,36.5965177 4.00611534,29.659723 10.3034903,25.4871915 C11.5265568,24.6705179 13.1310651,24.6705179 14.3541315,25.4871915 C15.2396996,26.0903853 16.1865786,26.6010862 17.1794587,27.0110371 C19.1629074,27.8434444 21.2969447,28.2711177 23.4527458,28.2682397 C24.031229,28.2708173 24.6093398,28.2388671 25.1839035,28.1725648 C22.1436031,32.3495436 21.5222076,37.7827469 23.5427709,42.5218913 L23.5427709,42.5355592 L23.5427709,42.5355592 Z" id="形状"></path>
                    </g>
                </g>
            </g>
        </g>
    </g>
</svg>