<?xml version="1.0" encoding="UTF-8"?>
<svg width="100px" height="100px" viewBox="0 0 100 100" version="1.1" xmlns="http://www.w3.org/2000/svg" xmlns:xlink="http://www.w3.org/1999/xlink">
    <title>网格化搜捕</title>
    <g id="页面-1" stroke="none" stroke-width="1" fill="none" fill-rule="evenodd">
        <g id="1-消息" transform="translate(-48.000000, -182.000000)">
            <g id="卡片" transform="translate(24.000000, 152.000000)">
                <g id="网格化搜捕" transform="translate(24.000000, 30.000000)">
                    <rect id="矩形" fill="#539CF8" x="0" y="0" width="100" height="100" rx="16"></rect>
                    <g id="编组" transform="translate(26.500000, 26.000000)" fill="#FFFFFF" fill-rule="nonzero">
                        <path d="M34.8423773,16.8888889 L43.1111111,22.8888889 L43.1111111,9.55555556 L34.8423773,16.8888889 Z M3.09043928,0.222222222 L0.444444444,0.222222222 L0.444444444,40.8888889 L27.5658915,17.5555556 L3.09043928,0.222222222 Z M43.1111111,3.55555556 L43.1111111,0.222222222 L10.6976744,0.222222222 L30.873385,14.2222222 L43.1111111,3.55555556 Z M1.10594315,46.2222222 L21.2816537,46.2222222 L14.3359173,34.8888889 L1.10594315,46.2222222 Z M23.2661499,36.2222222 C23.2661499,29.2222222 28.8888889,23.2222222 35.8346253,23.2222222 L31.2041344,19.8888889 L17.6434109,31.8888889 L26.5736434,46.2222222 L27.8966408,46.2222222 C24.9198966,43.8888889 23.2661499,40.2222222 23.2661499,36.2222222 Z" id="形状"></path>
                        <path d="M43.4444444,41.5555556 L29.4444444,41.5555556 C28.7777778,41.5555556 28.4444444,41.2323232 28.4444444,40.5858586 C28.4444444,39.9393939 28.7777778,39.6161616 29.4444444,39.6161616 L43.4444444,39.6161616 C44.1111111,39.6161616 44.4444444,39.9393939 44.4444444,40.5858586 C44.4444444,41.2323232 44.1111111,41.5555556 43.4444444,41.5555556 L43.4444444,41.5555556 Z M43.4444444,32.8282828 L29.4444444,32.8282828 C28.7777778,32.8282828 28.4444444,32.5050505 28.4444444,31.8585859 C28.4444444,31.2121212 28.7777778,30.8888889 29.4444444,30.8888889 L43.4444444,30.8888889 C44.1111111,30.8888889 44.4444444,31.2121212 44.4444444,31.8585859 C44.4444444,32.1818182 44.1111111,32.8282828 43.4444444,32.8282828 L43.4444444,32.8282828 Z" id="形状"></path>
                        <path d="M32.0825397,41.8178506 C31.4349206,41.8178506 31.1111111,41.4790528 31.1111111,40.8014572 L31.1111111,31.992714 C31.1111111,31.3151184 31.4349206,30.9763206 32.0825397,30.9763206 C32.7301587,30.9763206 33.0539683,31.3151184 33.0539683,31.992714 L33.0539683,40.8014572 C33.0539683,41.4790528 32.4063492,41.8178506 32.0825397,41.8178506 Z M41.4730159,41.8178506 C40.8253968,41.8178506 40.5015873,41.4790528 40.5015873,40.8014572 L40.5015873,31.992714 C40.5015873,31.3151184 40.8253968,30.9763206 41.4730159,30.9763206 C42.1206349,30.9763206 42.4444444,31.3151184 42.4444444,31.992714 L42.4444444,40.8014572 C42.4444444,41.4790528 41.7968254,41.8178506 41.4730159,41.8178506 Z M36.9396825,46.2222222 C36.2920635,46.2222222 35.968254,45.8834244 35.968254,45.2058288 L35.968254,26.571949 C35.968254,25.8943534 36.2920635,25.5555556 36.9396825,25.5555556 C37.5873016,25.5555556 37.9111111,25.8943534 37.9111111,26.571949 L37.9111111,45.2058288 C37.9111111,45.8834244 37.2634921,46.2222222 36.9396825,46.2222222 Z" id="形状"></path>
                        <path d="M36.6134585,47.5555556 C34.9233177,47.5555556 33.571205,47.2222222 31.8810642,46.5555556 C30.5289515,45.8888889 29.1768388,45.2222222 28.1627543,43.8888889 C27.1486698,42.8888889 26.1345853,41.5555556 25.458529,40.2222222 C24.7824726,38.8888889 24.4444444,37.2222222 24.4444444,35.5555556 C24.4444444,33.8888889 24.7824726,32.5555556 25.458529,30.8888889 C26.1345853,29.8888889 27.1486698,28.8888889 28.1627543,27.5555556 C29.1768388,26.5555556 30.5289515,25.8888889 31.8810642,25.2222222 C33.2331768,24.5555556 34.9233177,24.2222222 36.6134585,24.2222222 C38.3035994,24.2222222 39.6557121,24.5555556 41.3458529,25.2222222 C42.3599374,25.8888889 43.7120501,26.5555556 44.7261346,27.5555556 C45.7402191,28.5555556 46.7543036,29.8888889 47.4303599,31.2222222 C48.1064163,32.5555556 48.4444444,34.2222222 48.4444444,35.8888889 C48.4444444,37.5555556 48.1064163,38.8888889 47.4303599,40.5555556 C46.7543036,41.8888889 46.0782473,43.2222222 44.7261346,44.2222222 C43.7120501,45.2222222 42.3599374,46.2222222 41.0078247,46.8888889 C39.6557121,47.2222222 37.9655712,47.5555556 36.6134585,47.5555556 L36.6134585,47.5555556 Z M36.6134585,26.2222222 C31.2050078,26.2222222 26.8106416,30.5555556 26.8106416,35.8888889 C26.8106416,41.2222222 31.2050078,45.5555556 36.6134585,45.5555556 C42.0219092,45.5555556 46.4162754,41.2222222 46.4162754,35.8888889 C46.4162754,30.5555556 42.0219092,26.2222222 36.6134585,26.2222222 Z" id="形状"></path>
                        <path d="M46.0947177,36.2222222 L27.4608379,36.2222222 C26.7832423,36.2222222 26.4444444,35.8888889 26.4444444,35.2222222 C26.4444444,34.5555556 26.7832423,34.2222222 27.4608379,34.2222222 L46.0947177,34.2222222 C46.7723133,34.2222222 47.1111111,34.5555556 47.1111111,35.2222222 C47.1111111,35.5555556 46.7723133,36.2222222 46.0947177,36.2222222 Z" id="路径"></path>
                    </g>
                </g>
            </g>
        </g>
    </g>
</svg>