<?xml version="1.0" encoding="UTF-8"?>
<svg width="100px" height="100px" viewBox="0 0 100 100" version="1.1" xmlns="http://www.w3.org/2000/svg" xmlns:xlink="http://www.w3.org/1999/xlink">
    <title>日常巡逻</title>
    <g id="页面-1" stroke="none" stroke-width="1" fill="none" fill-rule="evenodd">
        <g id="1-消息" transform="translate(-48.000000, -550.000000)">
            <g id="卡片备份-2" transform="translate(24.000000, 520.000000)">
                <g id="日常巡逻" transform="translate(24.000000, 30.000000)">
                    <rect id="矩形" fill="#FDB205" x="0" y="0" width="100" height="100" rx="16"></rect>
                    <g id="巡逻里程" transform="translate(26.000000, 26.000000)" fill="#FFFFFF">
                        <path d="M12.8347969,33.6841981 C12.8347969,32.736816 12.2086875,32.1052594 11.2695469,32.1052594 L1.56520312,32.1052594 C0.626109375,32.1052594 0,32.736816 0,33.6841981 C0,34.6315802 0.626109375,35.2631367 1.56520312,35.2631367 L11.1652031,35.2631367 C12.1043437,35.2631367 12.8347969,34.6315802 12.8347969,33.6841981 Z M43.0956563,32 L35.0608594,32 C34.1217188,32 33.4956563,32.6315565 33.4956563,33.5788914 C33.4956563,34.5262262 34.1217188,35.1578773 35.0608594,35.1578773 L43.0956563,35.1578773 C44.0347969,35.1578773 44.6608594,35.7894812 44.6608594,36.7368633 C44.6608594,37.6842454 44.0347969,38.3157546 43.0956563,38.3157546 L14.4,38.3157546 C11.6869688,38.3157546 9.6,40.421085 9.6,43.1578773 C9.6,45.8946696 11.6869687,48 14.4,48 L33.6,48 C34.5391406,48 35.1652031,47.3684435 35.1652031,46.4211086 C35.1652031,45.4737738 34.5391406,44.8421227 33.6,44.8421227 L14.4,44.8421227 C13.4608594,44.8421227 12.8347969,44.2105661 12.8347969,43.263184 C12.8347969,42.3158019 13.4608594,41.6842454 14.4,41.6842454 L43.2,41.6842454 C45.9130313,41.6842454 48,39.5789623 48,36.8421227 C48,34.1052831 45.9130313,32 43.0956563,32 L43.0956563,32 Z" id="形状"></path>
                        <path d="M22.9994659,36 C22.9994659,36 37.9988388,27.3471796 37.9988388,15.0623081 C38.1023257,6.72995011 31.2750252,0 22.9995123,0 C14.7239994,0 8,6.72995011 8,15.0623081 C8,27.66769 22.9994659,36 22.9994659,36 Z M22.9994659,9.61420758 C25.9993312,9.61420758 28.5854347,12.2848715 28.5854347,15.3828185 C28.5854347,18.4807656 25.9993312,21.1513335 22.9995123,21.1513335 C19.9996935,21.1513335 17.413497,18.6943592 17.413497,15.3828185 C17.5169374,12.2848715 19.9996006,9.61420758 22.9995123,9.61420758 L22.9994659,9.61420758 Z" id="形状"></path>
                    </g>
                </g>
            </g>
        </g>
    </g>
</svg>