<?xml version="1.0" encoding="UTF-8"?>
<svg width="100px" height="100px" viewBox="0 0 100 100" version="1.1" xmlns="http://www.w3.org/2000/svg" xmlns:xlink="http://www.w3.org/1999/xlink">
    <title>紧急调配</title>
    <g id="页面-1" stroke="none" stroke-width="1" fill="none" fill-rule="evenodd">
        <g id="1-消息" transform="translate(-48.000000, -734.000000)">
            <g id="卡片备份-3" transform="translate(24.000000, 704.000000)">
                <g id="紧急调配" transform="translate(24.000000, 30.000000)">
                    <rect id="矩形" fill="#FF8551" x="0" y="0" width="100" height="100" rx="16"></rect>
                    <g id="人事调配" transform="translate(28.000000, 22.000000)" fill="#FFFFFF">
                        <path d="M36.109783,34.0488559 C37.855243,33.3129252 39.8060512,33.6283241 41.3461629,34.6796537 L40.1140735,36.67718 L45.4531276,36.67718 L43.5023193,31 L42.4755782,32.5769944 C40.3194217,31.105133 37.5472206,30.7897341 35.0830418,31.7359307 C31.694796,33.1026592 29.6413137,36.572047 30.0520101,40.2517007 L32.4135148,40.2517007 C32.2081666,37.6233766 33.6456042,35.1001855 36.109783,34.0488559 L36.109783,34.0488559 Z M46.2745205,38.8849722 L43.9130158,38.8849722 C44.3237123,41.5132962 42.8862747,44.1416203 40.4220959,45.0878169 C38.77931,45.7186147 36.9311759,45.5083488 35.3910642,44.5621521 C35.6990865,44.1416203 36.4178053,42.7748918 36.4178053,42.7748918 L30.6680548,42.4594929 L33.1322336,48.3469388 L34.1589748,46.6648114 C36.3151312,48.0315399 38.8819841,48.3469388 41.2434888,47.4007421 C44.6317346,46.0340136 46.685217,42.5646259 46.2745205,38.8849722 Z" id="形状"></path>
                        <path d="M27.1785866,39.7357724 C27.1785866,35.5691057 29.546418,31.9105691 33.0466905,30.1829268 C33.6643856,29.8780488 33.5614364,29.0650407 32.9437413,28.7601626 C30.9877067,27.9471545 28.9287228,27.6422764 26.7667898,27.6422764 L16.7807182,27.6422764 C7.51529098,27.6422764 0,35.0609756 0,44.2073171 L0,45.2235772 C0,50 7.41234179,50 16.7807182,50 L31.193605,50 C31.9142494,50 32.223097,48.9837398 31.6054018,48.5772358 C29.031672,46.5447154 27.1785866,43.2926829 27.1785866,39.7357724 L27.1785866,39.7357724 Z M21.4134318,26.3211382 C28.7228244,26.3211382 34.6938776,20.4268293 34.6938776,13.2113821 C34.6938776,5.99593496 28.7228244,0 21.4134318,0 C14.1040392,0 8.13298613,5.89430894 8.13298613,13.1097561 C8.13298613,20.3252033 14.1040392,26.3211382 21.4134318,26.3211382 Z" id="形状"></path>
                    </g>
                </g>
            </g>
        </g>
    </g>
</svg>