<?xml version="1.0" encoding="UTF-8"?>
<svg width="100px" height="100px" viewBox="0 0 100 100" version="1.1" xmlns="http://www.w3.org/2000/svg" xmlns:xlink="http://www.w3.org/1999/xlink">
    <title>训练计划</title>
    <g id="页面-1" stroke="none" stroke-width="1" fill="none" fill-rule="evenodd">
        <g id="1-消息" transform="translate(-48.000000, -366.000000)">
            <g id="卡片备份" transform="translate(24.000000, 336.000000)">
                <g id="训练计划" transform="translate(24.000000, 30.000000)">
                    <rect id="矩形" fill="#35C48B" x="0" y="0" width="100" height="100" rx="16"></rect>
                    <g id="训练营" transform="translate(27.000000, 24.000000)" fill="#FFFFFF">
                        <path d="M22.9774749,52 C22.0078173,52 21.3576365,51.6765036 20.7102234,51.3557576 L2.58954815,40.7139631 C0.969657585,40.0697207 0,38.4578453 0,36.5224206 L0,15.5620635 C0,13.9501881 0.969657585,12.3383127 2.26443166,11.3705739 L20.390851,0.725764431 C22.0078173,-0.241921477 23.6277078,-0.241921477 25.2446741,0.725764431 L43.3682736,11.3676648 C44.9852399,12.3354564 45.6326531,13.9472789 45.6326531,15.5592072 L45.6326531,36.5195115 C45.6326531,38.1314397 44.6630477,39.743368 43.3682736,40.7110011 L25.2446741,51.3529014 C24.5973132,51.6735415 23.9500045,51.9971438 22.9803469,51.9971438 L22.9774749,52 Z M11.8038801,17.6245912 C10.791455,17.113323 9.41119814,17.5783623 8.91772708,18.5778901 C8.42441267,19.5744558 8.88639558,20.9725887 9.870309,21.4723262 L19.9630716,27.0619487 C20.3260133,27.243871 20.5518549,27.6224862 20.5420254,28.0325437 L20.5420254,40.7428429 C20.5420254,41.6383292 21.4916831,42.7475052 22.5240559,42.7475052 C23.7046789,42.7475052 24.819819,41.9733564 24.819819,40.7428429 L24.819819,28.0325437 C24.819819,27.6165895 25.0250926,27.2526296 25.3759531,27.0734794 L35.6626055,21.9720636 C36.6550306,21.4723262 37.1170135,20.0742461 36.6207748,19.0747184 C36.1274082,18.0780997 34.7499712,17.6101513 33.763238,18.1099416 L33.480889,18.2688336 L22.5440036,23.6908367 L11.8066999,17.6245912 L11.8038801,17.6245912 Z" id="形状"></path>
                    </g>
                </g>
            </g>
        </g>
    </g>
</svg>