<?xml version="1.0" encoding="UTF-8"?>
<svg width="100px" height="100px" viewBox="0 0 100 100" version="1.1" xmlns="http://www.w3.org/2000/svg" xmlns:xlink="http://www.w3.org/1999/xlink">
    <title>假期管理</title>
    <g id="页面-1" stroke="none" stroke-width="1" fill="none" fill-rule="evenodd">
        <g id="1-消息" transform="translate(-48.000000, -918.000000)">
            <g id="卡片备份-4" transform="translate(24.000000, 888.000000)">
                <g id="假期管理" transform="translate(24.000000, 30.000000)">
                    <rect id="矩形" fill="#FF7575" x="0" y="0" width="100" height="100" rx="16"></rect>
                    <g id="编组" transform="translate(28.000000, 26.000000)" fill="#FFFFFF" fill-rule="nonzero">
                        <path d="M24.2486997,48 L43.752149,48 C44.4450397,47.9874114 45,47.4225714 45,46.7301964 L45,44.2367637 C45,43.5482213 44.441318,42.9900474 43.752149,42.9900474 L36.4961264,42.9900474 C35.9648971,42.9906218 35.5271753,42.5736387 35.5024672,42.0434666 C35.4775444,39.9543992 36.2453949,37.9334067 37.651544,36.3870685 C39.0002141,34.9692162 39.3897294,32.8922463 38.6463155,31.0827574 C37.9029016,29.2732684 36.1651797,28.068668 34.2083995,28.0063645 C32.8508875,27.9368441 31.5264221,28.4393482 30.5572798,29.3916048 C28.6046056,31.241894 28.4717202,34.3056922 30.2568713,36.3178065 C31.7157739,37.8895944 32.5391749,39.9462252 32.5677065,42.0896412 C32.5427489,42.6161234 32.1014354,43.0262743 31.5740473,43.0131348 L24.2486997,43.0131348 C23.5595306,43.0131348 23.0008487,43.5713087 23.0008487,44.2598511 L23.0008487,46.6840217 C22.9883866,47.0247513 23.1135992,47.3561731 23.348304,47.6036918 C23.5830088,47.8512105 23.9074847,47.9940282 24.2486997,48 Z" id="路径"></path>
                        <path d="M36.8948208,0 L4.10563109,0 C1.79203695,0.0643773847 -0.0385988619,1.98117866 0.00108506895,4.29774126 L0.00108506895,41.7022587 C-0.0242231992,42.8171193 0.394065854,43.8963545 1.16387714,44.7023997 C1.93368843,45.5084449 2.99192017,45.9752283 4.10563109,46 L20.6181727,46 L20.6181727,44.724846 C20.6310615,42.4218427 22.4928843,40.5580769 24.7934867,40.5451746 L29.9831427,40.5451746 C29.7017075,39.8059669 29.2857963,39.1254024 28.7564967,38.5379877 C27.4712554,37.0661554 26.7593439,35.1797173 26.7514024,33.224846 C26.7279456,31.0779792 27.579808,29.0143208 29.1103369,27.510267 C30.5749648,25.9939466 32.5939969,25.1411453 34.7010117,25.1488707 L34.9840838,25.1488707 C37.3616171,25.2681454 39.564267,26.4354711 40.9993668,28.3367557 L40.9993668,4.29774126 C41.0390508,1.98117864 39.2084149,0.0643773594 36.8948208,0 Z M3.16205728,14.8059548 C3.16205728,14.8059548 3.49230812,12.6570842 6.18149347,14.8059548 C6.98353121,15.4435318 7.83274761,15.8921971 8.35171322,16.2464065 L5.04920489,17.6396304 C4.23715687,16.8309312 3.59544446,15.867358 3.16205728,14.8059548 L3.16205728,14.8059548 Z M30.5021083,15.8213552 C28.9688008,16.2936345 13.2818864,20.8275154 13.2818864,20.8275154 C10.4958899,21.6261946 7.50499651,20.6437835 5.7332959,18.3480493 L9.29528703,16.8839836 C9.92714937,17.1171159 10.6213403,17.1171159 11.2532027,16.8839836 L15.31057,15.8213552 L9.22451899,6.80082134 C9.22451899,6.80082134 7.99787305,4.84086241 12.2675445,5.80903493 L21.3730317,12.8932238 C22.0247387,13.1510328 22.7500084,13.1510328 23.4017154,12.8932238 L29.4877664,10.8860369 C29.4877664,10.8860369 33.6159018,9.44558521 34.5594756,11.8069815 C35.5030494,14.1683778 32.0354157,15.349076 30.5021083,15.8213552 L30.5021083,15.8213552 Z" id="形状"></path>
                    </g>
                </g>
            </g>
        </g>
    </g>
</svg>